<?xml version="1.0" encoding="UTF-8" standalone="no"?>
<svg
   xmlns:dc="http://purl.org/dc/elements/1.1/"
   xmlns:cc="http://creativecommons.org/ns#"
   xmlns:rdf="http://www.w3.org/1999/02/22-rdf-syntax-ns#"
   xmlns:svg="http://www.w3.org/2000/svg"
   xmlns="http://www.w3.org/2000/svg"
   xmlns:sodipodi="http://sodipodi.sourceforge.net/DTD/sodipodi-0.dtd"
   xmlns:inkscape="http://www.inkscape.org/namespaces/inkscape"
   width="15.24mm"
   height="15.24mm"
   viewBox="0 0 15.24 15.24"
   version="1.1"
   id="svg241"
   inkscape:version="1.0.1 (c497b03c, 2020-09-10)"
   sodipodi:docname="Holzschnabel.svg">
  <defs
     id="defs235" />
  <sodipodi:namedview
     id="base"
     pagecolor="#ffffff"
     bordercolor="#666666"
     borderopacity="1.0"
     inkscape:pageopacity="0.0"
     inkscape:pageshadow="2"
     inkscape:zoom="7.6061899"
     inkscape:cx="-13.562365"
     inkscape:cy="22.991627"
     inkscape:document-units="mm"
     inkscape:current-layer="layer1"
     inkscape:document-rotation="0"
     showgrid="false"
     inkscape:window-width="1440"
     inkscape:window-height="855"
     inkscape:window-x="0"
     inkscape:window-y="23"
     inkscape:window-maximized="0"
     inkscape:snap-text-baseline="true" />
  <metadata
     id="metadata238">
    <rdf:RDF>
      <cc:Work
         rdf:about="">
        <dc:format>image/svg+xml</dc:format>
        <dc:type
           rdf:resource="http://purl.org/dc/dcmitype/StillImage" />
        <dc:title />
      </cc:Work>
    </rdf:RDF>
  </metadata>
  <g
     inkscape:label="Ebene 1"
     inkscape:groupmode="layer"
     id="layer1">
    <g
       id="g99"
       transform="translate(0,0.27828212)">
      <g
         id="g83">
        <path
           d="M 1.8185597,8.0208283 V 3.4629381 q 0,-0.067028 0.027589,-0.093839 0.034486,-0.026811 0.193121,-0.033514 0.1586352,-0.0067 0.5517745,-0.0067 v 4.5578902 q 0,0.067028 -0.027589,0.093839 -0.027589,0.026811 -0.1931211,0.033514 -0.1586352,0.0067 -0.5517744,0.0067 z m -1.4346136,0 V 3.4629381 q 0,-0.067028 0.0275887,-0.093839 0.0275887,-0.026811 0.18622389,-0.033514 0.16553233,-0.0067 0.55867161,-0.0067 v 4.5578902 q 0,0.067028 -0.027589,0.093839 -0.027589,0.026811 -0.19312101,0.033514 -0.15863521,0.0067 -0.55177419,0.0067 z M 0.74949667,5.8759388 V 5.1721469 H 2.1634187 l 0.00689,0.7037919 z"
           id="path18"
           style="font-style:normal;font-variant:normal;font-weight:bold;font-stretch:normal;font-size:6.70278px;line-height:1.25;font-family:'Yanone Kaffeesatz ExtraLight';-inkscape-font-specification:'Yanone Kaffeesatz ExtraLight, Bold';font-variant-ligatures:normal;font-variant-caps:normal;font-variant-numeric:normal;font-variant-east-asian:normal;fill:#000000;fill-opacity:1;stroke:none;stroke-width:0.268392" />
        <path
           d="m 4.1898966,8.0878561 q -0.3379618,0 -0.5793632,-0.1005417 Q 3.3760293,7.8800699 3.2311885,7.6119587 3.0863478,7.3438476 3.017376,6.8679502 2.9484042,6.3920528 2.9484042,5.6480443 q 0,-0.9115781 0.1448407,-1.4276921 0.1448408,-0.5228168 0.4345224,-0.7373058 0.2965788,-0.2211917 0.7379983,-0.2211917 0.3379619,0 0.572466,0.1139472 0.2345041,0.1072445 0.3793449,0.3753557 0.1448409,0.2614084 0.2069155,0.7171974 0.068972,0.4557891 0.068972,1.1528782 0,0.9450919 -0.1379436,1.4813143 Q 5.2175765,7.6387699 4.927895,7.8666644 4.6451106,8.0878561 4.1898966,8.0878561 Z M 4.23128,7.3103337 q 0.1724296,0 0.2551958,-0.1675695 Q 4.576139,6.9751947 4.610625,6.6065418 4.645111,6.2378889 4.645111,5.6480443 4.645111,5.0649024 4.617522,4.7096551 4.5968303,4.3544078 4.5140642,4.2002438 4.4312979,4.0393771 4.2519712,4.0393771 q -0.1655323,0 -0.2551956,0.1742723 -0.089663,0.1675695 -0.1310464,0.5563307 -0.034486,0.3887612 -0.034486,1.0456337 0,0.5228168 0.027589,0.851253 0.027589,0.3284362 0.1103549,0.4893029 0.089663,0.154164 0.2620929,0.154164 z"
           id="path20"
           style="font-style:normal;font-variant:normal;font-weight:bold;font-stretch:normal;font-size:6.70278px;line-height:1.25;font-family:'Yanone Kaffeesatz ExtraLight';-inkscape-font-specification:'Yanone Kaffeesatz ExtraLight, Bold';font-variant-ligatures:normal;font-variant-caps:normal;font-variant-numeric:normal;font-variant-east-asian:normal;fill:#000000;fill-opacity:1;stroke:none;stroke-width:0.268392" />
        <path
           d="m 5.8328269,8.0208283 v -4.504268 q 0,-0.093839 0.034486,-0.1340556 0.034486,-0.040217 0.193121,-0.046919 0.1655324,-0.0067 0.5448773,-0.0067 v 3.9881507 h 0.9725023 v 0.5697363 q 0,0.080433 -0.041383,0.1072445 -0.034486,0.026811 -0.096561,0.026811 z"
           id="path22"
           style="font-style:normal;font-variant:normal;font-weight:bold;font-stretch:normal;font-size:6.70278px;line-height:1.25;font-family:'Yanone Kaffeesatz ExtraLight';-inkscape-font-specification:'Yanone Kaffeesatz ExtraLight, Bold';font-variant-ligatures:normal;font-variant-caps:normal;font-variant-numeric:normal;font-variant-east-asian:normal;fill:#000000;fill-opacity:1;stroke:none;stroke-width:0.268392" />
        <path
           d="m 7.8801037,8.0208283 q -0.041383,-0.046919 -0.075869,-0.1139472 -0.027589,-0.073731 -0.027589,-0.1742723 0,-0.073731 0.013795,-0.1474612 0.013795,-0.080433 0.04828,-0.1675695 L 9.2595399,3.9924577 H 8.1835797 q -0.068972,0 -0.1586351,0.0067 -0.089663,0.0067 -0.1655324,0.026811 V 3.4696408 q 0,-0.1407583 0.1448408,-0.1407583 h 2.069154 q 0.03449,0.046919 0.04828,0.1005417 0.02069,0.046919 0.02069,0.1340556 0,0.1541639 -0.06897,0.3217334 L 8.618102,7.3572531 h 1.0690631 q 0.1310464,0 0.2482985,-0.013406 0.1172524,-0.013406 0.2138134,-0.053622 v 0.5965474 q 0,0.060325 -0.02759,0.1005417 -0.02759,0.033514 -0.110355,0.033514 z"
           id="path24"
           style="font-style:normal;font-variant:normal;font-weight:bold;font-stretch:normal;font-size:6.70278px;line-height:1.25;font-family:'Yanone Kaffeesatz ExtraLight';-inkscape-font-specification:'Yanone Kaffeesatz ExtraLight, Bold';font-variant-ligatures:normal;font-variant-caps:normal;font-variant-numeric:normal;font-variant-east-asian:normal;fill:#000000;fill-opacity:1;stroke:none;stroke-width:0.268392" />
        <path
           d="m 11.300782,8.0878561 q -0.462112,0 -0.682822,-0.1340556 -0.220709,-0.1407584 -0.220709,-0.3150306 0,-0.1139473 0.04139,-0.2614084 0.04139,-0.154164 0.131047,-0.2815168 0.110354,0.093839 0.282784,0.1608667 0.172429,0.060325 0.358653,0.060325 0.282784,0 0.39314,-0.1407583 0.110354,-0.1407584 0.110354,-0.3753557 0,-0.1742723 -0.06897,-0.3284362 -0.06208,-0.154164 -0.241402,-0.3820585 L 10.776596,5.2726886 Q 10.542092,4.9643607 10.466223,4.7364662 10.390354,4.5085717 10.390354,4.28738 q 0,-0.455789 0.310373,-0.7373058 0.310373,-0.2882195 0.917324,-0.2882195 0.524187,0 0.731102,0.1005417 0.206915,0.1005417 0.206915,0.2748139 0,0.093839 -0.04139,0.2077862 -0.04139,0.1072445 -0.137944,0.214489 -0.05518,-0.040217 -0.227607,-0.087136 -0.172429,-0.046919 -0.372447,-0.046919 -0.255196,0 -0.400037,0.087136 -0.14484,0.080433 -0.14484,0.2547056 0,0.154164 0.05518,0.2882196 0.06208,0.1273528 0.193121,0.3083278 l 0.66213,0.824442 q 0.248298,0.3083278 0.331064,0.5563307 0.08276,0.2480028 0.08276,0.5362224 0,0.3351389 -0.110355,0.636764 -0.103458,0.2949223 -0.372447,0.4826002 -0.268991,0.1876778 -0.772484,0.1876778 z"
           id="path26"
           style="font-style:normal;font-variant:normal;font-weight:bold;font-stretch:normal;font-size:6.70278px;line-height:1.25;font-family:'Yanone Kaffeesatz ExtraLight';-inkscape-font-specification:'Yanone Kaffeesatz ExtraLight, Bold';font-variant-ligatures:normal;font-variant-caps:normal;font-variant-numeric:normal;font-variant-east-asian:normal;fill:#000000;fill-opacity:1;stroke:none;stroke-width:0.268392" />
        <path
           d="m 13.947574,8.0878561 q -0.234504,0 -0.420728,-0.060325 -0.186224,-0.053622 -0.324167,-0.1943806 -0.137944,-0.1407584 -0.227607,-0.395464 -0.08967,-0.2547057 -0.137944,-0.6501697 -0.04139,-0.395464 -0.04139,-0.9584975 0,-0.6568724 0.08276,-1.1126614 0.08276,-0.455789 0.22071,-0.7373058 0.14484,-0.2882195 0.324167,-0.4423835 0.179327,-0.1608667 0.372448,-0.2144889 0.193121,-0.060325 0.379344,-0.060325 0.29658,0 0.434524,0.060325 0.137943,0.053622 0.179326,0.1474611 0.04139,0.087136 0.04139,0.1876779 0,0.1340556 -0.03448,0.2547056 -0.03448,0.1139473 -0.07587,0.2010834 -0.04139,-0.033514 -0.09656,-0.053622 -0.05518,-0.026811 -0.12415,-0.040217 -0.06207,-0.020108 -0.137943,-0.020108 -0.117252,0 -0.227607,0.04692 -0.110355,0.040217 -0.206916,0.1541639 -0.09656,0.1139473 -0.165531,0.3150307 -0.06898,0.2010834 -0.110356,0.5094113 -0.04139,0.3083278 -0.04139,0.7440085 0,0.4356807 0.02759,0.7239002 0.03448,0.2882196 0.09656,0.455789 0.06207,0.1608668 0.165531,0.2345973 0.103458,0.067028 0.248299,0.067028 0.158635,0 0.296579,-0.026811 0.144841,-0.026811 0.241401,-0.073731 0.04139,0.087136 0.06897,0.2077862 0.03448,0.1139473 0.03448,0.2345973 0,0.1541639 -0.103458,0.2681112 -0.09656,0.1139473 -0.289682,0.1675695 -0.186224,0.060325 -0.448316,0.060325 z"
           id="path28"
           style="font-style:normal;font-variant:normal;font-weight:bold;font-stretch:normal;font-size:6.70278px;line-height:1.25;font-family:'Yanone Kaffeesatz ExtraLight';-inkscape-font-specification:'Yanone Kaffeesatz ExtraLight, Bold';font-variant-ligatures:normal;font-variant-caps:normal;font-variant-numeric:normal;font-variant-east-asian:normal;fill:#000000;fill-opacity:1;stroke:none;stroke-width:0.268392" />
      </g>
      <g
         id="g61"
         transform="rotate(180,7.6717183,11.603119)">
        <path
           d="M 1.9170799,14.267117 V 9.7092268 q 0,-0.067028 0.026811,-0.093839 0.033514,-0.026811 0.1876778,-0.033514 0.154164,-0.0067 0.5362224,-0.0067 v 4.5578902 q 0,0.06703 -0.026811,0.09384 -0.026811,0.02681 -0.1876778,0.03351 -0.154164,0.0067 -0.5362224,0.0067 z m -1.39417822,0 V 9.7092268 q 0,-0.067028 0.0268111,-0.093839 0.0268111,-0.026811 0.18097506,-0.033514 0.16086671,-0.0067 0.54292516,-0.0067 v 4.5578902 q 0,0.06703 -0.026811,0.09384 -0.026811,0.02681 -0.1876778,0.03351 -0.15416399,0.0067 -0.53622244,0.0067 z m 0.35524733,-2.14489 V 11.418436 H 2.2522189 l 0.0067,0.703791 z"
           id="path30"
           style="font-style:normal;font-variant:normal;font-weight:bold;font-stretch:normal;font-size:6.70278px;line-height:1.25;font-family:'Yanone Kaffeesatz ExtraLight';-inkscape-font-specification:'Yanone Kaffeesatz ExtraLight, Bold';font-variant-ligatures:normal;font-variant-caps:normal;font-variant-numeric:normal;font-variant-east-asian:normal;fill:#000000;fill-opacity:1;stroke:none;stroke-width:0.264583" />
        <path
           d="M 4.8449379,14.267117 4.1344433,12.470772 Q 4.0741183,12.309905 4.0070905,12.102119 3.9467655,11.894333 3.8864404,11.666438 3.8328182,11.438544 3.7858987,11.224055 3.7389793,11.009566 3.6987626,10.835294 3.6652487,10.661022 3.6451404,10.56048 3.625032,10.453235 3.625032,10.453235 L 3.1826486,10.010852 3.2161625,9.5751712 H 3.8127099 L 4.509799,11.338002 q 0.067028,0.174273 0.1340555,0.395464 0.067028,0.214489 0.1206501,0.442384 0.060325,0.221191 0.1072445,0.428978 0.046919,0.207786 0.080433,0.375355 0.033514,0.16757 0.053622,0.268111 0.020108,0.09384 0.020108,0.09384 l 0.455789,0.489303 -0.053622,0.435681 z m -1.762831,0 V 9.7092268 q 0,-0.1340556 0.1340556,-0.1340556 L 3.8328182,9.7092268 3.7188709,10.841997 q 0.020108,0.140758 0.033514,0.288219 0.013406,0.147461 0.026811,0.301625 0.013405,0.147461 0.020108,0.294922 0.013406,0.140759 0.020108,0.281517 0.0067,0.140759 0.0067,0.274814 0.0067,0.127353 0.0067,0.2413 v 1.608667 q 0,0.06703 -0.033514,0.09384 -0.033514,0.02681 -0.1876778,0.03351 -0.154164,0.0067 -0.5295196,0.0067 z m 2.3459729,0 -0.6166558,-0.134056 0.1005417,-1.286933 q -0.020108,-0.154164 -0.033514,-0.294923 -0.013405,-0.147461 -0.026811,-0.281516 -0.0067,-0.134056 -0.020108,-0.261409 -0.0067,-0.127353 -0.013406,-0.248003 0,-0.127352 -0.0067,-0.248002 0,-0.12065 0,-0.241301 V 9.7092268 q 0,-0.067028 0.033514,-0.093839 0.033514,-0.026811 0.1876779,-0.033514 0.1608667,-0.0067 0.5295196,-0.0067 v 4.5578902 q 0,0.134056 -0.1340556,0.134056 z"
           id="path32"
           style="font-style:normal;font-variant:normal;font-weight:bold;font-stretch:normal;font-size:6.70278px;line-height:1.25;font-family:'Yanone Kaffeesatz ExtraLight';-inkscape-font-specification:'Yanone Kaffeesatz ExtraLight, Bold';font-variant-ligatures:normal;font-variant-caps:normal;font-variant-numeric:normal;font-variant-east-asian:normal;fill:#000000;fill-opacity:1;stroke:none;stroke-width:0.264583" />
        <path
           d="m 6.2504271,14.280523 q -0.073731,0 -0.2077862,-0.0067 -0.1340556,-0.0067 -0.2681111,-0.02011 L 6.893894,9.702524 q 0.026811,-0.1407584 0.3016251,-0.1407584 0.093839,0 0.1876778,0.0067 0.1005417,0.0067 0.1675695,0.020108 l 1.1193642,4.5578904 q 0.013406,0.06703 -0.046919,0.100542 -0.060325,0.03351 -0.2882196,0.03351 -0.073731,0 -0.180975,-0.0067 -0.1072445,0 -0.2547057,-0.0067 L 7.410008,11.901036 Q 7.376494,11.720061 7.34298,11.512275 7.309466,11.297786 7.282655,11.069891 7.255844,10.841997 7.235736,10.63421 7.215628,10.841997 7.182114,11.069891 7.155303,11.297786 7.121789,11.512275 7.094978,11.720061 7.054761,11.901036 l -0.4624918,2.238728 q -0.013406,0.06703 -0.067028,0.107245 -0.046919,0.03351 -0.274814,0.03351 z m 0.2882195,-1.079148 v -0.676981 h 1.5148283 v 0.676981 z"
           id="path34"
           style="font-style:normal;font-variant:normal;font-weight:bold;font-stretch:normal;font-size:6.70278px;line-height:1.25;font-family:'Yanone Kaffeesatz ExtraLight';-inkscape-font-specification:'Yanone Kaffeesatz ExtraLight, Bold';font-variant-ligatures:normal;font-variant-caps:normal;font-variant-numeric:normal;font-variant-east-asian:normal;fill:#000000;fill-opacity:1;stroke:none;stroke-width:0.264583" />
        <path
           d="M 8.8946741,14.267117 V 9.7092268 q 0,-0.067028 0.040217,-0.1005417 0.040217,-0.033514 0.1474611,-0.033514 h 0.6568724 q 0.214489,0 0.4155724,0.046919 0.201083,0.040217 0.36195,0.154164 0.160867,0.1139472 0.254705,0.3217329 0.100542,0.201083 0.100542,0.52952 0,0.341841 -0.09384,0.576439 -0.09384,0.227894 -0.234597,0.355247 -0.140758,0.12065 -0.28822,0.140758 0.12065,0.01341 0.254706,0.06033 0.134056,0.04022 0.248003,0.147462 0.12065,0.100541 0.19438,0.288219 0.07373,0.180975 0.07373,0.475897 0,0.268112 -0.04692,0.509411 -0.04022,0.234598 -0.134056,0.43568 -0.09384,0.194381 -0.2413,0.341842 -0.147461,0.147461 -0.355247,0.227895 -0.201084,0.08043 -0.4758975,0.08043 z m 0.7641169,-0.65017 h 0.1340556 q 0.080433,0 0.1407584,-0.06032 0.060325,-0.06033 0.100542,-0.174272 0.04692,-0.113947 0.06703,-0.274814 0.02681,-0.160867 0.02681,-0.368653 0,-0.227894 -0.02011,-0.36195 -0.02011,-0.134055 -0.06033,-0.201083 -0.04022,-0.07373 -0.1005415,-0.09384 Q 9.8866855,12.0552 9.8062521,12.0552 H 9.658791 Z m 0,-2.191809 h 0.1273528 q 0.080433,0 0.1340556,-0.08043 0.060325,-0.08043 0.087137,-0.221192 0.03351,-0.147461 0.03351,-0.335139 0,-0.234597 -0.03351,-0.355247 -0.026812,-0.12065 -0.080434,-0.160867 -0.053622,-0.04022 -0.1139473,-0.04022 H 9.658791 Z"
           id="path36"
           style="font-style:normal;font-variant:normal;font-weight:bold;font-stretch:normal;font-size:6.70278px;line-height:1.25;font-family:'Yanone Kaffeesatz ExtraLight';-inkscape-font-specification:'Yanone Kaffeesatz ExtraLight, Bold';font-variant-ligatures:normal;font-variant-caps:normal;font-variant-numeric:normal;font-variant-east-asian:normal;fill:#000000;fill-opacity:1;stroke:none;stroke-width:0.264583" />
        <path
           d="M 11.290394,14.267117 V 9.7092268 q 0,0 0.02011,-0.067028 0.02011,-0.067028 0.113947,-0.067028 h 1.608667 q 0,0.3016251 -0.0067,0.4423842 -0.0067,0.140758 -0.03351,0.187677 -0.02681,0.04022 -0.09384,0.04022 h -0.857956 v 3.35139 h 0.945092 q 0,0.315031 -0.0067,0.455789 -0.0067,0.140758 -0.03351,0.180975 -0.02681,0.03351 -0.09384,0.03351 z m 0.05362,-2.198512 v -0.683683 h 1.508125 q 0,0.422275 -0.02011,0.55633 -0.01341,0.127353 -0.107245,0.127353 z"
           id="path38"
           style="font-style:normal;font-variant:normal;font-weight:bold;font-stretch:normal;font-size:6.70278px;line-height:1.25;font-family:'Yanone Kaffeesatz ExtraLight';-inkscape-font-specification:'Yanone Kaffeesatz ExtraLight, Bold';font-variant-ligatures:normal;font-variant-caps:normal;font-variant-numeric:normal;font-variant-east-asian:normal;fill:#000000;fill-opacity:1;stroke:none;stroke-width:0.264583" />
        <path
           d="M 13.306464,14.267117 V 9.762849 q 0,-0.093839 0.03351,-0.1340556 0.03351,-0.040217 0.187678,-0.046919 0.160866,-0.0067 0.529519,-0.0067 v 3.9881536 h 0.945092 v 0.569736 q 0,0.08043 -0.04022,0.107245 -0.03351,0.02681 -0.09384,0.02681 z"
           id="path40"
           style="font-style:normal;font-variant:normal;font-weight:bold;font-stretch:normal;font-size:6.70278px;line-height:1.25;font-family:'Yanone Kaffeesatz ExtraLight';-inkscape-font-specification:'Yanone Kaffeesatz ExtraLight, Bold';font-variant-ligatures:normal;font-variant-caps:normal;font-variant-numeric:normal;font-variant-east-asian:normal;fill:#000000;fill-opacity:1;stroke:none;stroke-width:0.264583" />
      </g>
    </g>
  </g>
</svg>
