<?xml version="1.0" encoding="UTF-8" standalone="no"?>
<svg
   xmlns:dc="http://purl.org/dc/elements/1.1/"
   xmlns:cc="http://creativecommons.org/ns#"
   xmlns:rdf="http://www.w3.org/1999/02/22-rdf-syntax-ns#"
   xmlns:svg="http://www.w3.org/2000/svg"
   xmlns="http://www.w3.org/2000/svg"
   xmlns:sodipodi="http://sodipodi.sourceforge.net/DTD/sodipodi-0.dtd"
   xmlns:inkscape="http://www.inkscape.org/namespaces/inkscape"
   width="20.32mm"
   height="128.5mm"
   viewBox="0 0 20.32 128.5"
   version="1.1"
   id="svg261903"
   sodipodi:docname="Seqtrol.svg"
   inkscape:version="1.0.1 (c497b03c, 2020-09-10)">
  <defs
     id="defs261897">
    <linearGradient
       id="linear20"
       gradientUnits="userSpaceOnUse"
       x1="-0.095554203"
       y1="0"
       x2="1.32507"
       y2="0"
       gradientTransform="matrix(0,6.4087959,-6.4087959,0,64.256445,118.95198)">
      <stop
         offset="0"
         style="stop-color:rgb(25.489807%,25.097656%,25.881958%);stop-opacity:1;"
         id="stop217759" />
      <stop
         offset="0.0625"
         style="stop-color:rgb(25.489807%,25.097656%,25.881958%);stop-opacity:1;"
         id="stop217761" />
      <stop
         offset="0.078125"
         style="stop-color:rgb(25.398254%,24.996948%,25.778198%);stop-opacity:1;"
         id="stop217763" />
      <stop
         offset="0.09375"
         style="stop-color:rgb(25.177002%,24.754333%,25.527954%);stop-opacity:1;"
         id="stop217765" />
      <stop
         offset="0.109375"
         style="stop-color:rgb(24.916077%,24.465942%,25.231934%);stop-opacity:1;"
         id="stop217767" />
      <stop
         offset="0.125"
         style="stop-color:rgb(24.653625%,24.179077%,24.935913%);stop-opacity:1;"
         id="stop217769" />
      <stop
         offset="0.140625"
         style="stop-color:rgb(24.3927%,23.892212%,24.639893%);stop-opacity:1;"
         id="stop217771" />
      <stop
         offset="0.15625"
         style="stop-color:rgb(24.131775%,23.605347%,24.343872%);stop-opacity:1;"
         id="stop217773" />
      <stop
         offset="0.171875"
         style="stop-color:rgb(23.87085%,23.316956%,24.047852%);stop-opacity:1;"
         id="stop217775" />
      <stop
         offset="0.1875"
         style="stop-color:rgb(23.609924%,23.03009%,23.751831%);stop-opacity:1;"
         id="stop217777" />
      <stop
         offset="0.203125"
         style="stop-color:rgb(23.348999%,22.743225%,23.455811%);stop-opacity:1;"
         id="stop217779" />
      <stop
         offset="0.21875"
         style="stop-color:rgb(23.088074%,22.45636%,23.15979%);stop-opacity:1;"
         id="stop217781" />
      <stop
         offset="0.234375"
         style="stop-color:rgb(22.825623%,22.167969%,22.86377%);stop-opacity:1;"
         id="stop217783" />
      <stop
         offset="0.25"
         style="stop-color:rgb(22.564697%,21.881104%,22.567749%);stop-opacity:1;"
         id="stop217785" />
      <stop
         offset="0.265625"
         style="stop-color:rgb(22.303772%,21.594238%,22.271729%);stop-opacity:1;"
         id="stop217787" />
      <stop
         offset="0.28125"
         style="stop-color:rgb(22.042847%,21.307373%,21.975708%);stop-opacity:1;"
         id="stop217789" />
      <stop
         offset="0.296875"
         style="stop-color:rgb(21.781921%,21.018982%,21.679688%);stop-opacity:1;"
         id="stop217791" />
      <stop
         offset="0.3125"
         style="stop-color:rgb(21.520996%,20.732117%,21.383667%);stop-opacity:1;"
         id="stop217793" />
      <stop
         offset="0.328125"
         style="stop-color:rgb(21.260071%,20.445251%,21.087646%);stop-opacity:1;"
         id="stop217795" />
      <stop
         offset="0.34375"
         style="stop-color:rgb(20.99762%,20.15686%,20.793152%);stop-opacity:1;"
         id="stop217797" />
      <stop
         offset="0.359375"
         style="stop-color:rgb(20.736694%,19.869995%,20.497131%);stop-opacity:1;"
         id="stop217799" />
      <stop
         offset="0.375"
         style="stop-color:rgb(20.475769%,19.58313%,20.201111%);stop-opacity:1;"
         id="stop217801" />
      <stop
         offset="0.390625"
         style="stop-color:rgb(20.214844%,19.296265%,19.90509%);stop-opacity:1;"
         id="stop217803" />
      <stop
         offset="0.40625"
         style="stop-color:rgb(19.953918%,19.007874%,19.60907%);stop-opacity:1;"
         id="stop217805" />
      <stop
         offset="0.421875"
         style="stop-color:rgb(19.692993%,18.721008%,19.313049%);stop-opacity:1;"
         id="stop217807" />
      <stop
         offset="0.4375"
         style="stop-color:rgb(19.432068%,18.434143%,19.017029%);stop-opacity:1;"
         id="stop217809" />
      <stop
         offset="0.453125"
         style="stop-color:rgb(19.169617%,18.147278%,18.721008%);stop-opacity:1;"
         id="stop217811" />
      <stop
         offset="0.46875"
         style="stop-color:rgb(18.908691%,17.858887%,18.424988%);stop-opacity:1;"
         id="stop217813" />
      <stop
         offset="0.484375"
         style="stop-color:rgb(18.647766%,17.572021%,18.128967%);stop-opacity:1;"
         id="stop217815" />
      <stop
         offset="0.5"
         style="stop-color:rgb(18.386841%,17.285156%,17.832947%);stop-opacity:1;"
         id="stop217817" />
      <stop
         offset="0.515625"
         style="stop-color:rgb(18.125916%,16.998291%,17.536926%);stop-opacity:1;"
         id="stop217819" />
      <stop
         offset="0.53125"
         style="stop-color:rgb(17.86499%,16.7099%,17.240906%);stop-opacity:1;"
         id="stop217821" />
      <stop
         offset="0.546875"
         style="stop-color:rgb(17.604065%,16.423035%,16.944885%);stop-opacity:1;"
         id="stop217823" />
      <stop
         offset="0.5625"
         style="stop-color:rgb(17.341614%,16.136169%,16.648865%);stop-opacity:1;"
         id="stop217825" />
      <stop
         offset="0.578125"
         style="stop-color:rgb(17.080688%,15.849304%,16.352844%);stop-opacity:1;"
         id="stop217827" />
      <stop
         offset="0.59375"
         style="stop-color:rgb(16.819763%,15.560913%,16.056824%);stop-opacity:1;"
         id="stop217829" />
      <stop
         offset="0.609375"
         style="stop-color:rgb(16.558838%,15.274048%,15.760803%);stop-opacity:1;"
         id="stop217831" />
      <stop
         offset="0.625"
         style="stop-color:rgb(16.297913%,14.987183%,15.464783%);stop-opacity:1;"
         id="stop217833" />
      <stop
         offset="0.640625"
         style="stop-color:rgb(16.036987%,14.700317%,15.168762%);stop-opacity:1;"
         id="stop217835" />
      <stop
         offset="0.65625"
         style="stop-color:rgb(15.776062%,14.411926%,14.872742%);stop-opacity:1;"
         id="stop217837" />
      <stop
         offset="0.671875"
         style="stop-color:rgb(15.513611%,14.125061%,14.576721%);stop-opacity:1;"
         id="stop217839" />
      <stop
         offset="0.6875"
         style="stop-color:rgb(15.252686%,13.838196%,14.280701%);stop-opacity:1;"
         id="stop217841" />
      <stop
         offset="0.703125"
         style="stop-color:rgb(14.99176%,13.551331%,13.98468%);stop-opacity:1;"
         id="stop217843" />
      <stop
         offset="0.71875"
         style="stop-color:rgb(14.730835%,13.262939%,13.68866%);stop-opacity:1;"
         id="stop217845" />
      <stop
         offset="0.734375"
         style="stop-color:rgb(14.46991%,12.976074%,13.392639%);stop-opacity:1;"
         id="stop217847" />
      <stop
         offset="0.75"
         style="stop-color:rgb(14.208984%,12.689209%,13.096619%);stop-opacity:1;"
         id="stop217849" />
      <stop
         offset="0.765625"
         style="stop-color:rgb(13.948059%,12.402344%,12.802124%);stop-opacity:1;"
         id="stop217851" />
      <stop
         offset="0.78125"
         style="stop-color:rgb(13.771057%,12.207031%,12.600708%);stop-opacity:1;"
         id="stop217853" />
      <stop
         offset="0.8125"
         style="stop-color:rgb(13.725281%,12.156677%,12.548828%);stop-opacity:1;"
         id="stop217855" />
      <stop
         offset="0.875"
         style="stop-color:rgb(13.725281%,12.156677%,12.548828%);stop-opacity:1;"
         id="stop217857" />
      <stop
         offset="1"
         style="stop-color:rgb(13.725281%,12.156677%,12.548828%);stop-opacity:1;"
         id="stop217859" />
    </linearGradient>
  </defs>
  <sodipodi:namedview
     id="base"
     pagecolor="#ffffff"
     bordercolor="#666666"
     borderopacity="1.0"
     inkscape:pageopacity="0.0"
     inkscape:pageshadow="2"
     inkscape:zoom="3.5641378"
     inkscape:cx="14.739299"
     inkscape:cy="151.83832"
     inkscape:document-units="mm"
     inkscape:current-layer="layer3"
     showgrid="false"
     fit-margin-top="0"
     fit-margin-left="0"
     fit-margin-right="0"
     fit-margin-bottom="0"
     inkscape:snap-bbox="true"
     inkscape:bbox-nodes="true"
     inkscape:snap-nodes="false"
     inkscape:snap-others="false"
     inkscape:window-width="1252"
     inkscape:window-height="855"
     inkscape:window-x="0"
     inkscape:window-y="23"
     inkscape:window-maximized="0"
     inkscape:document-rotation="0"
     showguides="true"
     inkscape:guide-bbox="true">
    <sodipodi:guide
       position="10.16,60.049525"
       orientation="-1,0"
       id="guide1092"
       inkscape:label=""
       inkscape:locked="false"
       inkscape:color="rgb(0,0,255)" />
    <sodipodi:guide
       position="-0.73975051,108.61551"
       orientation="0,-1"
       id="guide1094" />
    <sodipodi:guide
       position="-0.35508024,93.58378"
       orientation="0,-1"
       id="guide1096" />
  </sodipodi:namedview>
  <metadata
     id="metadata261900">
    <rdf:RDF>
      <cc:Work
         rdf:about="">
        <dc:format>image/svg+xml</dc:format>
        <dc:type
           rdf:resource="http://purl.org/dc/dcmitype/StillImage" />
        <dc:title />
      </cc:Work>
    </rdf:RDF>
  </metadata>
  <g
     inkscape:label="Layer 1"
     inkscape:groupmode="layer"
     id="layer1"
     transform="translate(-56.636094,-70.97654)"
     style="display:inline">
    <path
       inkscape:connector-curvature="0"
       id="path227414"
       d="m 56.636094,70.97654 h 20.32 v 128.5 h -20.32 z m 0,0"
       style="display:inline;fill:#172f46;fill-opacity:1;fill-rule:nonzero;stroke:none;stroke-width:0.410163" />
  </g>
  <g
     inkscape:groupmode="layer"
     id="layer3"
     inkscape:label="Layer 2"
     style="display:inline">
    <g
       aria-label="Clock"
       id="text962-0-1"
       style="font-size:4.23331px;line-height:1.25;font-family:'Roboto Mono for Powerline';-inkscape-font-specification:'Roboto Mono for Powerline, Normal';display:inline;fill:#f9f9f9;fill-opacity:1;stroke-width:0.264582">
      <path
         d="m 6.928071,95.654601 q -0.3640663,0 -0.5672662,-0.1524 -0.1989665,-0.1524 -0.2793997,-0.410633 -0.0762,-0.258233 -0.0762,-0.575733 v -1.210732 q 0,-0.347133 0.0762,-0.605366 0.080433,-0.258233 0.2793997,-0.397933 0.2031999,-0.143934 0.5672662,-0.143934 0.3217331,0 0.5079996,0.118534 0.1904998,0.118533 0.2709331,0.338666 0.084667,0.220133 0.084667,0.529166 v 0.270933 H 7.338704 V 93.17387 q 0,-0.1905 -0.021167,-0.334433 -0.016933,-0.148167 -0.1015999,-0.2286 -0.084667,-0.08043 -0.2836331,-0.08043 -0.2031998,0 -0.296333,0.0889 -0.093133,0.08467 -0.1227666,0.245534 -0.0254,0.156633 -0.0254,0.368299 v 1.358899 q 0,0.258233 0.042333,0.410633 0.042333,0.148167 0.1396999,0.211667 0.097367,0.0635 0.2624664,0.0635 0.1947332,0 0.2793998,-0.08467 0.084667,-0.0889 0.1058332,-0.2413 0.021167,-0.1524 0.021167,-0.3556 V 94.34227 H 7.79167 v 0.253999 q 0,0.313267 -0.0762,0.554567 -0.0762,0.237066 -0.2624664,0.372533 -0.1862665,0.131233 -0.5249329,0.131233 z"
         style="font-style:normal;font-variant:normal;font-weight:normal;font-stretch:normal;font-size:4.23333px;font-family:Oswald;-inkscape-font-specification:'Oswald, Normal';font-variant-ligatures:normal;font-variant-caps:normal;font-variant-numeric:normal;font-variant-east-asian:normal;fill:#f9f9f9;fill-opacity:1;stroke-width:0.264582"
         id="path1026" />
      <path
         d="m 8.2557492,95.616501 v -3.428997 h 0.4529663 v 3.428997 z"
         style="font-style:normal;font-variant:normal;font-weight:normal;font-stretch:normal;font-size:4.23333px;font-family:Oswald;-inkscape-font-specification:'Oswald, Normal';font-variant-ligatures:normal;font-variant-caps:normal;font-variant-numeric:normal;font-variant-east-asian:normal;fill:#f9f9f9;fill-opacity:1;stroke-width:0.264582"
         id="path1028" />
      <path
         d="m 9.8538973,95.650367 q -0.2709331,0 -0.4275663,-0.110066 -0.1566332,-0.110067 -0.2243665,-0.313266 -0.0635,-0.2032 -0.0635,-0.478367 v -0.711199 q 0,-0.275167 0.0635,-0.478366 0.067733,-0.2032 0.2243665,-0.313267 0.1566332,-0.110066 0.4275663,-0.110066 0.2709327,0 0.4233327,0.110066 0.156633,0.110067 0.220133,0.313267 0.06773,0.203199 0.06773,0.478366 v 0.711199 q 0,0.275167 -0.06773,0.478367 -0.0635,0.203199 -0.220133,0.313266 -0.1524,0.110066 -0.4233327,0.110066 z m 0,-0.334433 q 0.1312332,0 0.1820327,-0.0762 0.05503,-0.0762 0.0635,-0.198967 0.0127,-0.127 0.0127,-0.262466 v -0.766233 q 0,-0.1397 -0.0127,-0.262467 -0.0085,-0.122766 -0.0635,-0.198966 -0.0508,-0.08043 -0.1820327,-0.08043 -0.1312333,0 -0.1862665,0.08043 -0.055033,0.0762 -0.067733,0.198966 -0.00847,0.122767 -0.00847,0.262467 v 0.766233 q 0,0.135466 0.00847,0.262466 0.0127,0.122767 0.067733,0.198967 0.055033,0.0762 0.1862665,0.0762 z"
         style="font-style:normal;font-variant:normal;font-weight:normal;font-stretch:normal;font-size:4.23333px;font-family:Oswald;-inkscape-font-specification:'Oswald, Normal';font-variant-ligatures:normal;font-variant-caps:normal;font-variant-numeric:normal;font-variant-east-asian:normal;fill:#f9f9f9;fill-opacity:1;stroke-width:0.264582"
         id="path1030" />
      <path
         d="m 11.652137,95.650367 q -0.300567,0 -0.4572,-0.118533 -0.1524,-0.122766 -0.207433,-0.342899 -0.0508,-0.220134 -0.0508,-0.512233 v -0.563033 q 0,-0.309033 0.05503,-0.524933 0.05503,-0.220133 0.207433,-0.334433 0.156633,-0.118533 0.452967,-0.118533 0.266699,0 0.410633,0.0889 0.148166,0.08467 0.203199,0.258233 0.05503,0.169333 0.05503,0.423333 v 0.143933 H 11.91037 v -0.148167 q 0,-0.160866 -0.02117,-0.253999 -0.02117,-0.09313 -0.0762,-0.135467 -0.05503,-0.04233 -0.156633,-0.04233 -0.110067,0 -0.169333,0.0508 -0.05927,0.0508 -0.08043,0.173566 -0.01693,0.118533 -0.01693,0.325967 v 0.770466 q 0,0.313266 0.05927,0.419099 0.05927,0.105833 0.211666,0.105833 0.1143,0 0.1651,-0.0508 0.05503,-0.05503 0.06773,-0.152399 0.01693,-0.09737 0.01693,-0.220134 v -0.198966 h 0.410633 v 0.169333 q 0,0.245533 -0.05927,0.423333 -0.05503,0.1778 -0.2032,0.270933 -0.143933,0.09313 -0.406399,0.09313 z"
         style="font-style:normal;font-variant:normal;font-weight:normal;font-stretch:normal;font-size:4.23333px;font-family:Oswald;-inkscape-font-specification:'Oswald, Normal';font-variant-ligatures:normal;font-variant-caps:normal;font-variant-numeric:normal;font-variant-east-asian:normal;fill:#f9f9f9;fill-opacity:1;stroke-width:0.264582"
         id="path1032" />
      <path
         d="M 12.728064,95.612268 V 92.18327 h 0.452966 v 2.044699 l 0.6604,-1.058333 h 0.474132 l -0.575732,0.956733 0.558799,1.490132 h -0.452966 l -0.4572,-1.253066 -0.207433,0.313267 v 0.935566 z"
         style="font-style:normal;font-variant:normal;font-weight:normal;font-stretch:normal;font-size:4.23333px;font-family:Oswald;-inkscape-font-specification:'Oswald, Normal';font-variant-ligatures:normal;font-variant-caps:normal;font-variant-numeric:normal;font-variant-east-asian:normal;fill:#f9f9f9;fill-opacity:1;stroke-width:0.264582"
         id="path1034" />
    </g>
    <path
       d="m 4.4723255,117.89208 v -4.55789 q 0,-0.067 0.027589,-0.0938 0.034486,-0.0268 0.193121,-0.0335 0.1586352,-0.007 0.5517745,-0.007 v 4.55789 q 0,0.067 -0.027589,0.0938 -0.027589,0.0268 -0.1931211,0.0335 -0.1586352,0.007 -0.5517744,0.007 z m -1.4346136,0 v -4.55789 q 0,-0.067 0.027589,-0.0938 0.027589,-0.0268 0.1862239,-0.0335 0.1655323,-0.007 0.5586716,-0.007 v 4.55789 q 0,0.067 -0.027589,0.0938 -0.027589,0.0268 -0.193121,0.0335 -0.1586352,0.007 -0.5517745,0.007 z m 0.3655506,-2.14489 v -0.70379 h 1.413922 l 0.00689,0.70379 z"
       id="path18"
       style="font-style:normal;font-variant:normal;font-weight:bold;font-stretch:normal;font-size:6.70278px;line-height:1.25;font-family:'Yanone Kaffeesatz ExtraLight';-inkscape-font-specification:'Yanone Kaffeesatz ExtraLight, Bold';font-variant-ligatures:normal;font-variant-caps:normal;font-variant-numeric:normal;font-variant-east-asian:normal;fill:#f9f9f9;fill-opacity:1;stroke:none;stroke-width:0.268392" />
    <path
       d="m 6.8436624,117.95911 q -0.3379618,0 -0.5793632,-0.10055 -0.2345041,-0.10724 -0.3793449,-0.37535 -0.1448407,-0.26811 -0.2138125,-0.74401 -0.068972,-0.4759 -0.068972,-1.21991 0,-0.91157 0.1448407,-1.42769 0.1448408,-0.52281 0.4345224,-0.7373 0.2965788,-0.2212 0.7379983,-0.2212 0.3379619,0 0.572466,0.11395 0.2345041,0.10725 0.3793449,0.37536 0.1448409,0.26141 0.2069155,0.7172 0.068972,0.45578 0.068972,1.15287 0,0.9451 -0.1379436,1.48132 -0.1379439,0.53622 -0.4276254,0.76411 -0.2827844,0.2212 -0.7379982,0.2212 z m 0.041383,-0.77753 q 0.1724296,0 0.2551958,-0.16757 0.089663,-0.16757 0.1241492,-0.53622 0.034486,-0.36865 0.034486,-0.9585 0,-0.58314 -0.027589,-0.93838 -0.020692,-0.35525 -0.1034578,-0.50942 -0.082766,-0.16086 -0.262093,-0.16086 -0.1655323,0 -0.2551956,0.17427 -0.089663,0.16757 -0.1310464,0.55633 -0.034486,0.38876 -0.034486,1.04563 0,0.52282 0.027589,0.85126 0.027589,0.32843 0.1103549,0.4893 0.089663,0.15416 0.2620929,0.15416 z"
       id="path20"
       style="font-style:normal;font-variant:normal;font-weight:bold;font-stretch:normal;font-size:6.70278px;line-height:1.25;font-family:'Yanone Kaffeesatz ExtraLight';-inkscape-font-specification:'Yanone Kaffeesatz ExtraLight, Bold';font-variant-ligatures:normal;font-variant-caps:normal;font-variant-numeric:normal;font-variant-east-asian:normal;fill:#f9f9f9;fill-opacity:1;stroke:none;stroke-width:0.268392" />
    <path
       d="m 8.4865927,117.89208 v -4.50427 q 0,-0.0938 0.034486,-0.13406 0.034486,-0.0402 0.193121,-0.0469 0.1655324,-0.007 0.5448773,-0.007 v 3.98815 h 0.972502 v 0.56973 q 0,0.0804 -0.04138,0.10725 -0.03449,0.0268 -0.09656,0.0268 z"
       id="path22"
       style="font-style:normal;font-variant:normal;font-weight:bold;font-stretch:normal;font-size:6.70278px;line-height:1.25;font-family:'Yanone Kaffeesatz ExtraLight';-inkscape-font-specification:'Yanone Kaffeesatz ExtraLight, Bold';font-variant-ligatures:normal;font-variant-caps:normal;font-variant-numeric:normal;font-variant-east-asian:normal;fill:#f9f9f9;fill-opacity:1;stroke:none;stroke-width:0.268392" />
    <path
       d="m 10.53387,117.89208 q -0.04138,-0.0469 -0.07587,-0.11395 -0.02759,-0.0737 -0.02759,-0.17427 0,-0.0737 0.0138,-0.14746 0.0138,-0.0804 0.04828,-0.16757 l 1.420819,-3.42512 h -1.07596 q -0.06897,0 -0.158636,0.007 -0.08966,0.007 -0.165532,0.0268 v -0.55633 q 0,-0.14076 0.144841,-0.14076 h 2.069154 q 0.03449,0.0469 0.04828,0.10054 0.02069,0.0469 0.02069,0.13406 0,0.15416 -0.06897,0.32173 l -1.455305,3.47204 h 1.069063 q 0.131046,0 0.248298,-0.0134 0.117253,-0.0134 0.213814,-0.0536 v 0.59654 q 0,0.0603 -0.02759,0.10054 -0.02759,0.0335 -0.110355,0.0335 z"
       id="path24"
       style="font-style:normal;font-variant:normal;font-weight:bold;font-stretch:normal;font-size:6.70278px;line-height:1.25;font-family:'Yanone Kaffeesatz ExtraLight';-inkscape-font-specification:'Yanone Kaffeesatz ExtraLight, Bold';font-variant-ligatures:normal;font-variant-caps:normal;font-variant-numeric:normal;font-variant-east-asian:normal;fill:#f9f9f9;fill-opacity:1;stroke:none;stroke-width:0.268392" />
    <path
       d="m 13.954548,117.95911 q -0.462112,0 -0.682822,-0.13406 -0.220709,-0.14076 -0.220709,-0.31503 0,-0.11395 0.04139,-0.26141 0.04139,-0.15416 0.131047,-0.28152 0.110354,0.0938 0.282784,0.16087 0.172429,0.0603 0.358653,0.0603 0.282784,0 0.39314,-0.14076 0.110354,-0.14076 0.110354,-0.37536 0,-0.17427 -0.06897,-0.32843 -0.06208,-0.15417 -0.241402,-0.38206 l -0.627651,-0.81774 q -0.234504,-0.30833 -0.310373,-0.53622 -0.07587,-0.2279 -0.07587,-0.44909 0,-0.45579 0.310373,-0.73731 0.310373,-0.28822 0.917324,-0.28822 0.524187,0 0.731102,0.10055 0.206915,0.10054 0.206915,0.27481 0,0.0938 -0.04139,0.20779 -0.04139,0.10724 -0.137944,0.21449 -0.05518,-0.0402 -0.227607,-0.0871 -0.172429,-0.0469 -0.372447,-0.0469 -0.255196,0 -0.400037,0.0871 -0.14484,0.0804 -0.14484,0.2547 0,0.15417 0.05518,0.28822 0.06208,0.12735 0.193121,0.30833 l 0.66213,0.82444 q 0.248298,0.30833 0.331064,0.55633 0.08276,0.248 0.08276,0.53622 0,0.33514 -0.110355,0.63677 -0.103458,0.29492 -0.372447,0.4826 -0.268991,0.18768 -0.772484,0.18768 z"
       id="path26"
       style="font-style:normal;font-variant:normal;font-weight:bold;font-stretch:normal;font-size:6.70278px;line-height:1.25;font-family:'Yanone Kaffeesatz ExtraLight';-inkscape-font-specification:'Yanone Kaffeesatz ExtraLight, Bold';font-variant-ligatures:normal;font-variant-caps:normal;font-variant-numeric:normal;font-variant-east-asian:normal;fill:#f9f9f9;fill-opacity:1;stroke:none;stroke-width:0.268392" />
    <path
       d="m 16.60134,117.95911 q -0.234504,0 -0.420728,-0.0603 -0.186224,-0.0536 -0.324167,-0.19438 -0.137944,-0.14076 -0.227607,-0.39546 -0.08967,-0.25471 -0.137944,-0.65017 -0.04139,-0.39547 -0.04139,-0.9585 0,-0.65687 0.08276,-1.11266 0.08276,-0.45579 0.22071,-0.73731 0.14484,-0.28822 0.324167,-0.44238 0.179327,-0.16087 0.372448,-0.21449 0.193121,-0.0603 0.379344,-0.0603 0.29658,0 0.434524,0.0603 0.137943,0.0536 0.179326,0.14746 0.04139,0.0871 0.04139,0.18768 0,0.13405 -0.03448,0.2547 -0.03448,0.11395 -0.07587,0.20109 -0.04139,-0.0335 -0.09656,-0.0536 -0.05518,-0.0268 -0.12415,-0.0402 -0.06207,-0.0201 -0.137943,-0.0201 -0.117252,0 -0.227607,0.0469 -0.110355,0.0402 -0.206916,0.15416 -0.09656,0.11395 -0.165531,0.31504 -0.06898,0.20108 -0.110356,0.50941 -0.04139,0.30832 -0.04139,0.74401 0,0.43568 0.02759,0.7239 0.03448,0.28821 0.09656,0.45578 0.06207,0.16087 0.165531,0.2346 0.103458,0.067 0.248299,0.067 0.158635,0 0.296579,-0.0268 0.144841,-0.0268 0.241401,-0.0737 0.04139,0.0871 0.06897,0.20778 0.03448,0.11395 0.03448,0.2346 0,0.15417 -0.103458,0.26811 -0.09656,0.11395 -0.289682,0.16757 -0.186224,0.0603 -0.448316,0.0603 z"
       id="path28"
       style="font-style:normal;font-variant:normal;font-weight:bold;font-stretch:normal;font-size:6.70278px;line-height:1.25;font-family:'Yanone Kaffeesatz ExtraLight';-inkscape-font-specification:'Yanone Kaffeesatz ExtraLight, Bold';font-variant-ligatures:normal;font-variant-caps:normal;font-variant-numeric:normal;font-variant-east-asian:normal;fill:#f9f9f9;fill-opacity:1;stroke:none;stroke-width:0.268392" />
    <path
       d="m 16.080122,118.81037 v 4.55789 q 0,0.067 -0.02681,0.0938 -0.03351,0.0268 -0.187677,0.0335 -0.154164,0.007 -0.536223,0.007 v -4.55789 q 0,-0.067 0.02681,-0.0938 0.02681,-0.0268 0.187678,-0.0335 0.154164,-0.007 0.536222,-0.007 z m 1.394179,0 v 4.55789 q 0,0.067 -0.02681,0.0938 -0.02681,0.0268 -0.180975,0.0335 -0.160867,0.007 -0.542926,0.007 v -4.55789 q 0,-0.067 0.02681,-0.0938 0.02681,-0.0268 0.187678,-0.0335 0.154164,-0.007 0.536223,-0.007 z m -0.355248,2.14489 v 0.70379 h -1.374069 l -0.0067,-0.70379 z"
       id="path30"
       style="font-style:normal;font-variant:normal;font-weight:bold;font-stretch:normal;font-size:6.70278px;line-height:1.25;font-family:'Yanone Kaffeesatz ExtraLight';-inkscape-font-specification:'Yanone Kaffeesatz ExtraLight, Bold';font-variant-ligatures:normal;font-variant-caps:normal;font-variant-numeric:normal;font-variant-east-asian:normal;fill:#f9f9f9;fill-opacity:1;stroke:none;stroke-width:0.264583" />
    <path
       d="m 13.152264,118.81037 0.710495,1.79635 q 0.06032,0.16086 0.127353,0.36865 0.06033,0.20778 0.12065,0.43568 0.05362,0.22789 0.100542,0.44238 0.04692,0.21449 0.08714,0.38876 0.03351,0.17428 0.05362,0.27482 0.02011,0.10724 0.02011,0.10724 l 0.442384,0.44239 -0.03351,0.43568 H 14.1845 l -0.697089,-1.76283 q -0.06703,-0.17428 -0.134055,-0.39547 -0.06703,-0.21449 -0.12065,-0.44238 -0.06032,-0.22119 -0.107245,-0.42898 -0.04692,-0.20779 -0.08043,-0.37536 -0.03351,-0.16757 -0.05362,-0.26811 -0.02011,-0.0938 -0.02011,-0.0938 l -0.455789,-0.4893 0.05362,-0.43568 z m 1.762832,0 v 4.55789 q 0,0.13406 -0.134056,0.13406 l -0.616656,-0.13406 0.113947,-1.13277 q -0.02011,-0.14076 -0.03351,-0.28822 -0.01341,-0.14746 -0.02681,-0.30162 -0.01341,-0.14746 -0.02011,-0.29493 -0.01341,-0.14075 -0.02011,-0.28151 -0.0067,-0.14076 -0.0067,-0.27482 -0.0067,-0.12735 -0.0067,-0.2413 v -1.60866 q 0,-0.067 0.03351,-0.0938 0.03351,-0.0268 0.187677,-0.0335 0.154164,-0.007 0.52952,-0.007 z m -2.345973,0 0.616655,0.13406 -0.100541,1.28693 q 0.02011,0.15416 0.03351,0.29492 0.01341,0.14746 0.02681,0.28152 0.0067,0.13405 0.02011,0.26141 0.0067,0.12735 0.01341,0.248 0,0.12735 0.0067,0.248 0,0.12065 0,0.2413 v 1.56175 q 0,0.067 -0.03351,0.0938 -0.03351,0.0268 -0.187678,0.0335 -0.160867,0.007 -0.52952,0.007 v -4.55789 q 0,-0.13405 0.134056,-0.13405 z"
       id="path32"
       style="font-style:normal;font-variant:normal;font-weight:bold;font-stretch:normal;font-size:6.70278px;line-height:1.25;font-family:'Yanone Kaffeesatz ExtraLight';-inkscape-font-specification:'Yanone Kaffeesatz ExtraLight, Bold';font-variant-ligatures:normal;font-variant-caps:normal;font-variant-numeric:normal;font-variant-east-asian:normal;fill:#f9f9f9;fill-opacity:1;stroke:none;stroke-width:0.264583" />
    <path
       d="m 11.746775,118.79696 q 0.07373,0 0.207787,0.007 0.134055,0.007 0.268111,0.0201 l -1.119365,4.55119 q -0.02681,0.14076 -0.301625,0.14076 -0.09384,0 -0.187678,-0.007 -0.100541,-0.007 -0.167569,-0.0201 l -1.1193642,-4.55789 q -0.013406,-0.067 0.046919,-0.10054 0.060325,-0.0335 0.2882196,-0.0335 0.073731,0 0.180975,0.007 0.1072445,0 0.2547056,0.007 l 0.489303,2.36608 q 0.03351,0.18098 0.06703,0.38876 0.03351,0.21449 0.06032,0.44239 0.02681,0.22789 0.04692,0.43568 0.02011,-0.20779 0.05362,-0.43568 0.02681,-0.2279 0.06033,-0.44239 0.02681,-0.20778 0.06703,-0.38876 l 0.462492,-2.23873 q 0.01341,-0.067 0.06703,-0.10724 0.04692,-0.0335 0.274814,-0.0335 z m -0.288219,1.07915 v 0.67698 H 9.9437275 v -0.67698 z"
       id="path34"
       style="font-style:normal;font-variant:normal;font-weight:bold;font-stretch:normal;font-size:6.70278px;line-height:1.25;font-family:'Yanone Kaffeesatz ExtraLight';-inkscape-font-specification:'Yanone Kaffeesatz ExtraLight, Bold';font-variant-ligatures:normal;font-variant-caps:normal;font-variant-numeric:normal;font-variant-east-asian:normal;fill:#f9f9f9;fill-opacity:1;stroke:none;stroke-width:0.264583" />
    <path
       d="m 9.1025283,118.81037 v 4.55789 q 0,0.067 -0.040217,0.10054 -0.040217,0.0335 -0.1474611,0.0335 H 8.2579778 q -0.214489,0 -0.4155724,-0.0469 -0.201083,-0.0402 -0.36195,-0.15417 -0.160867,-0.11394 -0.254705,-0.32173 -0.100542,-0.20108 -0.100542,-0.52952 0,-0.34184 0.09384,-0.57644 0.09384,-0.22789 0.234597,-0.35525 0.140758,-0.12065 0.28822,-0.14075 -0.12065,-0.0134 -0.254706,-0.0603 -0.134056,-0.0402 -0.248003,-0.14747 -0.12065,-0.10054 -0.19438,-0.28821 -0.07373,-0.18098 -0.07373,-0.4759 0,-0.26811 0.04692,-0.50941 0.04022,-0.2346 0.134056,-0.43568 0.09384,-0.19438 0.2413,-0.34184 0.147461,-0.14747 0.355247,-0.2279 0.201084,-0.0804 0.4758975,-0.0804 z m -0.7641169,0.65017 H 8.2043558 q -0.080433,0 -0.1407584,0.0603 -0.060325,0.0603 -0.100542,0.17427 -0.04692,0.11395 -0.06703,0.27482 -0.02681,0.16086 -0.02681,0.36865 0,0.22789 0.02011,0.36195 0.02011,0.13405 0.06033,0.20108 0.04022,0.0737 0.1005415,0.0938 0.06032,0.0268 0.1407534,0.0268 h 0.1474611 z m 0,2.19181 H 8.2110586 q -0.080433,0 -0.1340556,0.0804 -0.060325,0.0804 -0.087137,0.22119 -0.03351,0.14746 -0.03351,0.33514 0,0.2346 0.03351,0.35525 0.026812,0.12065 0.080434,0.16086 0.053622,0.0402 0.1139473,0.0402 h 0.1541641 z"
       id="path36"
       style="font-style:normal;font-variant:normal;font-weight:bold;font-stretch:normal;font-size:6.70278px;line-height:1.25;font-family:'Yanone Kaffeesatz ExtraLight';-inkscape-font-specification:'Yanone Kaffeesatz ExtraLight, Bold';font-variant-ligatures:normal;font-variant-caps:normal;font-variant-numeric:normal;font-variant-east-asian:normal;fill:#f9f9f9;fill-opacity:1;stroke:none;stroke-width:0.264583" />
    <path
       d="m 6.7068084,118.81037 v 4.55789 q 0,0 -0.02011,0.067 -0.02011,0.067 -0.113947,0.067 h -1.608667 q 0,-0.30163 0.0067,-0.44239 0.0067,-0.14076 0.03351,-0.18767 0.02681,-0.0402 0.09384,-0.0402 h 0.857956 v -3.35139 h -0.945092 q 0,-0.31504 0.0067,-0.45579 0.0067,-0.14076 0.03351,-0.18098 0.02681,-0.0335 0.09384,-0.0335 z m -0.05362,2.19851 v 0.68369 h -1.508125 q 0,-0.42228 0.02011,-0.55633 0.01341,-0.12736 0.107245,-0.12736 z"
       id="path38"
       style="font-style:normal;font-variant:normal;font-weight:bold;font-stretch:normal;font-size:6.70278px;line-height:1.25;font-family:'Yanone Kaffeesatz ExtraLight';-inkscape-font-specification:'Yanone Kaffeesatz ExtraLight, Bold';font-variant-ligatures:normal;font-variant-caps:normal;font-variant-numeric:normal;font-variant-east-asian:normal;fill:#f9f9f9;fill-opacity:1;stroke:none;stroke-width:0.264583" />
    <path
       d="m 4.6907384,118.81037 v 4.50427 q 0,0.0938 -0.03351,0.13405 -0.03351,0.0402 -0.187678,0.0469 -0.160866,0.007 -0.529519,0.007 v -3.98815 h -0.945092 v -0.56974 q 0,-0.0804 0.04022,-0.10724 0.03351,-0.0268 0.09384,-0.0268 z"
       id="path40"
       style="font-style:normal;font-variant:normal;font-weight:bold;font-stretch:normal;font-size:6.70278px;line-height:1.25;font-family:'Yanone Kaffeesatz ExtraLight';-inkscape-font-specification:'Yanone Kaffeesatz ExtraLight, Bold';font-variant-ligatures:normal;font-variant-caps:normal;font-variant-numeric:normal;font-variant-east-asian:normal;fill:#f9f9f9;fill-opacity:1;stroke:none;stroke-width:0.264583" />
    <circle
       style="display:inline;opacity:1;fill:#9bb3ca;fill-opacity:1;stroke:none;stroke-width:0.198437;stroke-opacity:1"
       id="path1774-4-4-6"
       cx="10.16"
       cy="84"
       inkscape:label="OUTPUT"
       r="6" />
    <circle
       style="display:inline;opacity:1;fill:#9bb3ca;fill-opacity:1;stroke:none;stroke-width:0.198437;stroke-opacity:1"
       id="path1774-4-4-6-4"
       cx="10.16"
       cy="102"
       inkscape:label="OUTPUT"
       r="6" />
    <g
       aria-label="SEQTROL"
       id="text937-2"
       style="font-size:4.23333px;line-height:1.25;font-family:'Roboto Mono for Powerline';-inkscape-font-specification:'Roboto Mono for Powerline, Normal';display:inline;fill:#f9f9f9;fill-opacity:1;stroke-width:0.264583">
      <path
         d="m 3.753213,8.1093208 q 0,0.4943723 -0.2508035,0.7572337 Q 3.2540176,9.1294158 2.783761,9.1294158 2.3231507,9.1294158 2,8.9485479 V 8.299835 q 0.3954978,0.2580382 0.7258832,0.2580382 0.1881027,0 0.282154,-0.1036976 0.096463,-0.1036976 0.096463,-0.282154 0,-0.1760447 -0.1133439,-0.3207391 Q 2.8778123,7.7041766 2.6173625,7.5257203 2.3906747,7.3689681 2.2725077,7.2266853 2.1567522,7.081991 2.0916397,6.9035346 2.0289389,6.7250783 2.0289389,6.4887442 q 0,-0.4533756 0.2508035,-0.7186485 0.2532151,-0.265273 0.6776518,-0.265273 0.4051441,0 0.7789378,0.2266878 L 3.5192905,6.2572333 Q 3.403535,6.1897092 3.2757217,6.1366547 3.15032,6.0836001 3.0056256,6.0836001 q -0.1591637,0 -0.2459803,0.1061091 -0.084405,0.1036977 -0.084405,0.2845656 0,0.1784563 0.1012861,0.3110928 0.1036976,0.1326365 0.3593242,0.3014465 0.3448549,0.231511 0.4799029,0.4726682 0.1374596,0.2411572 0.1374595,0.5498385 z"
         style="font-style:normal;font-variant:normal;font-weight:normal;font-stretch:normal;font-size:4.9389px;font-family:'Open Sans Condensed';-inkscape-font-specification:'Open Sans Condensed, Normal';font-variant-ligatures:normal;font-variant-caps:normal;font-variant-numeric:normal;font-variant-east-asian:normal;fill:#f9f9f9;fill-opacity:1;stroke-width:0.264583"
         id="path969" />
      <path
         d="M 5.7813452,9.0811844 H 4.1921191 V 5.5554657 H 5.7813452 V 6.1221852 H 4.8480667 v 0.8392272 h 0.8657545 v 0.569131 H 4.8480667 v 0.9766868 h 0.9332785 z"
         style="font-style:normal;font-variant:normal;font-weight:normal;font-stretch:normal;font-size:4.9389px;font-family:'Open Sans Condensed';-inkscape-font-specification:'Open Sans Condensed, Normal';font-variant-ligatures:normal;font-variant-caps:normal;font-variant-numeric:normal;font-variant-east-asian:normal;fill:#f9f9f9;fill-opacity:1;stroke-width:0.264583"
         id="path971" />
      <path
         d="m 8.721052,7.3135019 q 0,0.6053047 -0.1615753,1.0225067 -0.1591638,0.417202 -0.4726682,0.6221856 L 8.7355214,9.9204115 H 7.9782877 L 7.4911501,9.1294158 h -0.036173 q -0.6125394,0 -0.9405132,-0.467845 Q 6.18649,8.1913142 6.18649,7.3086788 q 0,-0.8754008 0.3279739,-1.3408342 0.3279738,-0.467845 0.9453363,-0.467845 0.6101278,0 0.93569,0.4702566 0.3255623,0.467845 0.3255618,1.3432457 z m -1.8641454,0 q 0,0.6028931 0.1519291,0.9188091 0.151929,0.3159159 0.4461409,0.3159159 0.5932467,0 0.5932467,-1.234725 0,-1.234725 -0.5884236,-1.234725 -0.299035,0 -0.450964,0.315916 -0.1519291,0.3135044 -0.1519291,0.918809 z"
         style="font-style:normal;font-variant:normal;font-weight:normal;font-stretch:normal;font-size:4.9389px;font-family:'Open Sans Condensed';-inkscape-font-specification:'Open Sans Condensed, Normal';font-variant-ligatures:normal;font-variant-caps:normal;font-variant-numeric:normal;font-variant-east-asian:normal;fill:#f9f9f9;fill-opacity:1;stroke-width:0.264583"
         id="path973" />
      <path
         d="M 10.2524,9.0811844 H 9.5988639 V 6.1318315 H 8.9236237 V 5.5554657 H 10.92764 V 6.1318315 H 10.2524 Z"
         style="font-style:normal;font-variant:normal;font-weight:normal;font-stretch:normal;font-size:4.9389px;font-family:'Open Sans Condensed';-inkscape-font-specification:'Open Sans Condensed, Normal';font-variant-ligatures:normal;font-variant-caps:normal;font-variant-numeric:normal;font-variant-east-asian:normal;fill:#f9f9f9;fill-opacity:1;stroke-width:0.264583"
         id="path975" />
      <path
         d="M 11.957382,7.7089998 V 9.0811844 H 11.301434 V 5.5554657 h 0.85852 q 0.545015,0 0.803054,0.2580383 0.260449,0.2580382 0.260449,0.7885841 0,0.6680055 -0.450964,0.9332785 l 0.677652,1.5458178 H 12.748378 L 12.191304,7.7089998 Z m 0,-0.5643079 h 0.16881 q 0.231511,0 0.332797,-0.1302249 0.101286,-0.1326365 0.101286,-0.3930863 0,-0.2700961 -0.108521,-0.38344 -0.106109,-0.1157555 -0.330385,-0.1157555 h -0.163987 z"
         style="font-style:normal;font-variant:normal;font-weight:normal;font-stretch:normal;font-size:4.9389px;font-family:'Open Sans Condensed';-inkscape-font-specification:'Open Sans Condensed, Normal';font-variant-ligatures:normal;font-variant-caps:normal;font-variant-numeric:normal;font-variant-east-asian:normal;fill:#f9f9f9;fill-opacity:1;stroke-width:0.264583"
         id="path977" />
      <path
         d="m 16.196926,7.3135019 q 0,0.8754008 -0.327974,1.3456573 -0.327974,0.4702566 -0.938101,0.4702566 -0.61254,0 -0.940514,-0.467845 -0.327974,-0.4702566 -0.327974,-1.352892 0,-0.8754008 0.327974,-1.3408342 0.327974,-0.467845 0.945337,-0.467845 0.610127,0 0.93569,0.4702566 0.325562,0.467845 0.325562,1.3432457 z m -1.864145,0 q 0,0.6028931 0.151929,0.9188091 0.151929,0.3159159 0.446141,0.3159159 0.593246,0 0.593246,-1.234725 0,-1.234725 -0.588423,-1.234725 -0.299035,0 -0.450964,0.315916 -0.151929,0.3135044 -0.151929,0.918809 z"
         style="font-style:normal;font-variant:normal;font-weight:normal;font-stretch:normal;font-size:4.9389px;font-family:'Open Sans Condensed';-inkscape-font-specification:'Open Sans Condensed, Normal';font-variant-ligatures:normal;font-variant-caps:normal;font-variant-numeric:normal;font-variant-east-asian:normal;fill:#f9f9f9;fill-opacity:1;stroke-width:0.264583"
         id="path979" />
      <path
         d="M 16.713003,9.0811844 V 5.5554657 h 0.655948 v 2.9517645 h 0.909162 v 0.5739542 z"
         style="font-style:normal;font-variant:normal;font-weight:normal;font-stretch:normal;font-size:4.9389px;font-family:'Open Sans Condensed';-inkscape-font-specification:'Open Sans Condensed, Normal';font-variant-ligatures:normal;font-variant-caps:normal;font-variant-numeric:normal;font-variant-east-asian:normal;fill:#f9f9f9;fill-opacity:1;stroke-width:0.264583"
         id="path981" />
    </g>
    <g
       aria-label="Stop
"
       id="text113-9"
       style="font-size:4.23333px;line-height:1.25;font-family:'Roboto Mono for Powerline';-inkscape-font-specification:'Roboto Mono for Powerline, Normal';display:inline;fill:#f9f9f9;fill-opacity:1;stroke-width:0.264583">
      <path
         d="m 7.7452024,48.903731 q -0.2963331,0 -0.4952996,-0.127 -0.1947331,-0.127 -0.296333,-0.351366 -0.1016,-0.224367 -0.1185333,-0.5207 l 0.423333,-0.1143 q 0.0127,0.182034 0.055033,0.351367 0.046567,0.169333 0.1481665,0.279399 0.1015999,0.105834 0.2836331,0.105834 0.1862665,0 0.2793998,-0.1016 0.097367,-0.105833 0.097367,-0.300567 0,-0.232833 -0.1058333,-0.372533 -0.1058332,-0.143933 -0.2666998,-0.287866 l -0.5757328,-0.508 q -0.1693332,-0.148166 -0.2497665,-0.321733 -0.080433,-0.1778 -0.080433,-0.436033 0,-0.376766 0.2158998,-0.584199 0.2158998,-0.207433 0.5884328,-0.207433 0.2031999,0 0.3555997,0.05503 0.1566332,0.0508 0.2582332,0.160866 0.1058332,0.110067 0.1650998,0.2794 0.0635,0.1651 0.084667,0.389467 L 8.1050361,46.40183 q -0.0127,-0.169333 -0.0508,-0.309033 -0.0381,-0.143933 -0.1354666,-0.2286 -0.093133,-0.0889 -0.2709331,-0.0889 -0.1777998,0 -0.2793997,0.09737 -0.097367,0.09313 -0.097367,0.2794 0,0.156633 0.0508,0.258233 0.055033,0.1016 0.1735666,0.207433 l 0.5799661,0.508 q 0.1947332,0.169333 0.3428998,0.406399 0.1481665,0.232833 0.1481665,0.554566 0,0.254 -0.1058332,0.440267 -0.1058333,0.182033 -0.2920998,0.279399 -0.1820332,0.09737 -0.423333,0.09737 z"
         style="font-style:normal;font-variant:normal;font-weight:normal;font-stretch:normal;font-size:4.23333px;font-family:Oswald;-inkscape-font-specification:'Oswald, Normal';font-variant-ligatures:normal;font-variant-caps:normal;font-variant-numeric:normal;font-variant-east-asian:normal;fill:#f9f9f9;fill-opacity:1;stroke-width:0.264583"
         id="path1079" />
      <path
         d="m 9.5513791,48.899498 q -0.1904999,0 -0.3090331,-0.07197 -0.1142999,-0.07197 -0.1693332,-0.2032 -0.0508,-0.131233 -0.0508,-0.309033 V 46.719333 H 8.7639797 v -0.300567 h 0.2582331 v -0.715432 h 0.4529663 v 0.715432 h 0.3936997 v 0.300567 H 9.4751791 v 1.566332 q 0,0.143933 0.046567,0.207433 0.046567,0.05927 0.1777999,0.05927 0.033867,0 0.0762,-0.0042 0.046567,-0.0042 0.0889,-0.0085 v 0.334433 q -0.084667,0.0127 -0.1566332,0.01693 -0.071967,0.0085 -0.1566332,0.0085 z"
         style="font-style:normal;font-variant:normal;font-weight:normal;font-stretch:normal;font-size:4.23333px;font-family:Oswald;-inkscape-font-specification:'Oswald, Normal';font-variant-ligatures:normal;font-variant-caps:normal;font-variant-numeric:normal;font-variant-east-asian:normal;fill:#f9f9f9;fill-opacity:1;stroke-width:0.264583"
         id="path1081" />
      <path
         d="m 10.878925,48.899498 q -0.270933,0 -0.427567,-0.110067 -0.156633,-0.110066 -0.224366,-0.313266 -0.0635,-0.2032 -0.0635,-0.478366 v -0.7112 q 0,-0.275166 0.0635,-0.478366 0.06773,-0.2032 0.224366,-0.313267 0.156634,-0.110066 0.427567,-0.110066 0.270933,0 0.423333,0.110066 0.156633,0.110067 0.220133,0.313267 0.06773,0.2032 0.06773,0.478366 v 0.7112 q 0,0.275166 -0.06773,0.478366 -0.0635,0.2032 -0.220133,0.313266 -0.1524,0.110067 -0.423333,0.110067 z m 0,-0.334433 q 0.131233,0 0.182033,-0.0762 0.05503,-0.0762 0.0635,-0.198967 0.0127,-0.127 0.0127,-0.262466 v -0.766233 q 0,-0.1397 -0.0127,-0.262466 -0.0085,-0.122767 -0.0635,-0.198967 -0.0508,-0.08043 -0.182033,-0.08043 -0.131233,0 -0.186267,0.08043 -0.05503,0.0762 -0.06773,0.198967 -0.0085,0.122766 -0.0085,0.262466 v 0.766233 q 0,0.135466 0.0085,0.262466 0.0127,0.122767 0.06773,0.198967 0.05503,0.0762 0.186267,0.0762 z"
         style="font-style:normal;font-variant:normal;font-weight:normal;font-stretch:normal;font-size:4.23333px;font-family:Oswald;-inkscape-font-specification:'Oswald, Normal';font-variant-ligatures:normal;font-variant-caps:normal;font-variant-numeric:normal;font-variant-east-asian:normal;fill:#f9f9f9;fill-opacity:1;stroke-width:0.264583"
         id="path1083" />
      <path
         d="m 12.008298,49.669964 v -3.251198 h 0.452966 V 46.6135 q 0.08043,-0.09313 0.194733,-0.160867 0.1143,-0.06773 0.270933,-0.06773 0.1905,0 0.300567,0.1016 0.1143,0.09737 0.169333,0.249766 0.05503,0.148167 0.07197,0.3048 0.01693,0.1524 0.01693,0.262466 v 0.592667 q 0,0.258233 -0.0508,0.491066 -0.0508,0.2286 -0.186267,0.372533 -0.131233,0.1397 -0.372533,0.1397 -0.131233,0 -0.232833,-0.0635 -0.1016,-0.06773 -0.182033,-0.1524 v 0.986366 z m 0.778932,-1.126066 q 0.118534,0 0.169334,-0.08467 0.0508,-0.0889 0.0635,-0.237066 0.0127,-0.148167 0.0127,-0.325966 v -0.592667 q 0,-0.152399 -0.01693,-0.279399 -0.01693,-0.131234 -0.07197,-0.207434 -0.05503,-0.0762 -0.173567,-0.0762 -0.0889,0 -0.169333,0.0381 -0.08043,0.0381 -0.1397,0.0889 v 1.566332 q 0.0635,0.04657 0.143933,0.08043 0.08043,0.02963 0.182033,0.02963 z"
         style="font-style:normal;font-variant:normal;font-weight:normal;font-stretch:normal;font-size:4.23333px;font-family:Oswald;-inkscape-font-specification:'Oswald, Normal';font-variant-ligatures:normal;font-variant-caps:normal;font-variant-numeric:normal;font-variant-east-asian:normal;fill:#f9f9f9;fill-opacity:1;stroke-width:0.264583"
         id="path1085" />
    </g>
    <g
       aria-label="Clock"
       transform="scale(1.0000496,0.99995041)"
       id="text117-1"
       style="font-size:4.23354px;line-height:1.25;font-family:'Roboto Mono for Powerline';-inkscape-font-specification:'Roboto Mono for Powerline, Normal';display:inline;fill:#f9f9f9;fill-opacity:1;stroke-width:0.264597">
      <path
         d="m 6.9275679,64.057807 q -0.3640663,0 -0.5672661,-0.1524 -0.1989665,-0.1524 -0.2793998,-0.410633 -0.0762,-0.258233 -0.0762,-0.575733 v -1.210732 q 0,-0.347133 0.0762,-0.605366 0.080433,-0.258234 0.2793998,-0.397933 0.2031998,-0.143934 0.5672661,-0.143934 0.3217331,0 0.5079996,0.118534 0.1904999,0.118533 0.2709331,0.338666 0.084667,0.220133 0.084667,0.529166 v 0.270933 H 7.3382009 v -0.2413 q 0,-0.190499 -0.021167,-0.334433 -0.016933,-0.148166 -0.1015999,-0.228599 -0.084667,-0.08043 -0.2836331,-0.08043 -0.2031999,0 -0.2963331,0.0889 -0.093133,0.08467 -0.1227666,0.245533 -0.0254,0.156634 -0.0254,0.3683 v 1.358899 q 0,0.258233 0.042333,0.410633 0.042333,0.148166 0.1396999,0.211666 0.097367,0.0635 0.2624665,0.0635 0.1947331,0 0.2793997,-0.08467 0.084667,-0.0889 0.1058333,-0.2413 0.021167,-0.1524 0.021167,-0.3556 v -0.254 h 0.4529663 v 0.254 q 0,0.313267 -0.0762,0.554566 -0.0762,0.237067 -0.2624665,0.372533 -0.1862665,0.131234 -0.5249325,0.131234 z"
         style="font-style:normal;font-variant:normal;font-weight:normal;font-stretch:normal;font-size:4.23333px;font-family:Oswald;-inkscape-font-specification:'Oswald, Normal';font-variant-ligatures:normal;font-variant-caps:normal;font-variant-numeric:normal;font-variant-east-asian:normal;fill:#f9f9f9;fill-opacity:1;stroke-width:0.264597"
         id="path1068" />
      <path
         d="M 8.2552461,64.019707 V 60.59071 h 0.4529663 v 3.428997 z"
         style="font-style:normal;font-variant:normal;font-weight:normal;font-stretch:normal;font-size:4.23333px;font-family:Oswald;-inkscape-font-specification:'Oswald, Normal';font-variant-ligatures:normal;font-variant-caps:normal;font-variant-numeric:normal;font-variant-east-asian:normal;fill:#f9f9f9;fill-opacity:1;stroke-width:0.264597"
         id="path1070" />
      <path
         d="m 9.8533942,64.053573 q -0.2709331,0 -0.4275663,-0.110066 -0.1566332,-0.110067 -0.2243665,-0.313267 -0.0635,-0.203199 -0.0635,-0.478366 v -0.711199 q 0,-0.275167 0.0635,-0.478367 0.067733,-0.203199 0.2243665,-0.313266 0.1566332,-0.110067 0.4275663,-0.110067 0.2709328,0 0.4233328,0.110067 0.156633,0.110067 0.220133,0.313266 0.06773,0.2032 0.06773,0.478367 v 0.711199 q 0,0.275167 -0.06773,0.478366 -0.0635,0.2032 -0.220133,0.313267 -0.1524,0.110066 -0.4233328,0.110066 z m 0,-0.334433 q 0.1312332,0 0.1820328,-0.0762 0.05503,-0.0762 0.0635,-0.198966 0.0127,-0.127 0.0127,-0.262467 v -0.766232 q 0,-0.1397 -0.0127,-0.262467 -0.0085,-0.122766 -0.0635,-0.198966 -0.0508,-0.08043 -0.1820328,-0.08043 -0.1312332,0 -0.1862665,0.08043 -0.055033,0.0762 -0.067733,0.198966 -0.00847,0.122767 -0.00847,0.262467 v 0.766232 q 0,0.135467 0.00847,0.262467 0.0127,0.122766 0.067733,0.198966 0.055033,0.0762 0.1862665,0.0762 z"
         style="font-style:normal;font-variant:normal;font-weight:normal;font-stretch:normal;font-size:4.23333px;font-family:Oswald;-inkscape-font-specification:'Oswald, Normal';font-variant-ligatures:normal;font-variant-caps:normal;font-variant-numeric:normal;font-variant-east-asian:normal;fill:#f9f9f9;fill-opacity:1;stroke-width:0.264597"
         id="path1072" />
      <path
         d="m 11.651633,64.053573 q -0.300566,0 -0.457199,-0.118533 -0.1524,-0.122766 -0.207433,-0.3429 -0.0508,-0.220133 -0.0508,-0.512232 v -0.563033 q 0,-0.309033 0.05503,-0.524933 0.05503,-0.220133 0.207433,-0.334433 0.156633,-0.118534 0.452966,-0.118534 0.2667,0 0.410633,0.0889 0.148167,0.08467 0.2032,0.258234 0.05503,0.169333 0.05503,0.423332 v 0.143934 H 11.90986 v -0.148167 q 0,-0.160866 -0.02117,-0.254 -0.02117,-0.09313 -0.0762,-0.135466 -0.05503,-0.04233 -0.156633,-0.04233 -0.110067,0 -0.169333,0.0508 -0.05927,0.0508 -0.08043,0.173567 -0.01693,0.118533 -0.01693,0.325966 v 0.770466 q 0,0.313267 0.05927,0.4191 0.05927,0.105833 0.211666,0.105833 0.1143,0 0.1651,-0.0508 0.05503,-0.05503 0.06773,-0.1524 0.01693,-0.09737 0.01693,-0.220133 v -0.19897 h 0.41064 v 0.169333 q 0,0.245533 -0.05927,0.423333 -0.05503,0.1778 -0.2032,0.270933 -0.143933,0.09313 -0.4064,0.09313 z"
         style="font-style:normal;font-variant:normal;font-weight:normal;font-stretch:normal;font-size:4.23333px;font-family:Oswald;-inkscape-font-specification:'Oswald, Normal';font-variant-ligatures:normal;font-variant-caps:normal;font-variant-numeric:normal;font-variant-east-asian:normal;fill:#f9f9f9;fill-opacity:1;stroke-width:0.264597"
         id="path1074" />
      <path
         d="m 12.727561,64.015473 v -3.428997 h 0.452966 v 2.044699 l 0.660399,-1.058333 h 0.474133 l -0.575732,0.956733 0.558799,1.490132 H 13.84516 l -0.4572,-1.253066 -0.207433,0.313267 v 0.935565 z"
         style="font-style:normal;font-variant:normal;font-weight:normal;font-stretch:normal;font-size:4.23333px;font-family:Oswald;-inkscape-font-specification:'Oswald, Normal';font-variant-ligatures:normal;font-variant-caps:normal;font-variant-numeric:normal;font-variant-east-asian:normal;fill:#f9f9f9;fill-opacity:1;stroke-width:0.264597"
         id="path1076" />
    </g>
    <g
       aria-label="Start"
       id="text121-2"
       style="font-style:normal;font-variant:normal;font-weight:normal;font-stretch:normal;font-size:4.23333px;line-height:1.25;font-family:'Open Sans Condensed Light';-inkscape-font-specification:'Open Sans Condensed Light, ';display:inline;fill:#f9f9f9;fill-opacity:1;stroke-width:0.264583">
      <path
         d="m 7.3212103,18.903731 q -0.2963331,0 -0.4952996,-0.127 -0.1947332,-0.127 -0.2963331,-0.351366 -0.1015999,-0.224367 -0.1185332,-0.5207 l 0.4233329,-0.1143 q 0.0127,0.182034 0.055033,0.351367 0.046567,0.169333 0.1481666,0.279399 0.1015999,0.105834 0.2836331,0.105834 0.1862665,0 0.2793997,-0.1016 0.097367,-0.105833 0.097367,-0.300567 0,-0.232833 -0.1058332,-0.372533 -0.1058333,-0.143933 -0.2666998,-0.287866 l -0.5757329,-0.508 q -0.1693331,-0.148166 -0.2497664,-0.321733 -0.080433,-0.1778 -0.080433,-0.436033 0,-0.376766 0.2158998,-0.584199 0.2158999,-0.207433 0.5884329,-0.207433 0.2031998,0 0.3555997,0.05503 0.1566332,0.0508 0.2582331,0.160866 0.1058332,0.110067 0.1650999,0.2794 0.0635,0.1651 0.084667,0.389467 L 7.6810441,16.40183 q -0.0127,-0.169333 -0.0508,-0.309033 -0.0381,-0.143933 -0.1354665,-0.2286 -0.093133,-0.0889 -0.2709331,-0.0889 -0.1777999,0 -0.2793998,0.09737 -0.097367,0.09313 -0.097367,0.2794 0,0.156633 0.0508,0.258233 0.055033,0.1016 0.1735665,0.207433 l 0.5799662,0.508 q 0.1947332,0.169333 0.3428997,0.406399 0.1481665,0.232833 0.1481665,0.554566 0,0.254 -0.1058332,0.440267 -0.1058333,0.182033 -0.2920998,0.279399 -0.1820331,0.09737 -0.4233329,0.09737 z"
         style="font-style:normal;font-variant:normal;font-weight:normal;font-stretch:normal;font-size:4.23333px;font-family:Oswald;-inkscape-font-specification:'Oswald, Normal';font-variant-ligatures:normal;font-variant-caps:normal;font-variant-numeric:normal;font-variant-east-asian:normal;fill:#f9f9f9;fill-opacity:1;stroke-width:0.264583"
         id="path1057" />
      <path
         d="m 9.1273869,18.899498 q -0.1904998,0 -0.3090331,-0.07197 -0.1142999,-0.07197 -0.1693332,-0.2032 -0.0508,-0.131233 -0.0508,-0.309033 V 16.719333 H 8.3399876 V 16.418766 H 8.5982207 V 15.703334 H 9.051187 v 0.715432 h 0.3936996 v 0.300567 H 9.051187 v 1.566332 q 0,0.143933 0.046567,0.207433 0.046567,0.05927 0.1777998,0.05927 0.033867,0 0.0762,-0.0042 0.046567,-0.0042 0.0889,-0.0085 v 0.334433 q -0.084667,0.0127 -0.1566332,0.01693 -0.071967,0.0085 -0.1566332,0.0085 z"
         style="font-style:normal;font-variant:normal;font-weight:normal;font-stretch:normal;font-size:4.23333px;font-family:Oswald;-inkscape-font-specification:'Oswald, Normal';font-variant-ligatures:normal;font-variant-caps:normal;font-variant-numeric:normal;font-variant-east-asian:normal;fill:#f9f9f9;fill-opacity:1;stroke-width:0.264583"
         id="path1059" />
      <path
         d="m 10.222099,18.899498 q -0.143933,0 -0.2539993,-0.08043 -0.1100666,-0.08467 -0.1735665,-0.211666 -0.0635,-0.131233 -0.0635,-0.275166 0,-0.2286 0.0762,-0.385233 0.0762,-0.156634 0.2074328,-0.262467 0.135467,-0.110066 0.309033,-0.1905 0.1778,-0.08043 0.372533,-0.156633 v -0.173566 q 0,-0.148167 -0.01693,-0.245534 -0.01693,-0.09737 -0.07197,-0.143933 -0.0508,-0.0508 -0.156633,-0.0508 -0.09313,0 -0.1524,0.04233 -0.05503,0.04233 -0.08043,0.122766 -0.0254,0.0762 -0.0254,0.182033 v 0.122767 l -0.4487328,-0.01693 q 0.00847,-0.4064 0.1862665,-0.5969 Q 10.1078,16.3849 10.480333,16.3849 q 0.364066,0 0.516466,0.198966 0.1524,0.198967 0.1524,0.575733 v 1.117599 q 0,0.1143 0.0042,0.220133 0.0085,0.105834 0.01693,0.198967 0.0127,0.0889 0.02117,0.169333 h -0.414866 q -0.0127,-0.06773 -0.03387,-0.169333 -0.01693,-0.105833 -0.0254,-0.1905 -0.04233,0.143933 -0.1651,0.270933 -0.118533,0.122767 -0.3302,0.122767 z m 0.1778,-0.389467 q 0.06773,0 0.127,-0.0381 0.05927,-0.0381 0.105833,-0.08467 0.04657,-0.0508 0.0635,-0.08043 v -0.694267 q -0.105833,0.05927 -0.198966,0.118534 -0.09313,0.05927 -0.1651,0.127 -0.06773,0.0635 -0.110067,0.148166 -0.0381,0.08043 -0.0381,0.186267 0,0.148166 0.05503,0.232833 0.05503,0.08467 0.160866,0.08467 z"
         style="font-style:normal;font-variant:normal;font-weight:normal;font-stretch:normal;font-size:4.23333px;font-family:Oswald;-inkscape-font-specification:'Oswald, Normal';font-variant-ligatures:normal;font-variant-caps:normal;font-variant-numeric:normal;font-variant-east-asian:normal;fill:#f9f9f9;fill-opacity:1;stroke-width:0.264583"
         id="path1061" />
      <path
         d="m 11.597006,18.865631 v -2.446865 h 0.452966 V 16.7659 q 0.135466,-0.224367 0.270933,-0.300567 0.135466,-0.0762 0.270933,-0.0762 0.01693,0 0.02963,0 0.01693,0 0.04233,0.0042 v 0.499532 q -0.0508,-0.02117 -0.118534,-0.03387 -0.0635,-0.01693 -0.131233,-0.01693 -0.105833,0 -0.194733,0.0508 -0.08467,0.04657 -0.169333,0.186267 v 1.786465 z"
         style="font-style:normal;font-variant:normal;font-weight:normal;font-stretch:normal;font-size:4.23333px;font-family:Oswald;-inkscape-font-specification:'Oswald, Normal';font-variant-ligatures:normal;font-variant-caps:normal;font-variant-numeric:normal;font-variant-east-asian:normal;fill:#f9f9f9;fill-opacity:1;stroke-width:0.264583"
         id="path1063" />
      <path
         d="m 13.592227,18.899498 q -0.1905,0 -0.309033,-0.07197 -0.1143,-0.07197 -0.169333,-0.2032 -0.0508,-0.131233 -0.0508,-0.309033 V 16.71933 h -0.258234 v -0.300567 h 0.258234 v -0.715432 h 0.452966 v 0.715432 h 0.3937 v 0.300567 h -0.3937 v 1.566332 q 0,0.143933 0.04657,0.207433 0.04657,0.05927 0.177799,0.05927 0.03387,0 0.0762,-0.0042 0.04657,-0.0042 0.0889,-0.0085 v 0.334433 q -0.08467,0.0127 -0.156633,0.01693 -0.07197,0.0085 -0.156633,0.0085 z"
         style="font-style:normal;font-variant:normal;font-weight:normal;font-stretch:normal;font-size:4.23333px;font-family:Oswald;-inkscape-font-specification:'Oswald, Normal';font-variant-ligatures:normal;font-variant-caps:normal;font-variant-numeric:normal;font-variant-east-asian:normal;fill:#f9f9f9;fill-opacity:1;stroke-width:0.264583"
         id="path1065" />
    </g>
    <g
       aria-label="Cont"
       id="text125-6"
       style="font-style:normal;font-variant:normal;font-weight:normal;font-stretch:normal;font-size:4.23333px;line-height:1.25;font-family:'Open Sans Condensed Light';-inkscape-font-specification:'Open Sans Condensed Light, ';display:inline;fill:#f9f9f9;fill-opacity:1;stroke-width:0.264583">
      <path
         d="m 7.6630182,33.907866 q -0.3640663,0 -0.5672662,-0.1524 -0.1989665,-0.1524 -0.2793997,-0.410633 -0.0762,-0.258233 -0.0762,-0.575733 v -1.210732 q 0,-0.347133 0.0762,-0.605366 0.080433,-0.258233 0.2793997,-0.397933 0.2031999,-0.143933 0.5672662,-0.143933 0.3217331,0 0.5079996,0.118533 0.1904998,0.118533 0.2709331,0.338666 0.084667,0.220134 0.084667,0.529167 v 0.270933 H 8.0736512 v -0.2413 q 0,-0.1905 -0.021167,-0.334433 -0.016933,-0.148167 -0.1016,-0.2286 -0.084667,-0.08043 -0.2836331,-0.08043 -0.2031998,0 -0.296333,0.0889 -0.093133,0.08467 -0.1227666,0.245533 -0.0254,0.156633 -0.0254,0.3683 V 32.8453 q 0,0.258234 0.042333,0.410633 0.042333,0.148167 0.1396999,0.211667 0.097367,0.0635 0.2624664,0.0635 0.1947332,0 0.2793998,-0.08467 0.084667,-0.0889 0.1058333,-0.2413 0.021167,-0.152399 0.021167,-0.355599 v -0.254 h 0.4529663 v 0.254 q 0,0.313266 -0.0762,0.554566 -0.0762,0.237066 -0.2624665,0.372533 -0.1862665,0.131233 -0.5249329,0.131233 z"
         style="font-style:normal;font-variant:normal;font-weight:normal;font-stretch:normal;font-size:4.23333px;font-family:Oswald;-inkscape-font-specification:'Oswald, Normal';font-variant-ligatures:normal;font-variant-caps:normal;font-variant-numeric:normal;font-variant-east-asian:normal;fill:#f9f9f9;fill-opacity:1;stroke-width:0.264583"
         id="path1048" />
      <path
         d="m 9.6214625,33.903633 q -0.2709331,0 -0.4275663,-0.110067 Q 9.037263,33.6835 8.9695297,33.4803 q -0.0635,-0.2032 -0.0635,-0.478366 v -0.7112 q 0,-0.275166 0.0635,-0.478366 0.067733,-0.2032 0.2243665,-0.313266 0.1566332,-0.110067 0.4275663,-0.110067 0.2709331,0 0.4233325,0.110067 0.156634,0.110066 0.220134,0.313266 0.06773,0.2032 0.06773,0.478366 v 0.7112 q 0,0.275166 -0.06773,0.478366 -0.0635,0.2032 -0.220134,0.313266 -0.1523994,0.110067 -0.4233325,0.110067 z m 0,-0.334433 q 0.1312332,0 0.1820332,-0.0762 0.055033,-0.0762 0.0635,-0.198967 0.0127,-0.127 0.0127,-0.262466 v -0.766233 q 0,-0.1397 -0.0127,-0.262466 -0.00847,-0.122767 -0.0635,-0.198967 -0.0508,-0.08043 -0.1820332,-0.08043 -0.1312332,0 -0.1862665,0.08043 -0.055033,0.0762 -0.067733,0.198967 -0.00847,0.122766 -0.00847,0.262466 v 0.766233 q 0,0.135466 0.00847,0.262466 0.0127,0.122767 0.067733,0.198967 0.055033,0.0762 0.1862665,0.0762 z"
         style="font-style:normal;font-variant:normal;font-weight:normal;font-stretch:normal;font-size:4.23333px;font-family:Oswald;-inkscape-font-specification:'Oswald, Normal';font-variant-ligatures:normal;font-variant-caps:normal;font-variant-numeric:normal;font-variant-east-asian:normal;fill:#f9f9f9;fill-opacity:1;stroke-width:0.264583"
         id="path1050" />
      <path
         d="m 10.750836,33.869766 v -2.446864 h 0.452966 v 0.241299 q 0.122767,-0.114299 0.270933,-0.194733 0.148167,-0.08043 0.325966,-0.08043 0.148167,0 0.224367,0.0762 0.08043,0.0762 0.110067,0.1905 0.03387,0.1143 0.03387,0.232833 v 1.981198 h -0.452966 v -1.849965 q 0,-0.131233 -0.0381,-0.2032 -0.0381,-0.07197 -0.156633,-0.07197 -0.0762,0 -0.160867,0.04657 -0.08043,0.04233 -0.156633,0.105834 v 1.972731 z"
         style="font-style:normal;font-variant:normal;font-weight:normal;font-stretch:normal;font-size:4.23333px;font-family:Oswald;-inkscape-font-specification:'Oswald, Normal';font-variant-ligatures:normal;font-variant-caps:normal;font-variant-numeric:normal;font-variant-east-asian:normal;fill:#f9f9f9;fill-opacity:1;stroke-width:0.264583"
         id="path1052" />
      <path
         d="m 13.263119,33.903633 q -0.1905,0 -0.309033,-0.07197 -0.1143,-0.07197 -0.169334,-0.2032 -0.0508,-0.131233 -0.0508,-0.309033 v -1.595965 h -0.258233 v -0.300566 h 0.258233 v -0.715433 h 0.452967 v 0.715433 h 0.393699 v 0.300566 H 13.186919 V 33.2898 q 0,0.143933 0.04657,0.207433 0.04657,0.05927 0.1778,0.05927 0.03387,0 0.0762,-0.0042 0.04657,-0.0042 0.0889,-0.0085 v 0.334433 q -0.08467,0.0127 -0.156633,0.01693 -0.07197,0.0085 -0.156633,0.0085 z"
         style="font-style:normal;font-variant:normal;font-weight:normal;font-stretch:normal;font-size:4.23333px;font-family:Oswald;-inkscape-font-specification:'Oswald, Normal';font-variant-ligatures:normal;font-variant-caps:normal;font-variant-numeric:normal;font-variant-east-asian:normal;fill:#f9f9f9;fill-opacity:1;stroke-width:0.264583"
         id="path1054" />
    </g>
    <g
       aria-label="Reset"
       id="text962-5"
       style="font-size:4.23331px;line-height:1.25;font-family:'Roboto Mono for Powerline';-inkscape-font-specification:'Roboto Mono for Powerline, Normal';display:inline;fill:#f9f9f9;fill-opacity:1;stroke-width:0.264582">
      <path
         d="m 6.0194917,77.622116 v -3.428997 h 0.6900327 q 0.3428997,0 0.5672662,0.09313 0.2243665,0.0889 0.3301997,0.2921 0.1100666,0.198966 0.1100666,0.524933 0,0.198966 -0.042333,0.364066 -0.042333,0.160867 -0.1354666,0.275167 -0.093133,0.110066 -0.2455331,0.160866 l 0.4868329,1.718732 H 7.3191239 l -0.448733,-1.608665 h -0.372533 v 1.608665 z m 0.4783662,-1.951565 h 0.1820332 q 0.2031998,0 0.3301997,-0.0508 0.1269999,-0.0508 0.1862665,-0.173566 0.059267,-0.122767 0.059267,-0.3429 0,-0.300567 -0.1100666,-0.4318 -0.1100666,-0.135466 -0.436033,-0.135466 H 6.4978579 Z"
         style="font-style:normal;font-variant:normal;font-weight:normal;font-stretch:normal;font-size:4.23333px;font-family:Oswald;-inkscape-font-specification:'Oswald, Normal';font-variant-ligatures:normal;font-variant-caps:normal;font-variant-numeric:normal;font-variant-east-asian:normal;fill:#f9f9f9;fill-opacity:1;stroke-width:0.264582"
         id="path1037" />
      <path
         d="m 8.8580715,77.655983 q -0.2878665,0 -0.4444997,-0.110067 -0.1566332,-0.1143 -0.2201331,-0.3302 -0.059267,-0.220133 -0.059267,-0.537632 v -0.5588 q 0,-0.325966 0.0635,-0.541866 0.0635,-0.2159 0.2201332,-0.325967 0.1608665,-0.110066 0.4402663,-0.110066 0.309033,0 0.4529663,0.127 0.1481665,0.127 0.1947331,0.368299 0.046567,0.237067 0.046567,0.5715 V 76.40715 H 8.5871384 v 0.491067 q 0,0.148166 0.0254,0.241299 0.029633,0.09313 0.0889,0.1397 0.0635,0.04233 0.1608665,0.04233 0.1015999,0 0.1523999,-0.04657 0.055033,-0.0508 0.071967,-0.1397 0.021167,-0.09313 0.021167,-0.2159 V 76.77121 h 0.4402663 v 0.09313 q 0,0.3683 -0.1566332,0.579966 -0.1566332,0.211667 -0.5333995,0.211667 z M 8.5871384,76.161617 h 0.5206995 v -0.220133 q 0,-0.1524 -0.016933,-0.254 -0.016933,-0.105833 -0.071967,-0.156633 -0.0508,-0.05503 -0.1650999,-0.05503 -0.1100665,0 -0.1693331,0.0508 -0.055033,0.0508 -0.0762,0.173566 -0.021167,0.118534 -0.021167,0.3302 z"
         style="font-style:normal;font-variant:normal;font-weight:normal;font-stretch:normal;font-size:4.23333px;font-family:Oswald;-inkscape-font-specification:'Oswald, Normal';font-variant-ligatures:normal;font-variant-caps:normal;font-variant-numeric:normal;font-variant-east-asian:normal;fill:#f9f9f9;fill-opacity:1;stroke-width:0.264582"
         id="path1039" />
      <path
         d="m 10.533941,77.655983 q -0.300567,0 -0.4826,-0.186267 -0.182033,-0.1905 -0.207433,-0.499533 l 0.376766,-0.1143 q 0.03387,0.232834 0.1143,0.351367 0.08043,0.1143 0.237067,0.1143 0.122766,0 0.186266,-0.06773 0.0635,-0.07197 0.0635,-0.190499 0,-0.105834 -0.04657,-0.1905 -0.04657,-0.08467 -0.1524,-0.173567 l -0.4191,-0.359833 q -0.127,-0.110066 -0.2158998,-0.245533 -0.084667,-0.135467 -0.084667,-0.351366 0,-0.194733 0.0762,-0.325967 0.080433,-0.135466 0.2201338,-0.2032 0.143933,-0.07197 0.334433,-0.07197 0.2921,0 0.444499,0.1905 0.156634,0.186266 0.1778,0.452966 l -0.304799,0.1143 q -0.01693,-0.127 -0.0508,-0.220133 -0.03387,-0.09737 -0.09313,-0.148167 -0.05927,-0.05503 -0.156633,-0.05503 -0.110066,0 -0.1778,0.0762 -0.0635,0.07197 -0.0635,0.173566 0,0.0635 0.0254,0.127 0.02963,0.05927 0.09737,0.118533 l 0.431799,0.397933 q 0.0889,0.08043 0.1651,0.173567 0.08043,0.09313 0.131234,0.211666 0.0508,0.118534 0.0508,0.275167 0,0.207433 -0.08467,0.347133 -0.08467,0.1397 -0.237067,0.211666 -0.152399,0.06773 -0.355599,0.06773 z"
         style="font-style:normal;font-variant:normal;font-weight:normal;font-stretch:normal;font-size:4.23333px;font-family:Oswald;-inkscape-font-specification:'Oswald, Normal';font-variant-ligatures:normal;font-variant-caps:normal;font-variant-numeric:normal;font-variant-east-asian:normal;fill:#f9f9f9;fill-opacity:1;stroke-width:0.264582"
         id="path1041" />
      <path
         d="m 12.223238,77.655983 q -0.287867,0 -0.4445,-0.110067 -0.156633,-0.1143 -0.220133,-0.3302 -0.05927,-0.220133 -0.05927,-0.537632 v -0.5588 q 0,-0.325966 0.0635,-0.541866 0.0635,-0.2159 0.220133,-0.325967 0.160867,-0.110066 0.440267,-0.110066 0.309033,0 0.452966,0.127 0.148166,0.127 0.194733,0.368299 0.04657,0.237067 0.04657,0.5715 v 0.198966 h -0.965199 v 0.491067 q 0,0.148166 0.0254,0.241299 0.02963,0.09313 0.0889,0.1397 0.0635,0.04233 0.160867,0.04233 0.1016,0 0.1524,-0.04657 0.05503,-0.0508 0.07197,-0.1397 0.02117,-0.09313 0.02117,-0.2159 V 76.77121 h 0.440266 v 0.09313 q 0,0.3683 -0.156633,0.579966 -0.156633,0.211667 -0.533399,0.211667 z m -0.270933,-1.494366 h 0.520699 v -0.220133 q 0,-0.1524 -0.01693,-0.254 -0.01693,-0.105833 -0.07197,-0.156633 -0.0508,-0.05503 -0.1651,-0.05503 -0.110066,0 -0.169333,0.0508 -0.05503,0.0508 -0.0762,0.173566 -0.02117,0.118534 -0.02117,0.3302 z"
         style="font-style:normal;font-variant:normal;font-weight:normal;font-stretch:normal;font-size:4.23333px;font-family:Oswald;-inkscape-font-specification:'Oswald, Normal';font-variant-ligatures:normal;font-variant-caps:normal;font-variant-numeric:normal;font-variant-east-asian:normal;fill:#f9f9f9;fill-opacity:1;stroke-width:0.264582"
         id="path1043" />
      <path
         d="m 13.983774,77.655983 q -0.1905,0 -0.309033,-0.07197 -0.1143,-0.07197 -0.169333,-0.2032 -0.0508,-0.131233 -0.0508,-0.309033 v -1.595965 h -0.258233 v -0.300567 h 0.258233 v -0.715432 h 0.452966 v 0.715432 h 0.3937 v 0.300567 h -0.3937 v 1.566332 q 0,0.143933 0.04657,0.207433 0.04657,0.05927 0.1778,0.05927 0.03387,0 0.0762,-0.0042 0.04657,-0.0042 0.0889,-0.0085 v 0.334433 q -0.08467,0.0127 -0.156633,0.01693 -0.07197,0.0085 -0.156633,0.0085 z"
         style="font-style:normal;font-variant:normal;font-weight:normal;font-stretch:normal;font-size:4.23333px;font-family:Oswald;-inkscape-font-specification:'Oswald, Normal';font-variant-ligatures:normal;font-variant-caps:normal;font-variant-numeric:normal;font-variant-east-asian:normal;fill:#f9f9f9;fill-opacity:1;stroke-width:0.264582"
         id="path1045" />
    </g>
    <path
       style="display:inline;opacity:1;fill:none;stroke:#9bb3ca;stroke-width:0.3;stroke-linecap:butt;stroke-linejoin:miter;stroke-miterlimit:4;stroke-dasharray:none;stroke-opacity:1"
       d="M 4,24 V 39"
       id="path1016-4" />
    <path
       style="display:inline;opacity:1;fill:none;stroke:#9bb3ca;stroke-width:0.3;stroke-linecap:butt;stroke-linejoin:miter;stroke-miterlimit:4;stroke-dasharray:none;stroke-opacity:1"
       d="M 10.01,24.15 H 3.85"
       id="path1016-4-8" />
    <path
       style="display:inline;opacity:1;fill:none;stroke:#9bb3ca;stroke-width:0.3;stroke-linecap:butt;stroke-linejoin:miter;stroke-miterlimit:4;stroke-dasharray:none;stroke-opacity:1"
       d="M 10.01,38.85 H 3.85"
       id="path1016-4-8-5" />
  </g>
  <g
     inkscape:groupmode="layer"
     id="layer4"
     inkscape:label="Text"
     style="display:none">
    <text
       xml:space="preserve"
       style="font-size:4.23333px;line-height:1.25;font-family:'Roboto Mono for Powerline';-inkscape-font-specification:'Roboto Mono for Powerline, Normal';display:inline;fill:#f9f9f9;fill-opacity:1;stroke-width:0.264583"
       x="6.6695533"
       y="48.865444"
       id="text113"><tspan
         sodipodi:role="line"
         id="tspan111"
         x="6.6695533"
         y="48.865444"
         style="font-style:normal;font-variant:normal;font-weight:normal;font-stretch:normal;font-size:4.23333px;font-family:Oswald;-inkscape-font-specification:'Oswald, Normal';font-variant-ligatures:normal;font-variant-caps:normal;font-variant-numeric:normal;font-variant-east-asian:normal;fill:#f9f9f9;fill-opacity:1;stroke-width:0.264583"
         rotate="0 0 0 0 0">Stop</tspan><tspan
         sodipodi:role="line"
         x="6.6695533"
         y="54.157104"
         style="font-style:normal;font-variant:normal;font-weight:normal;font-stretch:normal;font-family:'Open Sans Condensed Light';-inkscape-font-specification:'Open Sans Condensed Light, ';fill:#f9f9f9;fill-opacity:1;stroke-width:0.264583"
         rotate="0 0 0 0 0"
         id="tspan1035" /></text>
    <text
       xml:space="preserve"
       style="font-size:4.23354px;line-height:1.25;font-family:'Roboto Mono for Powerline';-inkscape-font-specification:'Roboto Mono for Powerline, Normal';display:inline;fill:#f9f9f9;fill-opacity:1;stroke-width:0.264596"
       x="5.8011174"
       y="64.019516"
       id="text117"
       transform="scale(1.0000496,0.9999504)"><tspan
         sodipodi:role="line"
         id="tspan115"
         x="5.8011174"
         y="64.019516"
         style="font-style:normal;font-variant:normal;font-weight:normal;font-stretch:normal;font-size:4.23333px;font-family:Oswald;-inkscape-font-specification:'Oswald, Normal';font-variant-ligatures:normal;font-variant-caps:normal;font-variant-numeric:normal;font-variant-east-asian:normal;fill:#f9f9f9;fill-opacity:1;stroke-width:0.264596">Clock</tspan></text>
    <text
       xml:space="preserve"
       style="font-style:normal;font-variant:normal;font-weight:normal;font-stretch:normal;font-size:4.23333px;line-height:1.25;font-family:'Open Sans Condensed Light';-inkscape-font-specification:'Open Sans Condensed Light, ';display:inline;fill:#f9f9f9;fill-opacity:1;stroke-width:0.264583"
       x="6.2455592"
       y="18.865444"
       id="text121"><tspan
         sodipodi:role="line"
         id="tspan119"
         x="6.2455592"
         y="18.865444"
         style="font-style:normal;font-variant:normal;font-weight:normal;font-stretch:normal;font-size:4.23333px;font-family:Oswald;-inkscape-font-specification:'Oswald, Normal';font-variant-ligatures:normal;font-variant-caps:normal;font-variant-numeric:normal;font-variant-east-asian:normal;fill:#f9f9f9;fill-opacity:1;stroke-width:0.264583">Start</tspan></text>
    <text
       xml:space="preserve"
       style="font-style:normal;font-variant:normal;font-weight:normal;font-stretch:normal;font-size:4.23333px;line-height:1.25;font-family:'Open Sans Condensed Light';-inkscape-font-specification:'Open Sans Condensed Light, ';display:inline;fill:#f9f9f9;fill-opacity:1;stroke-width:0.264583"
       x="6.5365672"
       y="33.869579"
       id="text125"><tspan
         sodipodi:role="line"
         id="tspan123"
         x="6.5365672"
         y="33.869579"
         style="font-style:normal;font-variant:normal;font-weight:normal;font-stretch:normal;font-size:4.23333px;font-family:Oswald;-inkscape-font-specification:'Oswald, Normal';font-variant-ligatures:normal;font-variant-caps:normal;font-variant-numeric:normal;font-variant-east-asian:normal;fill:#f9f9f9;fill-opacity:1;stroke-width:0.264583">Cont</tspan></text>
    <text
       xml:space="preserve"
       style="font-size:4.23333px;line-height:1.25;font-family:'Roboto Mono for Powerline';-inkscape-font-specification:'Roboto Mono for Powerline, Normal';display:inline;fill:#f9f9f9;fill-opacity:1;stroke-width:0.264583"
       x="1.8360134"
       y="9.0811777"
       id="text937"><tspan
         sodipodi:role="line"
         id="tspan935"
         x="1.8360134"
         y="9.0811777"
         style="font-style:normal;font-variant:normal;font-weight:normal;font-stretch:normal;font-size:4.93889px;font-family:'Open Sans Condensed';-inkscape-font-specification:'Open Sans Condensed, Normal';font-variant-ligatures:normal;font-variant-caps:normal;font-variant-numeric:normal;font-variant-east-asian:normal;fill:#f9f9f9;fill-opacity:1;stroke-width:0.264583">SEQTROL</tspan></text>
    <text
       xml:space="preserve"
       style="font-size:4.2333px;line-height:1.25;font-family:'Roboto Mono for Powerline';-inkscape-font-specification:'Roboto Mono for Powerline, Normal';fill:#f9f9f9;fill-opacity:1;stroke-width:0.264582"
       x="5.752409"
       y="77.621925"
       id="text962"><tspan
         sodipodi:role="line"
         id="tspan960"
         x="5.752409"
         y="77.621925"
         style="font-style:normal;font-variant:normal;font-weight:normal;font-stretch:normal;font-size:4.23333px;font-family:Oswald;-inkscape-font-specification:'Oswald, Normal';font-variant-ligatures:normal;font-variant-caps:normal;font-variant-numeric:normal;font-variant-east-asian:normal;fill:#f9f9f9;fill-opacity:1;stroke-width:0.264582">Reset</tspan></text>
    <text
       xml:space="preserve"
       style="font-size:4.2333px;line-height:1.25;font-family:'Roboto Mono for Powerline';-inkscape-font-specification:'Roboto Mono for Powerline, Normal';display:inline;fill:#f9f9f9;fill-opacity:1;stroke-width:0.264582"
       x="5.8016214"
       y="95.616318"
       id="text962-0"><tspan
         sodipodi:role="line"
         id="tspan960-0"
         x="5.8016214"
         y="95.616318"
         style="font-style:normal;font-variant:normal;font-weight:normal;font-stretch:normal;font-size:4.23333px;font-family:Oswald;-inkscape-font-specification:'Oswald, Normal';font-variant-ligatures:normal;font-variant-caps:normal;font-variant-numeric:normal;font-variant-east-asian:normal;fill:#f9f9f9;fill-opacity:1;stroke-width:0.264582">Clock</tspan></text>
  </g>
  <g
     inkscape:groupmode="layer"
     id="layer2"
     inkscape:label="components"
     style="display:none">
    <circle
       style="opacity:1;fill:#00ff00;fill-opacity:0.501961;stroke:none;stroke-width:0.132291"
       id="path1774"
       cx="10.16"
       cy="24"
       r="4"
       inkscape:label="START_TRIGGER_INPUT" />
    <circle
       style="display:inline;opacity:1;fill:#00ff00;fill-opacity:0.501961;stroke:none;stroke-width:0.132291"
       id="path1774-9"
       cx="10.16"
       cy="54"
       r="4"
       inkscape:label="STOP_TRIGGER_INPUT" />
    <circle
       style="display:inline;opacity:1;fill:#00ff00;fill-opacity:0.501961;stroke:none;stroke-width:0.132291"
       id="path1774-1"
       cx="10.16"
       cy="39"
       r="4"
       inkscape:label="CONTINUE_TRIGGER_INPUT" />
    <circle
       style="display:inline;opacity:1;fill:#0000ff;fill-opacity:0.501961;stroke:none;stroke-width:0.132291"
       id="path1774-4-4"
       cx="10.16"
       cy="84"
       r="4"
       inkscape:label="RESET_OUTPUT" />
    <circle
       style="display:inline;opacity:1;fill:#ff00ff;fill-opacity:0.5;stroke:none;stroke-width:0.132291"
       id="path1774-1-4"
       cx="4"
       cy="31.5"
       r="4"
       inkscape:label="LIGHT_1" />
    <circle
       style="display:inline;opacity:1;fill:#00ff00;fill-opacity:0.501961;stroke:none;stroke-width:0.132291"
       id="path1774-1-6"
       cx="10.16"
       cy="69"
       r="4"
       inkscape:label="CLOCK_INPUT" />
    <circle
       style="display:inline;opacity:1;fill:#0000ff;fill-opacity:0.501961;stroke:none;stroke-width:0.132291"
       id="path1774-4-4-1"
       cx="10.16"
       cy="102"
       r="4"
       inkscape:label="CLOCK_OUTPUT" />
  </g>
</svg>
