<?xml version="1.0" encoding="UTF-8" standalone="no"?>
<!-- Created with Inkscape (http://www.inkscape.org/) -->

<svg
   xmlns:dc="http://purl.org/dc/elements/1.1/"
   xmlns:cc="http://creativecommons.org/ns#"
   xmlns:rdf="http://www.w3.org/1999/02/22-rdf-syntax-ns#"
   xmlns:svg="http://www.w3.org/2000/svg"
   xmlns="http://www.w3.org/2000/svg"
   xmlns:sodipodi="http://sodipodi.sourceforge.net/DTD/sodipodi-0.dtd"
   xmlns:inkscape="http://www.inkscape.org/namespaces/inkscape"
   width="555"
   height="380"
   viewBox="0 0 146.84375 100.54166"
   version="1.1"
   id="svg12553"
   inkscape:version="0.92.2 5c3e80d, 2017-08-06"
   sodipodi:docname="Stable16.svg">
  <defs
     id="defs12547" />
  <sodipodi:namedview
     id="base"
     pagecolor="#ffffff"
     bordercolor="#666666"
     borderopacity="1.0"
     inkscape:pageopacity="0.0"
     inkscape:pageshadow="2"
     inkscape:zoom="1.61"
     inkscape:cx="277.5"
     inkscape:cy="190"
     inkscape:document-units="px"
     inkscape:current-layer="layer1"
     showgrid="true"
     fit-margin-top="0"
     fit-margin-left="0"
     fit-margin-right="0"
     fit-margin-bottom="0"
     units="px"
     inkscape:window-width="1440"
     inkscape:window-height="856"
     inkscape:window-x="0"
     inkscape:window-y="0"
     inkscape:window-maximized="0"
     gridtolerance="7"
     showguides="true"
     inkscape:guide-bbox="true"
     objecttolerance="30"
     inkscape:measure-start="0,0"
     inkscape:measure-end="0,0">
    <inkscape:grid
       type="xygrid"
       id="grid12870"
       originx="0"
       originy="0"
       snapvisiblegridlinesonly="true"
       spacingx="3.9687499"
       spacingy="3.9687499"
       enabled="false" />
    <sodipodi:guide
       position="5.2916665,72.865338"
       orientation="1,0"
       id="guide979"
       inkscape:locked="false"
       inkscape:label=""
       inkscape:color="rgb(0,0,255)" />
    <sodipodi:guide
       position="10.583333,60.854091"
       orientation="1,0"
       id="guide981"
       inkscape:locked="false"
       inkscape:label=""
       inkscape:color="rgb(0,0,255)" />
    <sodipodi:guide
       position="15.874999,62.302411"
       orientation="1,0"
       id="guide983"
       inkscape:locked="false"
       inkscape:label=""
       inkscape:color="rgb(0,0,255)" />
    <sodipodi:guide
       position="21.166666,56.134456"
       orientation="1,0"
       id="guide985"
       inkscape:locked="false"
       inkscape:label=""
       inkscape:color="rgb(0,0,255)" />
    <sodipodi:guide
       position="26.458332,53.945368"
       orientation="1,0"
       id="guide987"
       inkscape:locked="false"
       inkscape:label=""
       inkscape:color="rgb(0,0,255)" />
    <sodipodi:guide
       position="31.749999,51.130828"
       orientation="1,0"
       id="guide989"
       inkscape:locked="false"
       inkscape:label=""
       inkscape:color="rgb(0,0,255)" />
    <sodipodi:guide
       position="37.041665,53.163552"
       orientation="1,0"
       id="guide991"
       inkscape:locked="false"
       inkscape:label=""
       inkscape:color="rgb(0,0,255)" />
    <sodipodi:guide
       position="42.333332,61.350001"
       orientation="1,0"
       id="guide993"
       inkscape:locked="false"
       inkscape:label=""
       inkscape:color="rgb(0,0,255)" />
    <sodipodi:guide
       position="47.624998,74.428972"
       orientation="1,0"
       id="guide995"
       inkscape:locked="false"
       inkscape:label=""
       inkscape:color="rgb(0,0,255)" />
    <sodipodi:guide
       position="89.722099,89.403182"
       orientation="0,1"
       id="guide997"
       inkscape:locked="false" />
    <sodipodi:guide
       position="52.916665,61.450811"
       orientation="1,0"
       id="guide999"
       inkscape:locked="false"
       inkscape:label=""
       inkscape:color="rgb(0,0,255)" />
    <sodipodi:guide
       position="58.208331,52.225371"
       orientation="1,0"
       id="guide1001"
       inkscape:locked="false"
       inkscape:label=""
       inkscape:color="rgb(0,0,255)" />
    <sodipodi:guide
       position="63.499998,55.352639"
       orientation="1,0"
       id="guide1003"
       inkscape:locked="false"
       inkscape:label=""
       inkscape:color="rgb(0,0,255)" />
    <sodipodi:guide
       position="68.791664,60.825358"
       orientation="1,0"
       id="guide1005"
       inkscape:locked="false"
       inkscape:label=""
       inkscape:color="rgb(0,0,255)" />
    <sodipodi:guide
       position="74.083331,56.916273"
       orientation="1,0"
       id="guide1007"
       inkscape:locked="false"
       inkscape:label=""
       inkscape:color="rgb(0,0,255)" />
    <sodipodi:guide
       position="79.374997,49.098104"
       orientation="1,0"
       id="guide1009"
       inkscape:locked="false"
       inkscape:label=""
       inkscape:color="rgb(0,0,255)" />
    <sodipodi:guide
       position="84.666664,69.425344"
       orientation="1,0"
       id="guide1011"
       inkscape:locked="false"
       inkscape:label=""
       inkscape:color="rgb(0,0,255)" />
    <sodipodi:guide
       position="98.424997,62.441663"
       orientation="1,0"
       id="guide939"
       inkscape:locked="false"
       inkscape:label=""
       inkscape:color="rgb(0,0,255)" />
    <sodipodi:guide
       position="109.00833,82.814578"
       orientation="1,0"
       id="guide941"
       inkscape:locked="false"
       inkscape:label=""
       inkscape:color="rgb(0,0,255)" />
    <sodipodi:guide
       position="119.59166,65.352079"
       orientation="1,0"
       id="guide943"
       inkscape:locked="false"
       inkscape:label=""
       inkscape:color="rgb(0,0,255)" />
    <sodipodi:guide
       position="130.175,106.89166"
       orientation="1,0"
       id="guide933"
       inkscape:locked="false"
       inkscape:label=""
       inkscape:color="rgb(0,0,255)" />
  </sodipodi:namedview>
  <metadata
     id="metadata12550">
    <rdf:RDF>
      <cc:Work
         rdf:about="">
        <dc:format>image/svg+xml</dc:format>
        <dc:type
           rdf:resource="http://purl.org/dc/dcmitype/StillImage" />
        <dc:title />
      </cc:Work>
    </rdf:RDF>
  </metadata>
  <g
     inkscape:label="Layer 1"
     inkscape:groupmode="layer"
     id="layer1"
     transform="translate(-26.543497,-161.30655)">
    <path
       inkscape:connector-curvature="0"
       id="path33453"
       d="M 26.543497,161.30655 H 173.38724 V 261.84821 H 26.543497 Z m 0,0"
       style="fill:#e2e9ed;fill-opacity:0.99607843;fill-rule:nonzero;stroke:none;stroke-width:0.35825059" />
    <rect
       style="opacity:1;fill:#445271;fill-opacity:1;stroke:#445271;stroke-width:0.37070268;stroke-linecap:round;stroke-linejoin:round;stroke-miterlimit:4;stroke-dasharray:none;stroke-opacity:1"
       id="rect5334"
       width="9.1542969"
       height="9.1542969"
       x="120.39135"
       y="173.66273"
       rx="0.98081774"
       ry="0.98081756" />
    <rect
       ry="0.98081744"
       rx="0.98081768"
       y="184.24606"
       x="120.39135"
       height="9.1542969"
       width="9.1542969"
       id="rect5354"
       style="opacity:1;fill:#445271;fill-opacity:1;stroke:#445271;stroke-width:0.37070271;stroke-linecap:round;stroke-linejoin:round;stroke-miterlimit:4;stroke-dasharray:none;stroke-opacity:1" />
    <rect
       ry="0.98081744"
       rx="0.98081768"
       y="194.82941"
       x="120.39134"
       height="9.1542969"
       width="9.1542969"
       id="rect5356"
       style="opacity:1;fill:#445271;fill-opacity:1;stroke:#445271;stroke-width:0.37070271;stroke-linecap:round;stroke-linejoin:round;stroke-miterlimit:4;stroke-dasharray:none;stroke-opacity:1" />
    <path
       style="fill:none;fill-rule:evenodd;stroke:#445271;stroke-width:0.18547291;stroke-linecap:butt;stroke-linejoin:miter;stroke-miterlimit:4;stroke-dasharray:none;stroke-opacity:1"
       d="M 31.835162,178.14854 H 121.79349"
       id="path5380"
       inkscape:connector-curvature="0" />
    <path
       inkscape:connector-curvature="0"
       id="path5382"
       d="M 31.835162,188.73048 H 121.79349"
       style="fill:none;fill-rule:evenodd;stroke:#445271;stroke-width:0.18547291;stroke-linecap:butt;stroke-linejoin:miter;stroke-miterlimit:4;stroke-dasharray:none;stroke-opacity:1" />
    <path
       style="fill:none;fill-rule:evenodd;stroke:#445271;stroke-width:0.18547291;stroke-linecap:butt;stroke-linejoin:miter;stroke-miterlimit:4;stroke-dasharray:none;stroke-opacity:1"
       d="M 31.835162,199.31243 H 121.79349"
       id="path5384"
       inkscape:connector-curvature="0" />
    <g
       aria-label="1"
       transform="matrix(1.0000769,0,0,0.9999231,-2.7489108,-28.575003)"
       style="font-style:normal;font-variant:normal;font-weight:bold;font-stretch:normal;font-size:2.82243919px;line-height:125%;font-family:'DIN Alternate';-inkscape-font-specification:'DIN Alternate, Bold';font-variant-ligatures:normal;font-variant-caps:normal;font-variant-numeric:normal;font-feature-settings:normal;text-align:start;letter-spacing:0px;word-spacing:0px;writing-mode:lr-tb;text-anchor:start;fill:#000000;fill-opacity:1;stroke:none;stroke-width:0.26460367px;stroke-linecap:butt;stroke-linejoin:miter;stroke-opacity:1"
       id="text5432">
      <path
         d="m 34.316852,199.51422 v 0 -0.30595 l 0.285275,-0.2081 h 0.288032 v 2.00934 h -0.288032 v -1.70477 z"
         style="font-style:normal;font-variant:normal;font-weight:bold;font-stretch:normal;font-size:2.82243919px;font-family:'DIN Alternate';-inkscape-font-specification:'DIN Alternate, Bold';font-variant-ligatures:normal;font-variant-caps:normal;font-variant-numeric:normal;font-feature-settings:normal;text-align:start;writing-mode:lr-tb;text-anchor:start;stroke-width:0.26460367px"
         id="path5623"
         inkscape:connector-curvature="0" />
    </g>
    <g
       aria-label="2"
       style="font-style:normal;font-variant:normal;font-weight:bold;font-stretch:normal;font-size:2.82222223px;line-height:125%;font-family:'DIN Alternate';-inkscape-font-specification:'DIN Alternate, Bold';font-variant-ligatures:normal;font-variant-caps:normal;font-variant-numeric:normal;font-feature-settings:normal;text-align:start;letter-spacing:0px;word-spacing:0px;writing-mode:lr-tb;text-anchor:start;fill:#000000;fill-opacity:1;stroke:none;stroke-width:0.26458332px;stroke-linecap:butt;stroke-linejoin:miter;stroke-opacity:1"
       id="text5436"
       transform="translate(-7.5521977,-28.57507)">
      <path
         d="m 44.149861,200.72258 0.784104,-0.98117 q 0.04547,-0.0592 0.06201,-0.11024 0.01103,-0.0482 0.01103,-0.0909 0,-0.113 -0.07028,-0.19706 -0.07304,-0.0841 -0.206706,-0.0868 -0.118511,0 -0.197059,0.0758 -0.08131,0.0758 -0.09646,0.21359 h -0.286632 q 0.01102,-0.2508 0.168121,-0.41479 0.158474,-0.15985 0.389984,-0.16261 0.259072,0.003 0.420302,0.16537 0.163987,0.16123 0.166743,0.40927 0,0.19844 -0.121268,0.35278 l -0.6463,0.81029 h 0.767568 v 0.28801 h -1.14515 z"
         style="font-style:normal;font-variant:normal;font-weight:bold;font-stretch:normal;font-size:2.82222223px;font-family:'DIN Alternate';-inkscape-font-specification:'DIN Alternate, Bold';font-variant-ligatures:normal;font-variant-caps:normal;font-variant-numeric:normal;font-feature-settings:normal;text-align:start;writing-mode:lr-tb;text-anchor:start;stroke-width:0.26458332px"
         id="path5620"
         inkscape:connector-curvature="0" />
    </g>
    <g
       aria-label="3"
       style="font-style:normal;font-variant:normal;font-weight:bold;font-stretch:normal;font-size:2.82222223px;line-height:125%;font-family:'DIN Alternate';-inkscape-font-specification:'DIN Alternate, Bold';font-variant-ligatures:normal;font-variant-caps:normal;font-variant-numeric:normal;font-feature-settings:normal;text-align:start;letter-spacing:0px;word-spacing:0px;writing-mode:lr-tb;text-anchor:start;fill:#000000;fill-opacity:1;stroke:none;stroke-width:0.26458332px;stroke-linecap:butt;stroke-linejoin:miter;stroke-opacity:1"
       id="text5440"
       transform="translate(-12.525536,-28.6015)">
      <path
         d="m 54.873756,199.8409 h 0.09922 q 0.14745,0 0.228755,-0.0813 0.0813,-0.0786 0.0813,-0.20395 -0.0028,-0.12678 -0.08406,-0.20808 -0.0813,-0.0785 -0.209461,-0.0813 -0.09233,0 -0.168121,0.0593 -0.07993,0.0592 -0.107487,0.18328 h -0.28801 q 0.02205,-0.22325 0.180523,-0.37621 0.155718,-0.15158 0.37207,-0.15434 0.27423,0.003 0.43546,0.17501 0.154341,0.16812 0.157097,0.39688 0,0.11575 -0.04134,0.22324 -0.04823,0.10749 -0.172255,0.19155 0.126779,0.0827 0.183279,0.19843 0.05374,0.11576 0.05374,0.24254 -0.0028,0.2825 -0.17501,0.44511 -0.169499,0.16674 -0.435461,0.16949 -0.205327,0 -0.363802,-0.13229 -0.158474,-0.13229 -0.205327,-0.38309 h 0.28801 q 0.03858,0.10059 0.108865,0.16261 0.07166,0.0648 0.190169,0.0648 0.126779,0 0.213596,-0.0868 0.08819,-0.0813 0.09095,-0.23151 -0.0028,-0.15297 -0.09095,-0.23703 -0.08682,-0.0813 -0.220486,-0.0813 h -0.121268 z"
         style="font-style:normal;font-variant:normal;font-weight:bold;font-stretch:normal;font-size:2.82222223px;font-family:'DIN Alternate';-inkscape-font-specification:'DIN Alternate, Bold';font-variant-ligatures:normal;font-variant-caps:normal;font-variant-numeric:normal;font-feature-settings:normal;text-align:start;writing-mode:lr-tb;text-anchor:start;stroke-width:0.26458332px"
         id="path5617"
         inkscape:connector-curvature="0" />
    </g>
    <g
       aria-label="4"
       style="font-style:normal;font-variant:normal;font-weight:bold;font-stretch:normal;font-size:2.82222223px;line-height:125%;font-family:'DIN Alternate';-inkscape-font-specification:'DIN Alternate, Bold';font-variant-ligatures:normal;font-variant-caps:normal;font-variant-numeric:normal;font-feature-settings:normal;text-align:start;letter-spacing:0px;word-spacing:0px;writing-mode:lr-tb;text-anchor:start;fill:#000000;fill-opacity:1;stroke:none;stroke-width:0.26458332px;stroke-linecap:butt;stroke-linejoin:miter;stroke-opacity:1"
       id="text5444"
       transform="translate(-17.179451,-28.575)">
      <path
         d="m 64.360447,200.42354 0.671105,-1.43867 h 0.321083 l -0.679373,1.43867 h 0.525033 v -0.5774 h 0.28801 v 0.5774 h 0.159852 v 0.27147 h -0.159852 v 0.29904 h -0.28801 v -0.29904 h -0.837848 z"
         style="font-style:normal;font-variant:normal;font-weight:bold;font-stretch:normal;font-size:2.82222223px;font-family:'DIN Alternate';-inkscape-font-specification:'DIN Alternate, Bold';font-variant-ligatures:normal;font-variant-caps:normal;font-variant-numeric:normal;font-feature-settings:normal;text-align:start;writing-mode:lr-tb;text-anchor:start;stroke-width:0.26458332px"
         id="path5614"
         inkscape:connector-curvature="0" />
    </g>
    <g
       aria-label="5"
       style="font-style:normal;font-variant:normal;font-weight:bold;font-stretch:normal;font-size:2.82222223px;line-height:125%;font-family:'DIN Alternate';-inkscape-font-specification:'DIN Alternate, Bold';font-variant-ligatures:normal;font-variant-caps:normal;font-variant-numeric:normal;font-feature-settings:normal;text-align:start;letter-spacing:0px;word-spacing:0px;writing-mode:lr-tb;text-anchor:start;fill:#000000;fill-opacity:1;stroke:none;stroke-width:0.26458332px;stroke-linecap:butt;stroke-linejoin:miter;stroke-opacity:1"
       id="text5448"
       transform="translate(-22.329764,-28.60143)">
      <path
         d="m 74.838222,198.99479 h 1.070736 v 0.28801 h -0.799262 v 0.45475 0 q 0.14056,-0.11024 0.321083,-0.11024 0.115755,0.003 0.212218,0.0413 0.09095,0.0427 0.14745,0.10473 0.08406,0.0827 0.121267,0.19155 0.01929,0.0592 0.02756,0.14469 0.0083,0.0868 0.0083,0.2136 0,0.19568 -0.02756,0.30041 -0.02894,0.10335 -0.09646,0.18328 -0.05926,0.0786 -0.172255,0.14331 -0.110243,0.0675 -0.261827,0.0703 -0.20395,0 -0.373449,-0.12126 -0.172255,-0.12403 -0.213596,-0.40101 h 0.28801 q 0.04685,0.23151 0.28801,0.23426 0.103353,0 0.165365,-0.0413 0.05925,-0.04 0.08268,-0.10473 0.02481,-0.0648 0.03032,-0.14056 0.0028,-0.0744 0.0028,-0.14469 0.0028,-0.17226 -0.05374,-0.27974 -0.03032,-0.051 -0.08957,-0.0813 -0.05926,-0.0248 -0.14745,-0.0248 -0.07855,0 -0.143316,0.0358 -0.06477,0.0372 -0.115755,0.12953 h -0.271474 z"
         style="font-style:normal;font-variant:normal;font-weight:bold;font-stretch:normal;font-size:2.82222223px;font-family:'DIN Alternate';-inkscape-font-specification:'DIN Alternate, Bold';font-variant-ligatures:normal;font-variant-caps:normal;font-variant-numeric:normal;font-feature-settings:normal;text-align:start;writing-mode:lr-tb;text-anchor:start;stroke-width:0.26458332px"
         id="path5611"
         inkscape:connector-curvature="0" />
    </g>
    <g
       aria-label="6"
       style="font-style:normal;font-variant:normal;font-weight:bold;font-stretch:normal;font-size:2.82222223px;line-height:125%;font-family:'DIN Alternate';-inkscape-font-specification:'DIN Alternate, Bold';font-variant-ligatures:normal;font-variant-caps:normal;font-variant-numeric:normal;font-feature-settings:normal;text-align:start;letter-spacing:0px;word-spacing:0px;writing-mode:lr-tb;text-anchor:start;fill:#000000;fill-opacity:1;stroke:none;stroke-width:0.26458332px;stroke-linecap:butt;stroke-linejoin:miter;stroke-opacity:1"
       id="text5452"
       transform="translate(-27.145686,-28.601193)">
      <path
         d="m 85.85205,198.97235 q 0.0014,0 -0.01378,0.0303 -0.01378,0.0289 -0.03859,0.0799 -0.0248,0.051 -0.05788,0.11713 -0.03307,0.0661 -0.07028,0.13919 -0.03583,0.073 -0.07441,0.14745 -0.03721,0.0744 -0.07304,0.14193 -0.03445,0.0675 -0.06339,0.12265 -0.02894,0.0551 -0.04823,0.0882 0.03996,-0.0234 0.08957,-0.0276 0.05099,-0.006 0.117133,-0.003 0.09508,0.003 0.165365,0.0331 0.07166,0.0303 0.122645,0.0758 0.05099,0.0455 0.08406,0.10198 0.03445,0.0551 0.05374,0.10886 0.01929,0.0524 0.02618,0.0992 0.0083,0.0455 0.0083,0.0717 0,0.008 0,0.0303 0,0.0221 0,0.0496 0,0.0262 -0.0014,0.0537 0,0.0276 -0.0014,0.0469 -0.0014,0.01 -0.0096,0.051 -0.0069,0.04 -0.02756,0.0965 -0.01929,0.0551 -0.0565,0.11989 -0.03721,0.0634 -0.09784,0.12127 -0.06063,0.0565 -0.14745,0.0978 -0.08682,0.0413 -0.206706,0.051 -0.125401,0.011 -0.221864,-0.0165 -0.09646,-0.0276 -0.166743,-0.0786 -0.07028,-0.051 -0.117133,-0.11713 -0.04685,-0.0675 -0.07441,-0.13781 -0.02618,-0.0703 -0.03583,-0.13504 -0.0083,-0.0648 -0.0028,-0.11025 0.0083,-0.0675 0.01791,-0.11989 0.0096,-0.0537 0.02205,-0.10197 0.01378,-0.0482 0.03032,-0.0951 0.01654,-0.0468 0.03858,-0.10197 0.0055,-0.0138 0.03032,-0.0648 0.0248,-0.0524 0.06063,-0.12816 0.03721,-0.0758 0.08268,-0.16674 0.04547,-0.0909 0.09095,-0.18466 0.107487,-0.21773 0.241157,-0.48644 z m -0.05788,1.47036 q 0,-0.0524 -0.0041,-0.11575 -0.0041,-0.0634 -0.03169,-0.11989 -0.02618,-0.0579 -0.08682,-0.0992 -0.06063,-0.0413 -0.172255,-0.0496 -0.05237,-0.004 -0.09508,0.011 -0.04272,0.0152 -0.07579,0.0413 -0.03307,0.0262 -0.05788,0.0606 -0.02343,0.0331 -0.03996,0.0661 -0.01516,0.0331 -0.02205,0.062 -0.0069,0.0276 -0.0069,0.0427 0,0.0344 0.0014,0.0772 0.0014,0.0413 0.0083,0.0841 0.0083,0.0413 0.02618,0.0813 0.01791,0.0386 0.05099,0.0689 0.03307,0.0303 0.08406,0.0496 0.05236,0.0193 0.129535,0.0193 0.06201,10e-4 0.107487,-0.0152 0.04685,-0.0179 0.07855,-0.0441 0.03307,-0.0276 0.05374,-0.0606 0.02067,-0.0331 0.03169,-0.0648 0.0124,-0.0317 0.01654,-0.0565 0.0041,-0.0262 0.0041,-0.0386 z"
         style="font-style:normal;font-variant:normal;font-weight:bold;font-stretch:normal;font-size:2.82222223px;font-family:'DIN Alternate';-inkscape-font-specification:'DIN Alternate, Bold';font-variant-ligatures:normal;font-variant-caps:normal;font-variant-numeric:normal;font-feature-settings:normal;text-align:start;writing-mode:lr-tb;text-anchor:start;stroke-width:0.26458332px"
         id="path5608"
         inkscape:connector-curvature="0" />
    </g>
    <g
       aria-label="7"
       style="font-style:normal;font-variant:normal;font-weight:bold;font-stretch:normal;font-size:2.82222223px;line-height:125%;font-family:'DIN Alternate';-inkscape-font-specification:'DIN Alternate, Bold';font-variant-ligatures:normal;font-variant-caps:normal;font-variant-numeric:normal;font-feature-settings:normal;text-align:start;letter-spacing:0px;word-spacing:0px;writing-mode:lr-tb;text-anchor:start;fill:#000000;fill-opacity:1;stroke:none;stroke-width:0.26458332px;stroke-linecap:butt;stroke-linejoin:miter;stroke-opacity:1"
       id="text5456"
       transform="translate(-32.052065,-28.575)">
      <path
         d="m 95.108061,198.98487 h 1.143771 v 0.28801 l -0.680751,1.72117 h -0.321083 l 0.679373,-1.72117 h -0.5333 v 0.29077 h -0.28801 z"
         style="font-style:normal;font-variant:normal;font-weight:bold;font-stretch:normal;font-size:2.82222223px;font-family:'DIN Alternate';-inkscape-font-specification:'DIN Alternate, Bold';font-variant-ligatures:normal;font-variant-caps:normal;font-variant-numeric:normal;font-feature-settings:normal;text-align:start;writing-mode:lr-tb;text-anchor:start;stroke-width:0.26458332px"
         id="path5605"
         inkscape:connector-curvature="0" />
    </g>
    <g
       aria-label="8"
       style="font-style:normal;font-variant:normal;font-weight:bold;font-stretch:normal;font-size:2.82222223px;line-height:125%;font-family:'DIN Alternate';-inkscape-font-specification:'DIN Alternate, Bold';font-variant-ligatures:normal;font-variant-caps:normal;font-variant-numeric:normal;font-feature-settings:normal;text-align:start;letter-spacing:0px;word-spacing:0px;writing-mode:lr-tb;text-anchor:start;fill:#000000;fill-opacity:1;stroke:none;stroke-width:0.26458332px;stroke-linecap:butt;stroke-linejoin:miter;stroke-opacity:1"
       id="text5460"
       transform="matrix(0.99995983,0,0,1,-36.89054,-28.60145)">
      <path
         d="m 105.56764,199.55289 q 0.003,0.13918 0.0896,0.21222 0.0854,0.0758 0.19705,0.0758 0.11576,0 0.2012,-0.0758 0.0841,-0.073 0.0868,-0.21222 -0.003,-0.14331 -0.0868,-0.21635 -0.0854,-0.0703 -0.2012,-0.0703 -0.11162,0 -0.19705,0.0703 -0.0868,0.073 -0.0896,0.21635 z m -0.32521,0.86403 q 0.003,-0.29076 0.23702,-0.45199 -0.0896,-0.0786 -0.14056,-0.18053 -0.0593,-0.0951 -0.0593,-0.22599 0.003,-0.25081 0.1695,-0.41479 0.1571,-0.16261 0.40514,-0.16537 0.25219,0.003 0.41204,0.16537 0.16123,0.16398 0.16398,0.41479 0,0.13091 -0.0537,0.22599 -0.0565,0.10198 -0.14607,0.18053 0.23427,0.16123 0.23702,0.45199 -0.003,0.27148 -0.17777,0.43409 -0.17776,0.16674 -0.43546,0.16949 -0.25631,-0.003 -0.42857,-0.16949 -0.18052,-0.16261 -0.18327,-0.43409 z m 0.28801,-0.003 q 0.003,0.1378 0.0992,0.226 0.0923,0.0923 0.22462,0.0923 0.13643,0 0.22876,-0.0923 0.0937,-0.0882 0.0965,-0.226 -0.003,-0.14056 -0.0965,-0.22876 -0.0923,-0.0868 -0.22876,-0.0896 -0.13229,0.003 -0.22462,0.0896 -0.0965,0.0882 -0.0992,0.22876 z"
         style="font-style:normal;font-variant:normal;font-weight:bold;font-stretch:normal;font-size:2.82222223px;font-family:'DIN Alternate';-inkscape-font-specification:'DIN Alternate, Bold';font-variant-ligatures:normal;font-variant-caps:normal;font-variant-numeric:normal;font-feature-settings:normal;text-align:start;writing-mode:lr-tb;text-anchor:start;stroke-width:0.26458332px"
         id="path5602"
         inkscape:connector-curvature="0" />
    </g>
    <g
       aria-label="GoSh"
       style="font-style:normal;font-variant:normal;font-weight:bold;font-stretch:condensed;font-size:5.64444447px;line-height:125%;font-family:'DIN Condensed';-inkscape-font-specification:'DIN Condensed, Bold Condensed';font-variant-ligatures:normal;font-variant-caps:normal;font-variant-numeric:normal;font-feature-settings:normal;text-align:start;letter-spacing:0px;word-spacing:0px;writing-mode:lr-tb;text-anchor:start;fill:#000000;fill-opacity:1;stroke:none;stroke-width:0.26458332px;stroke-linecap:butt;stroke-linejoin:miter;stroke-opacity:1"
       id="text5468">
      <path
         d="m 75.939833,256.82823 q 0,-0.24272 0.08467,-0.42898 0.08467,-0.18627 0.225778,-0.31045 0.135466,-0.11853 0.3048,-0.18062 0.174977,-0.0621 0.349955,-0.0621 0.174978,0 0.344311,0.0621 0.174978,0.0621 0.316089,0.18062 0.135467,0.12418 0.220133,0.31045 0.08467,0.18626 0.08467,0.42898 v 0.2032 H 77.2945 v -0.2032 q 0,-0.20885 -0.118534,-0.3048 -0.112888,-0.1016 -0.270933,-0.1016 -0.158044,0 -0.276578,0.1016 -0.112889,0.0959 -0.112889,0.3048 v 2.12231 q 0,0.20884 0.112889,0.31044 0.118534,0.096 0.276578,0.096 0.158045,0 0.270933,-0.096 0.118534,-0.1016 0.118534,-0.31044 v -0.75636 h -0.4572 v -0.508 h 1.032933 v 1.26436 q 0,0.254 -0.08467,0.43462 -0.08467,0.18062 -0.220133,0.29915 -0.141111,0.12418 -0.316089,0.18627 -0.169333,0.0621 -0.344311,0.0621 -0.174978,0 -0.349955,-0.0621 -0.169334,-0.0621 -0.3048,-0.18627 -0.141112,-0.11853 -0.225778,-0.29915 -0.08467,-0.18062 -0.08467,-0.43462 z"
         style="font-style:normal;font-variant:normal;font-weight:bold;font-stretch:condensed;font-size:5.64444447px;font-family:'DIN Condensed';-inkscape-font-specification:'DIN Condensed, Bold Condensed';font-variant-ligatures:normal;font-variant-caps:normal;font-variant-numeric:normal;font-feature-settings:normal;text-align:start;writing-mode:lr-tb;text-anchor:start;stroke-width:0.26458332px"
         id="path5626"
         inkscape:connector-curvature="0" />
      <path
         d="m 78.292332,257.99663 q 0,-0.17498 0.02258,-0.32174 0.02258,-0.14675 0.08467,-0.25964 0.1016,-0.18627 0.287867,-0.29916 0.191911,-0.11289 0.462844,-0.11289 0.270934,0 0.4572,0.11289 0.191911,0.11289 0.293511,0.29916 0.06209,0.11289 0.08467,0.25964 0.02258,0.14676 0.02258,0.32174 v 0.94262 q 0,0.17498 -0.02258,0.32173 -0.02258,0.14676 -0.08467,0.25965 -0.1016,0.18626 -0.293511,0.29915 -0.186266,0.11289 -0.4572,0.11289 -0.270933,0 -0.462844,-0.11289 -0.186267,-0.11289 -0.287867,-0.29915 -0.06209,-0.11289 -0.08467,-0.25965 -0.02258,-0.14675 -0.02258,-0.32173 z m 0.575733,1.03293 q 0,0.16369 0.07338,0.24835 0.07902,0.079 0.208844,0.079 0.129822,0 0.2032,-0.079 0.07902,-0.0847 0.07902,-0.24835 v -1.12325 q 0,-0.16368 -0.07902,-0.24271 -0.07338,-0.0847 -0.2032,-0.0847 -0.129822,0 -0.208844,0.0847 -0.07338,0.079 -0.07338,0.24271 z"
         style="font-style:normal;font-variant:normal;font-weight:bold;font-stretch:condensed;font-size:5.64444447px;font-family:'DIN Condensed';-inkscape-font-specification:'DIN Condensed, Bold Condensed';font-variant-ligatures:normal;font-variant-caps:normal;font-variant-numeric:normal;font-feature-settings:normal;text-align:start;writing-mode:lr-tb;text-anchor:start;stroke-width:0.26458332px"
         id="path5628"
         inkscape:connector-curvature="0" />
      <path
         d="m 82.323259,257.03707 h -0.575733 v -0.12982 q 0,-0.19756 -0.09596,-0.33867 -0.09031,-0.14675 -0.310444,-0.14675 -0.118534,0 -0.191911,0.0451 -0.07338,0.0452 -0.118534,0.11289 -0.04516,0.0734 -0.06209,0.16933 -0.01693,0.0903 -0.01693,0.19191 0,0.11854 0.0056,0.19756 0.01129,0.079 0.04516,0.14111 0.03387,0.0621 0.09596,0.10725 0.06773,0.0452 0.180622,0.0903 l 0.440267,0.17497 q 0.191911,0.0734 0.310444,0.17498 0.118533,0.096 0.186267,0.22578 0.06209,0.13547 0.08467,0.31044 0.02258,0.16934 0.02258,0.38947 0,0.254 -0.0508,0.47413 -0.0508,0.21449 -0.163689,0.36689 -0.118533,0.15805 -0.310444,0.24836 -0.191911,0.0903 -0.468489,0.0903 -0.208845,0 -0.389467,-0.0734 -0.180622,-0.0734 -0.310444,-0.2032 -0.129822,-0.12982 -0.208845,-0.29915 -0.07338,-0.17498 -0.07338,-0.37818 v -0.21449 h 0.575733 v 0.18062 q 0,0.15805 0.09031,0.28787 0.09596,0.12418 0.316089,0.12418 0.146755,0 0.225778,-0.0395 0.08467,-0.0452 0.129822,-0.12418 0.04516,-0.079 0.0508,-0.18627 0.01129,-0.11289 0.01129,-0.24835 0,-0.15805 -0.01129,-0.25965 -0.01129,-0.1016 -0.04516,-0.16369 -0.03951,-0.0621 -0.107244,-0.1016 -0.06209,-0.0395 -0.169333,-0.0847 l -0.412045,-0.16934 q -0.372533,-0.1524 -0.502355,-0.40075 -0.124178,-0.254 -0.124178,-0.63218 0,-0.22578 0.06209,-0.42898 0.06209,-0.2032 0.186266,-0.34995 0.118534,-0.14676 0.299156,-0.23143 0.186267,-0.0903 0.440267,-0.0903 0.214488,0 0.389466,0.079 0.180622,0.079 0.310445,0.20885 0.259644,0.27093 0.259644,0.62089 z"
         style="font-style:normal;font-variant:normal;font-weight:bold;font-stretch:condensed;font-size:5.64444447px;font-family:'DIN Condensed';-inkscape-font-specification:'DIN Condensed, Bold Condensed';font-variant-ligatures:normal;font-variant-caps:normal;font-variant-numeric:normal;font-feature-settings:normal;text-align:start;writing-mode:lr-tb;text-anchor:start;stroke-width:0.26458332px"
         id="path5630"
         inkscape:connector-curvature="0" />
      <path
         d="m 82.719781,259.8988 v -4.01884 h 0.575734 v 1.43369 h 0.01129 q 0.09031,-0.13547 0.214488,-0.22014 0.129823,-0.0903 0.327378,-0.0903 0.107245,0 0.214489,0.0395 0.107245,0.0339 0.191911,0.11854 0.08467,0.0847 0.135467,0.22013 0.0508,0.12982 0.0508,0.32173 v 2.19569 h -0.575733 v -1.9812 q 0,-0.15804 -0.07338,-0.24835 -0.07338,-0.0903 -0.208845,-0.0903 -0.163689,0 -0.225777,0.1016 -0.06209,0.1016 -0.06209,0.29351 v 1.92475 z"
         style="font-style:normal;font-variant:normal;font-weight:bold;font-stretch:condensed;font-size:5.64444447px;font-family:'DIN Condensed';-inkscape-font-specification:'DIN Condensed, Bold Condensed';font-variant-ligatures:normal;font-variant-caps:normal;font-variant-numeric:normal;font-feature-settings:normal;text-align:start;writing-mode:lr-tb;text-anchor:start;stroke-width:0.26458332px"
         id="path5632"
         inkscape:connector-curvature="0" />
    </g>
    <g
       aria-label="Stable16"
       style="font-style:normal;font-variant:normal;font-weight:bold;font-stretch:condensed;font-size:4.23333311px;line-height:125%;font-family:'DIN Condensed';-inkscape-font-specification:'DIN Condensed, Bold Condensed';font-variant-ligatures:normal;font-variant-caps:normal;font-variant-numeric:normal;text-align:start;letter-spacing:0px;word-spacing:0px;writing-mode:lr-tb;text-anchor:start;fill:#000000;fill-opacity:1;stroke:none;stroke-width:0.26458332px;stroke-linecap:butt;stroke-linejoin:miter;stroke-opacity:1"
       id="text971">
      <path
         d="m 76.616344,164.25798 h -0.4318 v -0.0974 q 0,-0.14817 -0.07197,-0.254 -0.06773,-0.11007 -0.232833,-0.11007 -0.0889,0 -0.143934,0.0339 -0.05503,0.0339 -0.0889,0.0847 -0.03387,0.055 -0.04657,0.127 -0.0127,0.0677 -0.0127,0.14394 0,0.0889 0.0042,0.14816 0.0085,0.0593 0.03387,0.10584 0.0254,0.0466 0.07197,0.0804 0.0508,0.0339 0.135467,0.0677 l 0.3302,0.13124 q 0.143933,0.055 0.232833,0.13123 0.0889,0.072 0.1397,0.16933 0.04657,0.1016 0.0635,0.23284 0.01693,0.127 0.01693,0.29209 0,0.1905 -0.0381,0.3556 -0.0381,0.16087 -0.122767,0.27517 -0.0889,0.11853 -0.232833,0.18627 -0.143934,0.0677 -0.351367,0.0677 -0.156633,0 -0.2921,-0.055 -0.135467,-0.055 -0.232833,-0.1524 -0.09737,-0.0974 -0.156634,-0.22437 -0.05503,-0.13123 -0.05503,-0.28363 v -0.16087 h 0.4318 v 0.13547 q 0,0.11853 0.06773,0.2159 0.07197,0.0931 0.237067,0.0931 0.110067,0 0.169333,-0.0296 0.0635,-0.0339 0.09737,-0.0931 0.03387,-0.0593 0.0381,-0.1397 0.0085,-0.0847 0.0085,-0.18626 0,-0.11853 -0.0085,-0.19473 -0.0085,-0.0762 -0.03387,-0.12277 -0.02963,-0.0466 -0.08043,-0.0762 -0.04657,-0.0296 -0.127,-0.0635 l -0.309033,-0.127 q -0.2794,-0.1143 -0.376767,-0.30057 -0.09313,-0.1905 -0.09313,-0.47413 0,-0.16933 0.04657,-0.32173 0.04657,-0.1524 0.1397,-0.26247 0.0889,-0.11007 0.224367,-0.17357 0.1397,-0.0677 0.3302,-0.0677 0.160867,0 0.2921,0.0593 0.135467,0.0593 0.232833,0.15663 0.194734,0.2032 0.194734,0.46567 z"
         style="stroke-width:0.26458332px"
         id="path1092"
         inkscape:connector-curvature="0" />
      <path
         d="m 76.913735,164.25798 v -0.65193 h 0.4318 v 0.65193 h 0.2667 v 0.33867 h -0.2667 v 1.18956 q 0,0.0762 0.0127,0.11854 0.01693,0.0423 0.0508,0.0635 0.03387,0.0212 0.08043,0.0254 0.0508,0.004 0.122766,0.004 v 0.4064 h -0.1778 q -0.148166,0 -0.249766,-0.0466 -0.09737,-0.0466 -0.156634,-0.11853 -0.05927,-0.072 -0.0889,-0.16087 -0.0254,-0.0931 -0.0254,-0.1778 v -1.30386 h -0.2159 v -0.33867 z"
         style="stroke-width:0.26458332px"
         id="path1094"
         inkscape:connector-curvature="0" />
      <path
         d="m 78.590664,166.40428 v -0.22013 h -0.0085 q -0.08467,0.11853 -0.173567,0.18203 -0.08467,0.0635 -0.2413,0.0635 -0.0762,0 -0.156633,-0.0254 -0.0762,-0.0212 -0.148167,-0.0847 -0.07197,-0.0593 -0.118533,-0.16933 -0.04233,-0.1143 -0.04233,-0.2921 0,-0.18203 0.02963,-0.3175 0.02963,-0.1397 0.110066,-0.23283 0.0762,-0.0889 0.207434,-0.13123 0.131233,-0.0466 0.334433,-0.0466 0.02117,0 0.04657,0 0.0254,0 0.04657,0.004 0.02117,0.004 0.0508,0.004 0.02963,0 0.0635,0.004 v -0.22437 q 0,-0.11006 -0.04657,-0.18203 -0.04657,-0.072 -0.169334,-0.072 -0.08467,0 -0.156633,0.055 -0.06773,0.055 -0.0889,0.16086 h -0.4191 q 0.01693,-0.28786 0.194733,-0.46566 0.08467,-0.0847 0.2032,-0.13124 0.118534,-0.0508 0.2667,-0.0508 0.135467,0 0.254,0.0423 0.118534,0.0423 0.207434,0.127 0.08467,0.0847 0.135466,0.21166 0.0508,0.127 0.0508,0.29634 v 1.49436 z m 0,-0.92287 q -0.07197,-0.0127 -0.118533,-0.0127 -0.1397,0 -0.2413,0.0677 -0.09737,0.0635 -0.09737,0.23706 0,0.12277 0.05927,0.19897 0.05927,0.0762 0.1651,0.0762 0.110067,0 0.169333,-0.072 0.0635,-0.072 0.0635,-0.2032 z"
         style="stroke-width:0.26458332px"
         id="path1096"
         inkscape:connector-curvature="0" />
      <path
         d="m 79.336326,166.40428 v -3.01413 h 0.4318 v 1.06257 h 0.0085 q 0.07197,-0.10584 0.169333,-0.16087 0.1016,-0.0593 0.2286,-0.0593 0.156634,0 0.2413,0.055 0.0889,0.055 0.143934,0.1397 0.04233,0.0677 0.05503,0.1778 0.0127,0.11006 0.0127,0.3429 v 0.81703 q 0,0.1778 -0.01693,0.28363 -0.01693,0.10583 -0.05503,0.1778 -0.110066,0.2032 -0.376766,0.2032 -0.160867,0 -0.245534,-0.0635 -0.08467,-0.0635 -0.1651,-0.15663 v 0.19473 z m 0.859367,-1.4859 q 0,-0.1016 -0.04657,-0.1778 -0.04233,-0.0762 -0.1651,-0.0762 -0.09313,0 -0.156633,0.0677 -0.05927,0.0635 -0.05927,0.1651 v 0.83396 q 0,0.11853 0.05927,0.19473 0.05927,0.072 0.156633,0.072 0.110067,0 0.160867,-0.0804 0.0508,-0.0804 0.0508,-0.21167 z"
         style="stroke-width:0.26458332px"
         id="path1098"
         inkscape:connector-curvature="0" />
      <path
         d="m 80.956304,163.39015 h 0.4318 v 2.40876 q 0,0.12277 0.04233,0.16934 0.04657,0.0423 0.169334,0.055 v 0.4064 q -0.148167,0 -0.2667,-0.0254 -0.118534,-0.0212 -0.2032,-0.0889 -0.08467,-0.0635 -0.131234,-0.1778 -0.04233,-0.11853 -0.04233,-0.30903 z"
         style="stroke-width:0.26458332px"
         id="path1100"
         inkscape:connector-curvature="0" />
      <path
         d="m 83.016019,165.49411 h -0.855134 v 0.2921 q 0,0.1016 0.05503,0.15664 0.05927,0.055 0.156633,0.055 0.122767,0 0.160867,-0.072 0.04233,-0.072 0.0508,-0.14393 h 0.4318 q 0,0.28363 -0.173567,0.4572 -0.08467,0.0889 -0.2032,0.1397 -0.118533,0.0508 -0.2667,0.0508 -0.2032,0 -0.347133,-0.0847 -0.1397,-0.0847 -0.2159,-0.22436 -0.04657,-0.0847 -0.0635,-0.19474 -0.01693,-0.11006 -0.01693,-0.2413 v -0.70696 q 0,-0.13123 0.01693,-0.2413 0.01693,-0.11007 0.0635,-0.19473 0.0762,-0.1397 0.2159,-0.22437 0.143933,-0.0847 0.347133,-0.0847 0.148167,0 0.2667,0.0508 0.122767,0.0508 0.207433,0.1397 0.169334,0.1905 0.169334,0.47837 z m -0.855134,-0.33866 h 0.423334 v -0.24553 q 0,-0.12277 -0.05927,-0.18204 -0.05503,-0.0635 -0.1524,-0.0635 -0.09737,0 -0.156633,0.0635 -0.05503,0.0593 -0.05503,0.18204 z"
         style="stroke-width:0.26458332px"
         id="path1102"
         inkscape:connector-curvature="0" />
      <path
         d="m 83.808247,166.40428 v -2.55693 l -0.4318,0.3175 v -0.4572 l 0.4318,-0.3175 h 0.4318 v 3.01413 z"
         style="stroke-width:0.26458332px"
         id="path1104"
         inkscape:connector-curvature="0" />
      <path
         d="m 85.997278,163.39015 -0.491067,1.26577 0.0085,0.008 q 0.02117,-0.0169 0.0635,-0.0254 0.04657,-0.0127 0.118533,-0.0127 0.1143,0 0.211667,0.055 0.09737,0.055 0.1524,0.1397 0.02963,0.0466 0.04657,0.0931 0.01693,0.0466 0.02963,0.12277 0.0085,0.0762 0.0127,0.19473 0.0042,0.1143 0.0042,0.2921 0,0.14816 -0.0042,0.24553 -0.0042,0.0931 -0.0127,0.15663 -0.0127,0.0677 -0.03387,0.1143 -0.01693,0.0466 -0.04657,0.0974 -0.08467,0.1397 -0.2286,0.2159 -0.1397,0.0762 -0.3175,0.0762 -0.1778,0 -0.3175,-0.0762 -0.1397,-0.0804 -0.224366,-0.2159 -0.03387,-0.0508 -0.05503,-0.0974 -0.01693,-0.0466 -0.0254,-0.1143 -0.0127,-0.0635 -0.01693,-0.15663 -0.0042,-0.0974 -0.0042,-0.24553 0,-0.1397 0.0042,-0.2286 0.0042,-0.0931 0.0127,-0.16087 0.0085,-0.0635 0.0254,-0.1143 0.01693,-0.055 0.0381,-0.1143 l 0.567267,-1.51553 z m -0.275167,1.83303 q 0,-0.0974 -0.0635,-0.15663 -0.0635,-0.0593 -0.148167,-0.0593 -0.08467,0 -0.148166,0.0593 -0.0635,0.0593 -0.0635,0.15663 v 0.5588 q 0,0.0974 0.0635,0.15663 0.0635,0.0593 0.148166,0.0593 0.08467,0 0.148167,-0.0593 0.0635,-0.0593 0.0635,-0.15663 z"
         style="stroke-width:0.26458332px"
         id="path1106"
         inkscape:connector-curvature="0" />
    </g>
    <g
       aria-label="Gate"
       style="font-style:normal;font-variant:normal;font-weight:bold;font-stretch:normal;font-size:2.82222223px;line-height:125%;font-family:'DIN Alternate';-inkscape-font-specification:'DIN Alternate, Bold';font-variant-ligatures:normal;font-variant-caps:normal;font-variant-numeric:normal;font-feature-settings:normal;text-align:start;letter-spacing:0px;word-spacing:0px;writing-mode:lr-tb;text-anchor:start;fill:#000000;fill-opacity:1;stroke:none;stroke-width:0.26458332px;stroke-linecap:butt;stroke-linejoin:miter;stroke-opacity:1"
       id="text975">
      <path
         d="m 122.94556,171.29592 h 0.71382 v 0.40927 q -0.006,0.30179 -0.2067,0.50574 -0.20258,0.20258 -0.50988,0.20809 -0.23702,-0.006 -0.3955,-0.11576 -0.16123,-0.10611 -0.23426,-0.24529 -0.0221,-0.0455 -0.04,-0.0868 -0.0165,-0.0427 -0.0276,-0.10749 -0.0207,-0.12127 -0.0207,-0.46578 0,-0.35002 0.0207,-0.46853 0.0221,-0.11851 0.0675,-0.19155 0.073,-0.13918 0.23426,-0.24805 0.15848,-0.11024 0.3955,-0.113 0.29077,0.003 0.47405,0.17226 0.18328,0.17088 0.23151,0.42306 h -0.32246 q -0.0372,-0.12127 -0.13505,-0.20671 -0.10198,-0.0813 -0.24805,-0.0841 -0.10749,0.003 -0.18466,0.0427 -0.0785,0.0413 -0.12678,0.10335 -0.0593,0.0648 -0.0785,0.16675 -0.022,0.10748 -0.022,0.40376 0,0.29628 0.022,0.40101 0.0193,0.10473 0.0785,0.1695 0.0482,0.062 0.12678,0.1006 0.0772,0.0455 0.18466,0.0455 0.17777,0 0.29352,-0.12127 0.11576,-0.11575 0.11852,-0.30454 v -0.10473 h -0.40928 z"
         style="stroke-width:0.26458332px"
         id="path1083"
         inkscape:connector-curvature="0" />
      <path
         d="m 124.73839,172.2757 h -0.006 q -0.04,0.073 -0.12402,0.10749 -0.0827,0.0358 -0.22875,0.0358 -0.23978,-0.003 -0.36932,-0.12678 -0.13642,-0.12127 -0.13642,-0.31006 0,-0.18052 0.11851,-0.29903 0.11851,-0.12127 0.34726,-0.12403 h 0.39826 v -0.1502 q 0.003,-0.1888 -0.29353,-0.18328 -0.10748,0 -0.1695,0.0221 -0.0648,0.0262 -0.10197,0.0882 v 0 l -0.226,-0.17226 q 0.16399,-0.21497 0.48369,-0.20946 0.2701,-0.003 0.43133,0.10198 0.16123,0.10748 0.16399,0.36931 v 0.97703 h -0.28801 z m 0,-0.47956 h -0.34451 q -0.25081,0.006 -0.24805,0.17226 0,0.073 0.0648,0.12402 0.062,0.0565 0.20532,0.0565 0.18053,0.003 0.25494,-0.0427 0.0675,-0.0455 0.0675,-0.2067 z"
         style="stroke-width:0.26458332px"
         id="path1085"
         inkscape:connector-curvature="0" />
      <path
         d="m 125.415,170.53662 h 0.28801 v 0.43546 h 0.20946 v 0.21911 h -0.20946 v 0.83371 q -0.003,0.10886 0.10198,0.10611 h 0.10748 v 0.27147 h -0.1502 q -0.15159,0 -0.24805,-0.0937 -0.0992,-0.0896 -0.0992,-0.25907 v -0.85851 h -0.14331 v -0.21911 h 0.14331 z"
         style="stroke-width:0.26458332px"
         id="path1087"
         inkscape:connector-curvature="0" />
      <path
         d="m 126.39892,171.79614 q 0,0.17226 0.0992,0.26183 0.0923,0.0909 0.24253,0.0909 0.17502,0 0.31282,-0.13918 v 0 l 0.20808,0.17777 q -0.2191,0.23426 -0.51538,0.23151 -0.113,0 -0.22049,-0.0331 -0.0537,-0.0179 -0.10473,-0.0482 -0.0537,-0.0262 -0.1006,-0.0648 -0.0909,-0.0799 -0.14745,-0.22325 -0.062,-0.1378 -0.062,-0.35829 0,-0.21221 0.0537,-0.35277 0.0538,-0.14332 0.13781,-0.226 0.0854,-0.0841 0.19155,-0.12127 0.10473,-0.0372 0.2067,-0.0372 0.24529,0.003 0.41479,0.16123 0.17226,0.16123 0.17501,0.44373 v 0.23702 z m 0.60358,-0.23702 q -0.006,-0.16674 -0.0896,-0.25218 -0.0827,-0.0813 -0.21222,-0.0813 -0.12953,0 -0.21222,0.0813 -0.0813,0.0854 -0.0896,0.25218 z"
         style="stroke-width:0.26458332px"
         id="path1089"
         inkscape:connector-curvature="0" />
    </g>
    <g
       aria-label="9"
       style="font-style:normal;font-variant:normal;font-weight:bold;font-stretch:normal;font-size:2.82222223px;line-height:125%;font-family:'DIN Alternate';-inkscape-font-specification:'DIN Alternate, Bold';font-variant-ligatures:normal;font-variant-caps:normal;font-variant-numeric:normal;font-feature-settings:normal;text-align:start;letter-spacing:0px;word-spacing:0px;writing-mode:lr-tb;text-anchor:start;fill:#000000;fill-opacity:1;stroke:none;stroke-width:0.26458332px;stroke-linecap:butt;stroke-linejoin:miter;stroke-opacity:1"
       id="text1015">
      <path
         d="m 73.863948,172.41905 q -0.0014,0 0.02343,-0.0496 0.0248,-0.051 0.06477,-0.13091 0.03996,-0.0799 0.08957,-0.17777 0.04961,-0.0978 0.09784,-0.19292 0.04823,-0.0951 0.08957,-0.17501 0.04272,-0.0799 0.0689,-0.12541 -0.03996,0.0234 -0.09095,0.0289 -0.04961,0.004 -0.115756,0.001 -0.09095,-0.003 -0.159852,-0.0331 -0.06752,-0.0303 -0.117133,-0.0758 -0.04961,-0.0455 -0.08268,-0.1006 -0.03307,-0.0565 -0.05374,-0.10887 -0.01929,-0.0537 -0.02894,-0.0992 -0.0083,-0.0469 -0.0083,-0.073 0,-0.008 -0.0014,-0.0303 0,-0.0221 0,-0.0482 0,-0.0276 0,-0.0551 0.0014,-0.0276 0.0041,-0.0469 0.0014,-0.01 0.0083,-0.0482 0.0083,-0.04 0.02894,-0.0951 0.02067,-0.0551 0.05788,-0.11713 0.03721,-0.0634 0.09646,-0.11851 0.06063,-0.0551 0.14745,-0.0951 0.08819,-0.04 0.208084,-0.051 0.125402,-0.011 0.220486,0.0152 0.09646,0.0262 0.165365,0.0758 0.0689,0.0496 0.114377,0.11576 0.04547,0.0662 0.07028,0.13505 0.02618,0.0675 0.03445,0.13229 0.0083,0.0634 0.0028,0.10886 -0.0083,0.0675 -0.01792,0.12127 -0.0096,0.0524 -0.02343,0.1006 -0.0124,0.0482 -0.02894,0.0951 -0.01654,0.0469 -0.03858,0.10198 -0.0055,0.0152 -0.03032,0.0661 -0.02343,0.051 -0.06063,0.12541 -0.03583,0.073 -0.07993,0.16398 -0.04272,0.0896 -0.08819,0.18052 -0.106109,0.21498 -0.237023,0.47956 z m 0.06201,-1.45521 q 0,0.0538 0.0055,0.11852 0.0055,0.0648 0.03169,0.12264 0.02756,0.0565 0.08544,0.0978 0.05788,0.04 0.162609,0.0455 0.05236,0.003 0.09508,-0.0124 0.04272,-0.0165 0.07579,-0.0427 0.03307,-0.0262 0.0565,-0.0593 0.02481,-0.0331 0.03996,-0.0648 0.01654,-0.0331 0.02343,-0.0606 0.0069,-0.0276 0.0069,-0.0441 -0.0014,-0.0344 -0.0028,-0.0772 0,-0.0427 -0.0083,-0.0868 -0.0069,-0.0441 -0.02481,-0.0841 -0.01791,-0.0413 -0.05099,-0.0717 -0.03307,-0.0303 -0.08544,-0.0469 -0.05099,-0.0179 -0.128157,-0.0138 -0.08544,0.004 -0.14056,0.0427 -0.05374,0.0386 -0.08544,0.0854 -0.03169,0.0468 -0.0441,0.0909 -0.0124,0.0441 -0.0124,0.0606 z"
         style="stroke-width:0.26458332px"
         id="path1080"
         inkscape:connector-curvature="0" />
    </g>
    <g
       aria-label="10"
       transform="scale(1.0000023,0.9999977)"
       style="font-style:normal;font-variant:normal;font-weight:bold;font-stretch:normal;font-size:2.82222891px;line-height:125%;font-family:'DIN Alternate';-inkscape-font-specification:'DIN Alternate, Bold';font-variant-ligatures:normal;font-variant-caps:normal;font-variant-numeric:normal;font-feature-settings:normal;text-align:start;letter-spacing:0px;word-spacing:0px;writing-mode:lr-tb;text-anchor:start;fill:#000000;fill-opacity:1;stroke:none;stroke-width:0.26458395px;stroke-linecap:butt;stroke-linejoin:miter;stroke-opacity:1"
       id="text1019">
      <path
         d="m 78.533938,170.90773 v 0 -0.30592 l 0.285254,-0.20809 h 0.288011 v 2.00919 h -0.288011 v -1.70464 z"
         style="stroke-width:0.26458395px"
         id="path1075"
         inkscape:connector-curvature="0" />
      <path
         d="m 80.58722,170.9725 q -0.0083,-0.30179 -0.282499,-0.3073 -0.275608,0.006 -0.28112,0.3073 v 0.85163 q 0.0055,0.30455 0.28112,0.3073 0.27423,-0.003 0.282499,-0.3073 z m -0.85163,-0.0179 q 0.0028,-0.27837 0.177767,-0.42857 0.163987,-0.14883 0.391364,-0.14883 0.234267,0 0.398254,0.14883 0.166743,0.1502 0.172255,0.42857 v 0.88608 q -0.0055,0.27698 -0.172255,0.42719 -0.163987,0.14883 -0.398254,0.15158 -0.227377,-0.003 -0.391364,-0.15158 -0.175011,-0.15021 -0.177767,-0.42719 z"
         style="stroke-width:0.26458395px"
         id="path1077"
         inkscape:connector-curvature="0" />
    </g>
    <g
       aria-label="11"
       transform="scale(1.0000228,0.99997718)"
       style="font-style:normal;font-variant:normal;font-weight:bold;font-stretch:normal;font-size:2.82228661px;line-height:125%;font-family:'DIN Alternate';-inkscape-font-specification:'DIN Alternate, Bold';font-variant-ligatures:normal;font-variant-caps:normal;font-variant-numeric:normal;font-feature-settings:normal;text-align:start;letter-spacing:0px;word-spacing:0px;writing-mode:lr-tb;text-anchor:start;fill:#000000;fill-opacity:1;stroke:none;stroke-width:0.26458937px;stroke-linecap:butt;stroke-linejoin:miter;stroke-opacity:1"
       id="text1023">
      <path
         d="m 83.823875,170.92778 v 0 -0.30593 l 0.285261,-0.20809 h 0.288016 v 2.00923 h -0.288016 v -1.70467 z"
         style="stroke-width:0.26458937px"
         id="path1070"
         inkscape:connector-curvature="0" />
      <path
         d="m 85.179896,170.92778 v 0 -0.30593 l 0.28526,-0.20809 h 0.288017 v 2.00923 h -0.288017 v -1.70467 z"
         style="stroke-width:0.26458937px"
         id="path1072"
         inkscape:connector-curvature="0" />
    </g>
    <g
       aria-label="12"
       style="font-style:normal;font-variant:normal;font-weight:bold;font-stretch:normal;font-size:2.82222223px;line-height:125%;font-family:'DIN Alternate';-inkscape-font-specification:'DIN Alternate, Bold';font-variant-ligatures:normal;font-variant-caps:normal;font-variant-numeric:normal;font-feature-settings:normal;text-align:start;letter-spacing:0px;word-spacing:0px;writing-mode:lr-tb;text-anchor:start;fill:#000000;fill-opacity:1;stroke:none;stroke-width:0.26458332px;stroke-linecap:butt;stroke-linejoin:miter;stroke-opacity:1"
       id="text1027">
      <path
         d="m 89.117456,170.92388 v 0 -0.30592 l 0.285254,-0.20809 h 0.28801 v 2.00918 h -0.28801 v -1.70463 z"
         style="stroke-width:0.26458332px"
         id="path1065"
         inkscape:connector-curvature="0" />
      <path
         d="m 90.302569,172.14758 0.784104,-0.98116 q 0.04547,-0.0593 0.06201,-0.11025 0.01102,-0.0482 0.01102,-0.091 0,-0.113 -0.07028,-0.19706 -0.07304,-0.0841 -0.206706,-0.0868 -0.118511,0 -0.197059,0.0758 -0.08131,0.0758 -0.09646,0.21359 h -0.286632 q 0.01102,-0.2508 0.168121,-0.41479 0.158474,-0.15985 0.389985,-0.1626 0.259071,0.003 0.420301,0.16536 0.163987,0.16123 0.166743,0.40928 0,0.19844 -0.121268,0.35278 l -0.646299,0.81028 h 0.767567 v 0.28801 h -1.14515 z"
         style="stroke-width:0.26458332px"
         id="path1067"
         inkscape:connector-curvature="0" />
    </g>
    <g
       aria-label="13"
       style="font-style:normal;font-variant:normal;font-weight:bold;font-stretch:normal;font-size:2.82222223px;line-height:125%;font-family:'DIN Alternate';-inkscape-font-specification:'DIN Alternate, Bold';font-variant-ligatures:normal;font-variant-caps:normal;font-variant-numeric:normal;font-feature-settings:normal;text-align:start;letter-spacing:0px;word-spacing:0px;writing-mode:lr-tb;text-anchor:start;fill:#000000;fill-opacity:1;stroke:none;stroke-width:0.26458332px;stroke-linecap:butt;stroke-linejoin:miter;stroke-opacity:1"
       id="text1031">
      <path
         d="m 94.40912,170.90734 v 0 -0.30592 l 0.285254,-0.20809 h 0.28801 v 2.00918 h -0.28801 v -1.70463 z"
         style="stroke-width:0.26458332px"
         id="path1060"
         inkscape:connector-curvature="0" />
      <path
         d="m 95.999376,171.23945 h 0.09922 q 0.14745,0 0.228755,-0.0813 0.0813,-0.0786 0.0813,-0.20395 -0.0028,-0.12678 -0.08406,-0.20808 -0.0813,-0.0785 -0.209461,-0.0813 -0.09233,0 -0.168121,0.0593 -0.07993,0.0593 -0.107487,0.18328 h -0.28801 q 0.02205,-0.22324 0.180523,-0.3762 0.155718,-0.15159 0.37207,-0.15434 0.27423,0.003 0.43546,0.17501 0.154341,0.16812 0.157097,0.39687 0,0.11576 -0.04134,0.22324 -0.04823,0.10749 -0.172255,0.19155 0.126779,0.0827 0.183279,0.19844 0.05374,0.11575 0.05374,0.24253 -0.0028,0.2825 -0.17501,0.44511 -0.169499,0.16674 -0.435461,0.1695 -0.205327,0 -0.363802,-0.13229 -0.158474,-0.1323 -0.205327,-0.3831 h 0.28801 q 0.03858,0.1006 0.108865,0.16261 0.07166,0.0648 0.190169,0.0648 0.126779,0 0.213596,-0.0868 0.08819,-0.0813 0.09095,-0.23151 -0.0028,-0.15296 -0.09095,-0.23702 -0.08682,-0.0813 -0.220486,-0.0813 h -0.121268 z"
         style="stroke-width:0.26458332px"
         id="path1062"
         inkscape:connector-curvature="0" />
    </g>
    <g
       aria-label="14"
       style="font-style:normal;font-variant:normal;font-weight:bold;font-stretch:normal;font-size:2.82222223px;line-height:125%;font-family:'DIN Alternate';-inkscape-font-specification:'DIN Alternate, Bold';font-variant-ligatures:normal;font-variant-caps:normal;font-variant-numeric:normal;font-feature-settings:normal;text-align:start;letter-spacing:0px;word-spacing:0px;writing-mode:lr-tb;text-anchor:start;fill:#000000;fill-opacity:1;stroke:none;stroke-width:0.26458332px;stroke-linecap:butt;stroke-linejoin:miter;stroke-opacity:1"
       id="text1035">
      <path
         d="m 99.700784,170.92388 v 0 -0.30592 l 0.285254,-0.20809 h 0.288012 v 2.00918 h -0.288012 v -1.70463 z"
         style="stroke-width:0.26458332px"
         id="path1055"
         inkscape:connector-curvature="0" />
      <path
         d="m 100.8294,171.84854 0.6711,-1.43867 h 0.32109 l -0.67938,1.43867 h 0.52503 v -0.57739 h 0.28801 v 0.57739 h 0.15986 v 0.27148 h -0.15986 v 0.29903 h -0.28801 v -0.29903 h -0.83784 z"
         style="stroke-width:0.26458332px"
         id="path1057"
         inkscape:connector-curvature="0" />
    </g>
    <g
       aria-label="15"
       style="font-style:normal;font-variant:normal;font-weight:bold;font-stretch:normal;font-size:2.82222223px;line-height:125%;font-family:'DIN Alternate';-inkscape-font-specification:'DIN Alternate, Bold';font-variant-ligatures:normal;font-variant-caps:normal;font-variant-numeric:normal;font-feature-settings:normal;text-align:start;letter-spacing:0px;word-spacing:0px;writing-mode:lr-tb;text-anchor:start;fill:#000000;fill-opacity:1;stroke:none;stroke-width:0.26458332px;stroke-linecap:butt;stroke-linejoin:miter;stroke-opacity:1"
       id="text1039">
      <path
         d="m 104.99246,170.90734 v 0 -0.30592 l 0.28525,-0.20809 h 0.28801 v 2.00918 h -0.28801 v -1.70463 z"
         style="stroke-width:0.26458332px"
         id="path1050"
         inkscape:connector-curvature="0" />
      <path
         d="m 106.22718,170.39333 h 1.07073 v 0.28801 h -0.79926 v 0.45475 0 q 0.14056,-0.11024 0.32108,-0.11024 0.11576,0.003 0.21222,0.0413 0.091,0.0427 0.14745,0.10473 0.0841,0.0827 0.12127,0.19155 0.0193,0.0593 0.0276,0.14469 0.008,0.0868 0.008,0.2136 0,0.19568 -0.0276,0.30041 -0.0289,0.10336 -0.0965,0.18328 -0.0593,0.0785 -0.17226,0.14332 -0.11024,0.0675 -0.26183,0.0703 -0.20395,0 -0.37344,-0.12127 -0.17226,-0.12402 -0.2136,-0.40101 h 0.28801 q 0.0469,0.23151 0.28801,0.23427 0.10335,0 0.16536,-0.0413 0.0593,-0.04 0.0827,-0.10473 0.0248,-0.0648 0.0303,-0.14056 0.003,-0.0744 0.003,-0.1447 0.003,-0.17225 -0.0537,-0.27974 -0.0303,-0.051 -0.0896,-0.0813 -0.0592,-0.0248 -0.14745,-0.0248 -0.0786,0 -0.14331,0.0358 -0.0648,0.0372 -0.11576,0.12954 h -0.27147 z"
         style="stroke-width:0.26458332px"
         id="path1052"
         inkscape:connector-curvature="0" />
    </g>
    <g
       aria-label="16"
       style="font-style:normal;font-variant:normal;font-weight:bold;font-stretch:normal;font-size:2.82222223px;line-height:125%;font-family:'DIN Alternate';-inkscape-font-specification:'DIN Alternate, Bold';font-variant-ligatures:normal;font-variant-caps:normal;font-variant-numeric:normal;font-feature-settings:normal;text-align:start;letter-spacing:0px;word-spacing:0px;writing-mode:lr-tb;text-anchor:start;fill:#000000;fill-opacity:1;stroke:none;stroke-width:0.26458332px;stroke-linecap:butt;stroke-linejoin:miter;stroke-opacity:1"
       id="text1043">
      <path
         d="m 110.28412,170.90557 v 0 -0.30592 l 0.28525,-0.20809 h 0.28801 v 2.00918 h -0.28801 v -1.70463 z"
         style="stroke-width:0.26458332px"
         id="path1045"
         inkscape:connector-curvature="0" />
      <path
         d="m 112.42559,170.37089 q 0.001,0 -0.0138,0.0303 -0.0138,0.0289 -0.0386,0.0799 -0.0248,0.051 -0.0579,0.11714 -0.0331,0.0661 -0.0703,0.13918 -0.0358,0.073 -0.0744,0.14745 -0.0372,0.0744 -0.073,0.14194 -0.0345,0.0675 -0.0634,0.12264 -0.0289,0.0551 -0.0482,0.0882 0.04,-0.0234 0.0896,-0.0276 0.051,-0.006 0.11713,-0.003 0.0951,0.003 0.16537,0.0331 0.0717,0.0303 0.12264,0.0758 0.051,0.0455 0.0841,0.10197 0.0345,0.0551 0.0538,0.10887 0.0193,0.0524 0.0262,0.0992 0.008,0.0455 0.008,0.0717 0,0.008 0,0.0303 0,0.0221 0,0.0496 0,0.0262 -10e-4,0.0537 0,0.0276 -0.001,0.0469 -0.001,0.01 -0.01,0.051 -0.007,0.04 -0.0276,0.0965 -0.0193,0.0551 -0.0565,0.11988 -0.0372,0.0634 -0.0979,0.12127 -0.0606,0.0565 -0.14745,0.0978 -0.0868,0.0413 -0.2067,0.051 -0.1254,0.011 -0.22187,-0.0165 -0.0965,-0.0276 -0.16674,-0.0785 -0.0703,-0.051 -0.11713,-0.11714 -0.0469,-0.0675 -0.0744,-0.1378 -0.0262,-0.0703 -0.0358,-0.13505 -0.008,-0.0648 -0.003,-0.11024 0.008,-0.0675 0.0179,-0.11989 0.01,-0.0538 0.022,-0.10198 0.0138,-0.0482 0.0303,-0.0951 0.0165,-0.0468 0.0386,-0.10198 0.006,-0.0138 0.0303,-0.0648 0.0248,-0.0524 0.0606,-0.12816 0.0372,-0.0758 0.0827,-0.16674 0.0455,-0.0909 0.0909,-0.18466 0.10748,-0.21773 0.24115,-0.48645 z m -0.0579,1.47037 q 0,-0.0524 -0.004,-0.11576 -0.004,-0.0634 -0.0317,-0.11989 -0.0262,-0.0579 -0.0868,-0.0992 -0.0606,-0.0413 -0.17226,-0.0496 -0.0524,-0.004 -0.0951,0.011 -0.0427,0.0152 -0.0758,0.0413 -0.0331,0.0262 -0.0579,0.0606 -0.0234,0.0331 -0.04,0.0661 -0.0152,0.0331 -0.0221,0.062 -0.007,0.0276 -0.007,0.0427 0,0.0345 0.001,0.0772 10e-4,0.0413 0.008,0.0841 0.008,0.0413 0.0262,0.0813 0.0179,0.0386 0.051,0.0689 0.0331,0.0303 0.0841,0.0496 0.0524,0.0193 0.12954,0.0193 0.062,0.001 0.10749,-0.0152 0.0469,-0.0179 0.0786,-0.0441 0.0331,-0.0276 0.0537,-0.0606 0.0207,-0.0331 0.0317,-0.0648 0.0124,-0.0317 0.0165,-0.0565 0.004,-0.0262 0.004,-0.0386 z"
         style="stroke-width:0.26458332px"
         id="path1047"
         inkscape:connector-curvature="0" />
    </g>
    <rect
       ry="0.98081756"
       rx="0.98081774"
       y="205.41273"
       x="120.39135"
       height="9.1542969"
       width="9.1542969"
       id="rect1109"
       style="opacity:1;fill:#445271;fill-opacity:1;stroke:#445271;stroke-width:0.37070268;stroke-linecap:round;stroke-linejoin:round;stroke-miterlimit:4;stroke-dasharray:none;stroke-opacity:1" />
    <rect
       style="opacity:1;fill:#445271;fill-opacity:1;stroke:#445271;stroke-width:0.37070271;stroke-linecap:round;stroke-linejoin:round;stroke-miterlimit:4;stroke-dasharray:none;stroke-opacity:1"
       id="rect1111"
       width="9.1542969"
       height="9.1542969"
       x="120.39135"
       y="215.99606"
       rx="0.98081768"
       ry="0.98081744" />
    <rect
       style="opacity:1;fill:#445271;fill-opacity:1;stroke:#445271;stroke-width:0.37070271;stroke-linecap:round;stroke-linejoin:round;stroke-miterlimit:4;stroke-dasharray:none;stroke-opacity:1"
       id="rect1113"
       width="9.1542969"
       height="9.1542969"
       x="120.39134"
       y="226.57941"
       rx="0.98081768"
       ry="0.98081744" />
    <path
       inkscape:connector-curvature="0"
       id="path1115"
       d="M 31.835162,209.89853 H 121.79349"
       style="fill:none;fill-rule:evenodd;stroke:#445271;stroke-width:0.18547291;stroke-linecap:butt;stroke-linejoin:miter;stroke-miterlimit:4;stroke-dasharray:none;stroke-opacity:1" />
    <path
       style="fill:none;fill-rule:evenodd;stroke:#445271;stroke-width:0.18547291;stroke-linecap:butt;stroke-linejoin:miter;stroke-miterlimit:4;stroke-dasharray:none;stroke-opacity:1"
       d="M 31.835162,220.48047 H 121.79349"
       id="path1117"
       inkscape:connector-curvature="0" />
    <path
       inkscape:connector-curvature="0"
       id="path1119"
       d="M 31.835162,231.06242 H 121.79349"
       style="fill:none;fill-rule:evenodd;stroke:#445271;stroke-width:0.18547291;stroke-linecap:butt;stroke-linejoin:miter;stroke-miterlimit:4;stroke-dasharray:none;stroke-opacity:1" />
    <rect
       ry="0.98081744"
       rx="0.98081768"
       y="237.16272"
       x="120.39135"
       height="9.1542969"
       width="9.1542969"
       id="rect1133"
       style="opacity:1;fill:#445271;fill-opacity:1;stroke:#445271;stroke-width:0.37070271;stroke-linecap:round;stroke-linejoin:round;stroke-miterlimit:4;stroke-dasharray:none;stroke-opacity:1" />
    <rect
       ry="0.98081744"
       rx="0.98081768"
       y="247.74606"
       x="120.39134"
       height="9.1542969"
       width="9.1542969"
       id="rect1135"
       style="opacity:1;fill:#445271;fill-opacity:1;stroke:#445271;stroke-width:0.37070271;stroke-linecap:round;stroke-linejoin:round;stroke-miterlimit:4;stroke-dasharray:none;stroke-opacity:1" />
    <path
       inkscape:connector-curvature="0"
       id="path1137"
       d="M 31.835162,241.64713 H 121.79349"
       style="fill:none;fill-rule:evenodd;stroke:#445271;stroke-width:0.18547291;stroke-linecap:butt;stroke-linejoin:miter;stroke-miterlimit:4;stroke-dasharray:none;stroke-opacity:1" />
    <path
       style="fill:none;fill-rule:evenodd;stroke:#445271;stroke-width:0.18547291;stroke-linecap:butt;stroke-linejoin:miter;stroke-miterlimit:4;stroke-dasharray:none;stroke-opacity:1"
       d="M 31.835162,252.22908 H 121.79349"
       id="path1139"
       inkscape:connector-curvature="0" />
    <path
       style="fill:none;fill-rule:evenodd;stroke:#000000;stroke-width:0.26458332px;stroke-linecap:butt;stroke-linejoin:miter;stroke-opacity:1"
       d="M -7.5877513,263.43571 Z"
       id="path1141"
       inkscape:connector-curvature="0" />
    <path
       style="fill:none;fill-rule:evenodd;stroke:#000000;stroke-width:0.18970624;stroke-linecap:butt;stroke-linejoin:miter;stroke-miterlimit:4;stroke-dasharray:none;stroke-opacity:1"
       d="m 50.481878,173.47738 v 83.60833"
       id="path1147"
       inkscape:connector-curvature="0" />
    <path
       inkscape:connector-curvature="0"
       id="path1149"
       d="m 71.617515,173.47738 v 83.60833"
       style="fill:none;fill-rule:evenodd;stroke:#000000;stroke-width:0.18970624;stroke-linecap:butt;stroke-linejoin:miter;stroke-miterlimit:4;stroke-dasharray:none;stroke-opacity:1" />
    <path
       style="fill:none;fill-rule:evenodd;stroke:#000000;stroke-width:0.18970624;stroke-linecap:butt;stroke-linejoin:miter;stroke-miterlimit:4;stroke-dasharray:none;stroke-opacity:1"
       d="m 92.784181,173.47738 v 83.60833"
       id="path1151"
       inkscape:connector-curvature="0" />
    <path
       inkscape:connector-curvature="0"
       id="path1153"
       d="m 92.784181,173.47738 v 83.60833"
       style="fill:none;fill-rule:evenodd;stroke:#000000;stroke-width:0.18970624;stroke-linecap:butt;stroke-linejoin:miter;stroke-miterlimit:4;stroke-dasharray:none;stroke-opacity:1" />
    <path
       style="fill:none;fill-rule:evenodd;stroke:#000000;stroke-width:0.18970624;stroke-linecap:butt;stroke-linejoin:miter;stroke-miterlimit:4;stroke-dasharray:none;stroke-opacity:1"
       d="m 113.95085,173.47738 v 83.60833"
       id="path1155"
       inkscape:connector-curvature="0" />
    <path
       inkscape:connector-curvature="0"
       id="path2145"
       d="m 29.284183,173.47738 v 83.60833"
       style="fill:none;fill-rule:evenodd;stroke:#000000;stroke-width:0.18970624;stroke-linecap:butt;stroke-linejoin:miter;stroke-miterlimit:4;stroke-dasharray:none;stroke-opacity:1" />
    <g
       aria-label="Start"
       style="font-style:normal;font-variant:normal;font-weight:bold;font-stretch:normal;font-size:2.82222223px;line-height:125%;font-family:'DIN Alternate';-inkscape-font-specification:'DIN Alternate, Bold';font-variant-ligatures:normal;font-variant-caps:normal;font-variant-numeric:normal;text-align:start;letter-spacing:0px;word-spacing:0px;writing-mode:lr-tb;text-anchor:start;fill:#000000;fill-opacity:1;stroke:none;stroke-width:0.26458332px;stroke-linecap:butt;stroke-linejoin:miter;stroke-opacity:1"
       id="text922">
      <path
         d="m 132.61385,171.91469 q 0.23978,0.19706 0.57051,0.19981 0.39136,-0.006 0.39688,-0.27974 0.003,-0.22462 -0.26183,-0.2701 -0.12127,-0.0165 -0.26596,-0.0372 -0.25907,-0.0427 -0.39412,-0.19155 -0.13918,-0.15296 -0.13918,-0.37207 0,-0.26321 0.17501,-0.42444 0.1695,-0.15985 0.48093,-0.1626 0.37483,0.008 0.65182,0.20808 l -0.1695,0.2508 v 0 q -0.226,-0.14883 -0.49748,-0.15434 -0.14056,0 -0.23426,0.0703 -0.0978,0.073 -0.1006,0.21773 0,0.0868 0.0675,0.1571 0.0675,0.0717 0.21635,0.0992 0.0827,0.0138 0.226,0.0317 0.28249,0.0386 0.41754,0.20257 0.13367,0.16123 0.13367,0.37483 -0.0152,0.57602 -0.70555,0.58429 -0.44649,0 -0.76757,-0.27561 l 0.19981,-0.22875 z"
         style="stroke-width:0.26458332px"
         id="path924"
         inkscape:connector-curvature="0" />
      <path
         d="m 134.19998,170.53665 h 0.28801 v 0.43546 h 0.20946 v 0.21911 h -0.20946 v 0.83371 q -0.003,0.10886 0.10197,0.10611 h 0.10749 v 0.27147 h -0.15021 q -0.15158,0 -0.24805,-0.0937 -0.0992,-0.0896 -0.0992,-0.25907 v -0.85851 h -0.14332 v -0.21911 h 0.14332 z"
         style="stroke-width:0.26458332px"
         id="path926"
         inkscape:connector-curvature="0" />
      <path
         d="m 135.7172,172.27573 h -0.006 q -0.04,0.073 -0.12402,0.10749 -0.0827,0.0358 -0.22875,0.0358 -0.23978,-0.003 -0.36932,-0.12678 -0.13642,-0.12127 -0.13642,-0.31006 0,-0.18052 0.11851,-0.29903 0.11851,-0.12127 0.34726,-0.12403 h 0.39826 v -0.1502 q 0.003,-0.1888 -0.29353,-0.18328 -0.10748,0 -0.1695,0.022 -0.0648,0.0262 -0.10197,0.0882 v 0 l -0.226,-0.17225 q 0.16399,-0.21498 0.48369,-0.20947 0.2701,-0.003 0.43133,0.10198 0.16123,0.10749 0.16399,0.36931 v 0.97703 h -0.28801 z m 0,-0.47956 h -0.34451 q -0.25081,0.006 -0.24805,0.17226 0,0.073 0.0648,0.12402 0.062,0.0565 0.20532,0.0565 0.18053,0.003 0.25494,-0.0427 0.0675,-0.0455 0.0675,-0.2067 z"
         style="stroke-width:0.26458332px"
         id="path928"
         inkscape:connector-curvature="0" />
      <path
         d="m 136.37728,170.97211 h 0.28801 v 0.15158 h 0.006 q 0.14194,-0.1695 0.37207,-0.1695 0.17225,0.003 0.30041,0.11025 l -0.20946,0.24942 v 0 q -0.0909,-0.0717 -0.18879,-0.0717 -0.11025,0 -0.18879,0.0717 -0.0882,0.0703 -0.0909,0.22738 v 0.86127 h -0.28801 z"
         style="stroke-width:0.26458332px"
         id="path930"
         inkscape:connector-curvature="0" />
      <path
         d="m 137.49073,170.53665 h 0.28801 v 0.43546 h 0.20946 v 0.21911 h -0.20946 v 0.83371 q -0.003,0.10886 0.10198,0.10611 h 0.10748 v 0.27147 h -0.1502 q -0.15159,0 -0.24805,-0.0937 -0.0992,-0.0896 -0.0992,-0.25907 v -0.85851 h -0.14331 v -0.21911 h 0.14331 z"
         style="stroke-width:0.26458332px"
         id="path932"
         inkscape:connector-curvature="0" />
    </g>
    <g
       aria-label="End"
       transform="scale(1.0000118,0.9999882)"
       style="font-style:normal;font-variant:normal;font-weight:bold;font-stretch:normal;font-size:2.82225561px;line-height:125%;font-family:'DIN Alternate';-inkscape-font-specification:'DIN Alternate, Bold';font-variant-ligatures:normal;font-variant-caps:normal;font-variant-numeric:normal;text-align:start;letter-spacing:0px;word-spacing:0px;writing-mode:lr-tb;text-anchor:start;fill:#000000;fill-opacity:1;stroke:none;stroke-width:0.26458645px;stroke-linecap:butt;stroke-linejoin:miter;stroke-opacity:1"
       id="text937">
      <path
         d="m 144.01679,170.39534 h 1.28296 v 0.28801 h -0.97841 v 0.57327 h 0.8351 v 0.2701 h -0.8351 v 0.58981 h 0.97841 v 0.28801 h -1.28296 z"
         style="stroke-width:0.26458645px"
         id="path945" />
      <path
         d="m 145.56158,170.97412 h 0.28802 v 0.15159 h 0.006 q 0.14194,-0.1695 0.37208,-0.1695 0.17776,0 0.32522,0.1254 0.14607,0.12678 0.15296,0.37207 v 0.95086 h -0.28801 v -0.85164 q 0,-0.1502 -0.0799,-0.22875 -0.0786,-0.0799 -0.20257,-0.0799 -0.12403,0 -0.20396,0.0799 -0.0813,0.0786 -0.0813,0.22875 v 0.85164 h -0.28802 z"
         style="stroke-width:0.26458645px"
         id="path947" />
      <path
         d="m 147.93322,172.25433 q -0.14194,0.16124 -0.3707,0.16675 -0.12954,-0.003 -0.22187,-0.0537 -0.0965,-0.0496 -0.16123,-0.13229 -0.0593,-0.0675 -0.0786,-0.18328 -0.0234,-0.11025 -0.0234,-0.36381 0,-0.25769 0.0234,-0.36656 0.0193,-0.11024 0.0786,-0.17777 0.12127,-0.18052 0.3831,-0.18741 0.11024,0 0.20395,0.0455 0.0868,0.0482 0.16675,0.12403 v 0 -0.73037 h 0.28801 v 2.0092 h -0.28801 z m -0.2825,-1.01011 q -0.10198,0 -0.15572,0.0344 -0.0593,0.0372 -0.0868,0.10198 -0.0262,0.0648 -0.0344,0.14056 -0.008,0.0813 -0.008,0.16674 0,0.0813 0.008,0.15848 0.008,0.0813 0.0344,0.14607 0.0276,0.062 0.0868,0.10198 0.0537,0.0386 0.15572,0.0386 0.10197,0 0.16123,-0.0413 0.0592,-0.04 0.0813,-0.10473 0.0276,-0.0648 0.0372,-0.1447 0.003,-0.0785 0.003,-0.15434 0,-0.0827 -0.003,-0.15847 -0.01,-0.0758 -0.0372,-0.14057 -0.0221,-0.0648 -0.0813,-0.10473 -0.0593,-0.04 -0.16123,-0.04 z"
         style="stroke-width:0.26458645px"
         id="path949" />
    </g>
    <rect
       style="opacity:1;fill:#e2e9ed;fill-opacity:0.99607843;stroke:#445271;stroke-width:0.29871457;stroke-linecap:round;stroke-linejoin:round;stroke-miterlimit:4;stroke-dasharray:none;stroke-opacity:1"
       id="rect1622"
       width="9.0927458"
       height="34.004852"
       x="152.17618"
       y="169.94411"
       rx="0.79374999"
       ry="0.79374999" />
    <g
       aria-label="Clock"
       style="font-style:normal;font-variant:normal;font-weight:bold;font-stretch:normal;font-size:2.82222223px;line-height:125%;font-family:'DIN Alternate';-inkscape-font-specification:'DIN Alternate, Bold';font-variant-ligatures:normal;font-variant-caps:normal;font-variant-numeric:normal;text-align:start;letter-spacing:0px;word-spacing:0px;writing-mode:lr-tb;text-anchor:start;fill:#000000;fill-opacity:1;stroke:none;stroke-width:0.26458332px;stroke-linecap:butt;stroke-linejoin:miter;stroke-opacity:1"
       id="text938"
       transform="translate(0,-11.68403)">
      <path
         d="m 155.11035,183.52431 q -0.0662,0.27974 -0.25218,0.42995 -0.19155,0.14882 -0.45338,0.14882 -0.23702,-0.006 -0.3955,-0.11575 -0.16123,-0.10611 -0.23426,-0.24529 -0.022,-0.0455 -0.04,-0.0868 -0.0165,-0.0427 -0.0276,-0.10749 -0.0207,-0.12126 -0.0207,-0.46577 0,-0.35002 0.0207,-0.46853 0.022,-0.11852 0.0675,-0.19155 0.073,-0.13918 0.23426,-0.24805 0.15848,-0.11024 0.3955,-0.113 0.29077,0.003 0.47405,0.17226 0.18328,0.17087 0.23151,0.42305 h -0.32246 q -0.0372,-0.12126 -0.13505,-0.2067 -0.10198,-0.0813 -0.24805,-0.0841 -0.10749,0.003 -0.18466,0.0427 -0.0785,0.0413 -0.12677,0.10335 -0.0593,0.0648 -0.0785,0.16674 -0.0221,0.10749 -0.0221,0.40377 0,0.29628 0.0221,0.40101 0.0193,0.10473 0.0785,0.1695 0.0482,0.062 0.12677,0.10059 0.0772,0.0455 0.18466,0.0455 0.25632,0 0.3831,-0.27423 z"
         style="stroke-width:0.26458332px"
         id="path2306"
         inkscape:connector-curvature="0" />
      <path
         d="m 155.30052,182.07737 h 0.28801 v 1.63986 q 0,0.0978 0.10748,0.0978 h 0.0992 v 0.27148 h -0.12816 q -0.15709,0 -0.25907,-0.0785 -0.10748,-0.0799 -0.10748,-0.26872 z"
         style="stroke-width:0.26458332px"
         id="path2308"
         inkscape:connector-curvature="0" />
      <path
         d="m 155.95784,183.36997 q 0,-0.226 0.0372,-0.34727 0.0386,-0.11851 0.11851,-0.19981 0.0593,-0.0717 0.16536,-0.12816 0.10473,-0.0537 0.26872,-0.0565 0.1695,0.003 0.27423,0.0565 0.10335,0.0565 0.15985,0.12816 0.0854,0.0813 0.12127,0.19981 0.0344,0.12127 0.0344,0.34727 0,0.226 -0.0344,0.34451 -0.0358,0.11851 -0.12127,0.20533 -0.0276,0.0317 -0.0675,0.062 -0.0358,0.0344 -0.0923,0.0592 -0.10473,0.0593 -0.27423,0.062 -0.16399,-0.003 -0.26872,-0.062 -0.1061,-0.0537 -0.16536,-0.12126 -0.0799,-0.0868 -0.11851,-0.20533 -0.0372,-0.11851 -0.0372,-0.34451 z m 0.89159,0.003 q 0,-0.15296 -0.0138,-0.22324 -0.0138,-0.0675 -0.0565,-0.11851 -0.0317,-0.0482 -0.0937,-0.0758 -0.0593,-0.0289 -0.13781,-0.0289 -0.073,0 -0.13505,0.0289 -0.0592,0.0276 -0.0965,0.0758 -0.0372,0.051 -0.0537,0.11851 -0.0165,0.0703 -0.0165,0.22049 0,0.14883 0.0165,0.21773 0.0165,0.0703 0.0537,0.12402 0.0372,0.0413 0.0965,0.073 0.062,0.0303 0.13505,0.0303 0.0786,0 0.13781,-0.0303 0.062,-0.0317 0.0937,-0.073 0.0427,-0.0537 0.0565,-0.12402 0.0138,-0.0689 0.0138,-0.21498 z"
         style="stroke-width:0.26458332px"
         id="path2310"
         inkscape:connector-curvature="0" />
      <path
         d="m 158.49205,183.85504 q -0.0937,0.10748 -0.22048,0.17501 -0.12678,0.0703 -0.29353,0.073 -0.25355,0 -0.4451,-0.17225 -0.19844,-0.17226 -0.20395,-0.55811 0.006,-0.38998 0.20395,-0.56499 0.19155,-0.17226 0.4451,-0.1695 0.16675,0.003 0.29353,0.0689 0.12678,0.0675 0.22048,0.18052 l -0.21221,0.1888 v 0 q -0.10887,-0.1447 -0.29077,-0.15021 -0.36656,-0.006 -0.37207,0.44648 0.006,0.44924 0.37207,0.44235 0.1819,-0.003 0.29077,-0.14882 v 0 z"
         style="stroke-width:0.26458332px"
         id="path2312"
         inkscape:connector-curvature="0" />
      <path
         d="m 158.69049,182.07737 h 0.28801 v 1.24988 h 0.006 l 0.54984,-0.67111 h 0.34451 l -0.49334,0.55811 0.56086,0.8723 h -0.36104 l -0.38034,-0.66835 v 0 l -0.226,0.25631 v 0.41204 h -0.28801 z"
         style="stroke-width:0.26458332px"
         id="path2314"
         inkscape:connector-curvature="0" />
    </g>
    <rect
       style="opacity:1;fill:#e2e9ed;fill-opacity:0.99607843;stroke:#445271;stroke-width:0.29871457;stroke-linecap:round;stroke-linejoin:round;stroke-miterlimit:4;stroke-dasharray:none;stroke-opacity:1"
       id="rect2328"
       width="9.2232885"
       height="19.806622"
       x="152.16936"
       y="215.8945"
       rx="0.80439311"
       ry="0.79903948" />
    <g
       aria-label="Run"
       style="font-style:normal;font-variant:normal;font-weight:bold;font-stretch:normal;font-size:2.82222223px;line-height:125%;font-family:'DIN Alternate';-inkscape-font-specification:'DIN Alternate, Bold';font-variant-ligatures:normal;font-variant-caps:normal;font-variant-numeric:normal;text-align:start;letter-spacing:0px;word-spacing:0px;writing-mode:lr-tb;text-anchor:start;fill:#000000;fill-opacity:1;stroke:none;stroke-width:0.26458332px;stroke-linecap:butt;stroke-linejoin:miter;stroke-opacity:1"
       id="text2319"
       transform="matrix(1.000002,0,0,1,-3.0556771e-4,9.7795851)">
      <path
         d="m 154.89508,196.15473 h 0.46026 q 0.17088,-0.003 0.25632,-0.0992 0.0841,-0.0896 0.0841,-0.22049 -0.003,-0.15709 -0.1006,-0.22737 -0.0772,-0.062 -0.22324,-0.062 h -0.4768 z m -0.30455,-0.88057 h 0.7841 q 0.25081,0 0.40928,0.13229 0.19155,0.15021 0.19982,0.42857 -0.006,0.40928 -0.38861,0.55673 l 0.46578,0.89159 h -0.36243 l -0.41479,-0.85852 h -0.3886 v 0.85852 h -0.30455 z"
         style="stroke-width:0.26458332px"
         id="path2321"
         inkscape:connector-curvature="0" />
      <path
         d="m 156.28414,195.85294 h 0.28801 v 0.85162 q 0,0.1447 0.0813,0.226 0.0799,0.0813 0.20395,0.0813 0.12403,0 0.20257,-0.0813 0.0799,-0.0813 0.0799,-0.226 v -0.85162 h 0.28801 v 1.4304 h -0.28801 v -0.15296 h -0.006 q -0.14194,0.1695 -0.37069,0.1695 -0.17777,-0.003 -0.32109,-0.12954 -0.15572,-0.12402 -0.15847,-0.36656 z"
         style="stroke-width:0.26458332px"
         id="path2323"
         inkscape:connector-curvature="0" />
      <path
         d="m 157.79998,195.85294 h 0.28801 v 0.15158 h 0.006 q 0.14194,-0.1695 0.37207,-0.1695 0.17777,0 0.32522,0.1254 0.14607,0.12678 0.15296,0.37207 v 0.95085 h -0.28801 v -0.85163 q 0,-0.1502 -0.0799,-0.22875 -0.0786,-0.0799 -0.20258,-0.0799 -0.12402,0 -0.20395,0.0799 -0.0813,0.0786 -0.0813,0.22875 v 0.85163 h -0.28801 z"
         style="stroke-width:0.26458332px"
         id="path2325"
         inkscape:connector-curvature="0" />
    </g>
    <g
       aria-label="CV"
       style="font-style:normal;font-variant:normal;font-weight:bold;font-stretch:normal;font-size:2.82222223px;line-height:125%;font-family:'DIN Alternate';-inkscape-font-specification:'DIN Alternate, Bold';font-variant-ligatures:normal;font-variant-caps:normal;font-variant-numeric:normal;text-align:start;letter-spacing:0px;word-spacing:0px;writing-mode:lr-tb;text-anchor:start;fill:#000000;fill-opacity:1;stroke:none;stroke-width:0.26458332px;stroke-linecap:butt;stroke-linejoin:miter;stroke-opacity:1"
       id="text2332"
       transform="translate(0,2.1166692)">
      <path
         d="m 156.62222,182.4236 q -0.0661,0.27974 -0.25218,0.42995 -0.19155,0.14883 -0.45338,0.14883 -0.23702,-0.006 -0.39549,-0.11576 -0.16123,-0.10611 -0.23427,-0.24529 -0.0221,-0.0455 -0.04,-0.0868 -0.0165,-0.0427 -0.0276,-0.10748 -0.0207,-0.12127 -0.0207,-0.46578 0,-0.35002 0.0207,-0.46853 0.022,-0.11851 0.0675,-0.19155 0.073,-0.13918 0.23427,-0.24805 0.15847,-0.11024 0.39549,-0.113 0.29077,0.003 0.47405,0.17226 0.18328,0.17088 0.23151,0.42306 h -0.32246 q -0.0372,-0.12127 -0.13505,-0.20671 -0.10197,-0.0813 -0.24805,-0.0841 -0.10748,0.003 -0.18465,0.0427 -0.0786,0.0413 -0.12678,0.10335 -0.0593,0.0648 -0.0786,0.16674 -0.0221,0.10749 -0.0221,0.40377 0,0.29628 0.0221,0.40101 0.0193,0.10473 0.0786,0.1695 0.0482,0.062 0.12678,0.10059 0.0772,0.0455 0.18465,0.0455 0.25632,0 0.3831,-0.27423 z"
         style="stroke-width:0.26458332px"
         id="path2338"
         inkscape:connector-curvature="0" />
      <path
         d="m 156.62911,180.97666 h 0.32246 l 0.45613,1.52962 h 0.006 l 0.45751,-1.52962 h 0.32246 l -0.66421,2.00918 h -0.23702 z"
         style="stroke-width:0.26458332px"
         id="path2340"
         inkscape:connector-curvature="0" />
    </g>
    <g
       aria-label="Trig"
       style="font-style:normal;font-variant:normal;font-weight:bold;font-stretch:normal;font-size:2.82222223px;line-height:125%;font-family:'DIN Alternate';-inkscape-font-specification:'DIN Alternate, Bold';font-variant-ligatures:normal;font-variant-caps:normal;font-variant-numeric:normal;text-align:start;letter-spacing:0px;word-spacing:0px;writing-mode:lr-tb;text-anchor:start;fill:#000000;fill-opacity:1;stroke:none;stroke-width:0.26458332px;stroke-linecap:butt;stroke-linejoin:miter;stroke-opacity:1"
       id="text2336"
       transform="translate(-0.39676891,2.1167622)">
      <path
         d="m 155.44366,191.2527 h -0.54984 v -0.27148 h 1.4056 v 0.27148 h -0.54983 v 1.7377 h -0.30593 z"
         style="stroke-width:0.26458332px"
         id="path2343"
         inkscape:connector-curvature="0" />
      <path
         d="m 156.22914,191.56 h 0.28801 v 0.15158 h 0.006 q 0.14194,-0.1695 0.37207,-0.1695 0.17226,0.003 0.30042,0.11025 l -0.20946,0.24942 v 0 q -0.091,-0.0717 -0.1888,-0.0717 -0.11024,0 -0.18879,0.0717 -0.0882,0.0703 -0.091,0.22738 v 0.86127 h -0.28801 z"
         style="stroke-width:0.26458332px"
         id="path2345"
         inkscape:connector-curvature="0" />
      <path
         d="m 157.33433,191.56 h 0.28801 v 1.4304 h -0.28801 z m 0,-0.57878 h 0.28801 v 0.28801 h -0.28801 z"
         style="stroke-width:0.26458332px"
         id="path2347"
         inkscape:connector-curvature="0" />
      <path
         d="m 158.80883,192.8402 q -0.14194,0.16123 -0.36931,0.16674 -0.13919,-0.003 -0.23151,-0.0593 -0.0965,-0.0537 -0.14745,-0.11575 -0.0565,-0.0703 -0.0813,-0.17226 -0.0262,-0.10059 -0.0262,-0.38309 0,-0.28801 0.0262,-0.38999 0.0248,-0.10059 0.0813,-0.1695 0.051,-0.0675 0.14745,-0.12126 0.0923,-0.051 0.23151,-0.0538 0.21359,0 0.36931,0.1695 v 0 -0.15158 h 0.28801 v 1.39595 q -0.006,0.32246 -0.18604,0.47405 -0.1819,0.15571 -0.43546,0.15571 -0.29076,-0.006 -0.49609,-0.23977 l 0.22324,-0.17777 v 0 q 0.0551,0.051 0.12678,0.0868 0.073,0.04 0.15159,0.0427 0.14745,0 0.23702,-0.0813 0.0882,-0.0827 0.0909,-0.22875 z m -0.56775,-0.56362 q 0,0.16398 0.011,0.226 0.01,0.0648 0.0455,0.10748 0.0289,0.0386 0.0882,0.0703 0.0565,0.0386 0.14056,0.0386 0.0841,0 0.14056,-0.0386 0.0565,-0.0317 0.0854,-0.0703 0.0358,-0.0427 0.0482,-0.10748 0.008,-0.062 0.008,-0.226 0,-0.16674 -0.008,-0.23151 -0.0124,-0.0648 -0.0482,-0.10473 -0.0289,-0.0386 -0.0854,-0.0758 -0.0565,-0.0317 -0.14056,-0.0345 -0.0841,0.003 -0.14056,0.0345 -0.0593,0.0372 -0.0882,0.0758 -0.0358,0.04 -0.0455,0.10473 -0.011,0.0648 -0.011,0.23151 z"
         style="stroke-width:0.26458332px"
         id="path2349"
         inkscape:connector-curvature="0" />
    </g>
    <g
       aria-label="Reset"
       style="font-style:normal;font-variant:normal;font-weight:bold;font-stretch:normal;font-size:2.82222223px;line-height:125%;font-family:'DIN Alternate';-inkscape-font-specification:'DIN Alternate, Bold';font-variant-ligatures:normal;font-variant-caps:normal;font-variant-numeric:normal;text-align:start;letter-spacing:0px;word-spacing:0px;writing-mode:lr-tb;text-anchor:start;fill:#000000;fill-opacity:1;stroke:none;stroke-width:0.26458332px;stroke-linecap:butt;stroke-linejoin:miter;stroke-opacity:1"
       id="text2354"
       transform="translate(0,11.376978)">
      <path
         d="m 153.71575,213.87178 h 0.46027 q 0.17088,-0.003 0.25631,-0.0992 0.0841,-0.0896 0.0841,-0.22048 -0.003,-0.1571 -0.10059,-0.22738 -0.0772,-0.062 -0.22324,-0.062 h -0.47681 z m -0.30454,-0.88056 h 0.7841 q 0.2508,0 0.40928,0.13229 0.19155,0.1502 0.19981,0.42857 -0.006,0.40928 -0.3886,0.55673 l 0.46577,0.89159 h -0.36242 l -0.41479,-0.85852 h -0.38861 v 0.85852 h -0.30454 z"
         style="stroke-width:0.26458332px"
         id="path2356"
         inkscape:connector-curvature="0" />
      <path
         d="m 155.32255,214.39406 q 0,0.17225 0.0992,0.26183 0.0923,0.0909 0.24253,0.0909 0.17501,0 0.31281,-0.13918 v 0 l 0.20809,0.17776 q -0.21911,0.23427 -0.51539,0.23151 -0.113,0 -0.22048,-0.0331 -0.0538,-0.0179 -0.10473,-0.0482 -0.0538,-0.0262 -0.1006,-0.0648 -0.0909,-0.0799 -0.14745,-0.22324 -0.062,-0.1378 -0.062,-0.35829 0,-0.21222 0.0537,-0.35278 0.0537,-0.14331 0.1378,-0.226 0.0854,-0.0841 0.19155,-0.12126 0.10473,-0.0372 0.20671,-0.0372 0.24529,0.003 0.41479,0.16123 0.17225,0.16123 0.17501,0.44373 v 0.23702 z m 0.60358,-0.23702 q -0.006,-0.16675 -0.0896,-0.25218 -0.0827,-0.0813 -0.21221,-0.0813 -0.12954,0 -0.21222,0.0813 -0.0813,0.0854 -0.0896,0.25218 z"
         style="stroke-width:0.26458332px"
         id="path2358"
         inkscape:connector-curvature="0" />
      <path
         d="m 156.55865,214.56356 q 0.17501,0.18328 0.45199,0.18328 0.12403,0 0.20258,-0.0482 0.0785,-0.0482 0.0785,-0.13505 0,-0.0772 -0.0469,-0.10749 -0.0482,-0.0317 -0.12816,-0.0345 l -0.25356,-0.022 q -0.18052,-0.0165 -0.29352,-0.12127 -0.11575,-0.10197 -0.11851,-0.28525 0.003,-0.22049 0.15572,-0.33073 0.14883,-0.11024 0.37758,-0.11024 0.0992,0 0.17777,0.0124 0.0786,0.0138 0.14745,0.0386 0.13229,0.0537 0.23702,0.14469 l -0.17777,0.20808 v 0 q -0.0827,-0.0592 -0.17501,-0.0978 -0.0909,-0.0344 -0.20946,-0.0344 -0.13505,0 -0.18879,0.0482 -0.0565,0.0482 -0.0565,0.12403 -0.003,0.0482 0.0427,0.0841 0.0413,0.04 0.14607,0.051 l 0.23702,0.0179 q 0.22325,0.0165 0.32246,0.13505 0.0923,0.11575 0.0923,0.29352 -0.003,0.20808 -0.1695,0.32108 -0.16536,0.11576 -0.42305,0.11851 -0.35002,0 -0.62977,-0.25631 l 0.2012,-0.19706 z"
         style="stroke-width:0.26458332px"
         id="path2360"
         inkscape:connector-curvature="0" />
      <path
         d="m 158.08965,214.39406 q 0,0.17225 0.0992,0.26183 0.0923,0.0909 0.24253,0.0909 0.17501,0 0.31282,-0.13918 v 0 l 0.20808,0.17776 q -0.21911,0.23427 -0.51539,0.23151 -0.113,0 -0.22048,-0.0331 -0.0538,-0.0179 -0.10473,-0.0482 -0.0538,-0.0262 -0.1006,-0.0648 -0.0909,-0.0799 -0.14745,-0.22324 -0.062,-0.1378 -0.062,-0.35829 0,-0.21222 0.0537,-0.35278 0.0537,-0.14331 0.1378,-0.226 0.0854,-0.0841 0.19155,-0.12126 0.10473,-0.0372 0.20671,-0.0372 0.24529,0.003 0.41479,0.16123 0.17225,0.16123 0.17501,0.44373 v 0.23702 z m 0.60358,-0.23702 q -0.006,-0.16675 -0.0896,-0.25218 -0.0827,-0.0813 -0.21222,-0.0813 -0.12954,0 -0.21222,0.0813 -0.0813,0.0854 -0.0896,0.25218 z"
         style="stroke-width:0.26458332px"
         id="path2362"
         inkscape:connector-curvature="0" />
      <path
         d="m 159.29957,213.13453 h 0.28801 v 0.43546 h 0.20946 v 0.21911 h -0.20946 v 0.83371 q -0.003,0.10887 0.10197,0.10611 h 0.10749 v 0.27148 h -0.15021 q -0.15158,0 -0.24805,-0.0937 -0.0992,-0.0896 -0.0992,-0.25907 v -0.85852 h -0.14332 V 213.57 h 0.14332 z"
         style="stroke-width:0.26458332px"
         id="path2364"
         inkscape:connector-curvature="0" />
    </g>
  </g>
</svg>
