<?xml version="1.0" encoding="UTF-8" standalone="no"?>
<!-- Created with Inkscape (http://www.inkscape.org/) -->

<svg
   xmlns:dc="http://purl.org/dc/elements/1.1/"
   xmlns:cc="http://creativecommons.org/ns#"
   xmlns:rdf="http://www.w3.org/1999/02/22-rdf-syntax-ns#"
   xmlns:svg="http://www.w3.org/2000/svg"
   xmlns="http://www.w3.org/2000/svg"
   xmlns:sodipodi="http://sodipodi.sourceforge.net/DTD/sodipodi-0.dtd"
   xmlns:inkscape="http://www.inkscape.org/namespaces/inkscape"
   width="45"
   height="380"
   viewBox="0 0 11.906251 100.54167"
   version="1.1"
   id="svg8"
   inkscape:version="0.92.2 5c3e80d, 2017-08-06"
   sodipodi:docname="Stumble.svg">
  <defs
     id="defs2">
    <marker
       inkscape:stockid="Arrow1Lstart"
       orient="auto"
       refY="0.0"
       refX="0.0"
       id="marker2354"
       style="overflow:visible"
       inkscape:isstock="true">
      <path
         id="path2352"
         d="M 0.0,0.0 L 5.0,-5.0 L -12.5,0.0 L 5.0,5.0 L 0.0,0.0 z "
         style="fill-rule:evenodd;stroke:none;stroke-width:1pt;stroke-opacity:1;fill:#212e33;fill-opacity:1"
         transform="scale(0.8) translate(12.5,0)" />
    </marker>
    <marker
       inkscape:stockid="Arrow1Lstart"
       orient="auto"
       refY="0.0"
       refX="0.0"
       id="marker2254"
       style="overflow:visible"
       inkscape:isstock="true">
      <path
         id="path2252"
         d="M 0.0,0.0 L 5.0,-5.0 L -12.5,0.0 L 5.0,5.0 L 0.0,0.0 z "
         style="fill-rule:evenodd;stroke:none;stroke-width:1pt;stroke-opacity:1;fill:#ede1e7;fill-opacity:1"
         transform="scale(0.8) translate(12.5,0)" />
    </marker>
    <marker
       inkscape:stockid="Arrow1Lstart"
       orient="auto"
       refY="0.0"
       refX="0.0"
       id="marker2160"
       style="overflow:visible"
       inkscape:isstock="true">
      <path
         id="path2158"
         d="M 0.0,0.0 L 5.0,-5.0 L -12.5,0.0 L 5.0,5.0 L 0.0,0.0 z "
         style="fill-rule:evenodd;stroke:none;stroke-width:1pt;stroke-opacity:1;fill:#ede1e7;fill-opacity:1"
         transform="scale(0.8) translate(12.5,0)" />
    </marker>
    <marker
       inkscape:stockid="Arrow1Lstart"
       orient="auto"
       refY="0.0"
       refX="0.0"
       id="marker2072"
       style="overflow:visible"
       inkscape:isstock="true">
      <path
         id="path2070"
         d="M 0.0,0.0 L 5.0,-5.0 L -12.5,0.0 L 5.0,5.0 L 0.0,0.0 z "
         style="fill-rule:evenodd;stroke:none;stroke-width:1pt;stroke-opacity:1;fill:#ede1e7;fill-opacity:1"
         transform="scale(0.8) translate(12.5,0)" />
    </marker>
    <marker
       inkscape:stockid="Arrow1Lstart"
       orient="auto"
       refY="0.0"
       refX="0.0"
       id="marker1990"
       style="overflow:visible"
       inkscape:isstock="true">
      <path
         id="path1988"
         d="M 0.0,0.0 L 5.0,-5.0 L -12.5,0.0 L 5.0,5.0 L 0.0,0.0 z "
         style="fill-rule:evenodd;stroke:none;stroke-width:1pt;stroke-opacity:1;fill:#ede1e7;fill-opacity:1"
         transform="scale(0.8) translate(12.5,0)" />
    </marker>
    <marker
       inkscape:stockid="Arrow1Lstart"
       orient="auto"
       refY="0.0"
       refX="0.0"
       id="marker1914"
       style="overflow:visible"
       inkscape:isstock="true">
      <path
         id="path1912"
         d="M 0.0,0.0 L 5.0,-5.0 L -12.5,0.0 L 5.0,5.0 L 0.0,0.0 z "
         style="fill-rule:evenodd;stroke:none;stroke-width:1pt;stroke-opacity:1;fill:#ede1e7;fill-opacity:1"
         transform="scale(0.8) translate(12.5,0)" />
    </marker>
    <marker
       inkscape:stockid="Arrow1Lstart"
       orient="auto"
       refY="0.0"
       refX="0.0"
       id="marker1844"
       style="overflow:visible"
       inkscape:isstock="true">
      <path
         id="path1842"
         d="M 0.0,0.0 L 5.0,-5.0 L -12.5,0.0 L 5.0,5.0 L 0.0,0.0 z "
         style="fill-rule:evenodd;stroke:none;stroke-width:1pt;stroke-opacity:1;fill:#ede1e7;fill-opacity:1"
         transform="scale(0.8) translate(12.5,0)" />
    </marker>
    <marker
       inkscape:stockid="Arrow1Lstart"
       orient="auto"
       refY="0.0"
       refX="0.0"
       id="marker1780"
       style="overflow:visible"
       inkscape:isstock="true">
      <path
         id="path1778"
         d="M 0.0,0.0 L 5.0,-5.0 L -12.5,0.0 L 5.0,5.0 L 0.0,0.0 z "
         style="fill-rule:evenodd;stroke:none;stroke-width:1pt;stroke-opacity:1;fill:#ede1e7;fill-opacity:1"
         transform="scale(0.8) translate(12.5,0)" />
    </marker>
    <marker
       inkscape:stockid="Arrow1Lstart"
       orient="auto"
       refY="0.0"
       refX="0.0"
       id="marker1722"
       style="overflow:visible"
       inkscape:isstock="true">
      <path
         id="path1720"
         d="M 0.0,0.0 L 5.0,-5.0 L -12.5,0.0 L 5.0,5.0 L 0.0,0.0 z "
         style="fill-rule:evenodd;stroke:none;stroke-width:1pt;stroke-opacity:1;fill:#ede1e7;fill-opacity:1"
         transform="scale(0.8) translate(12.5,0)" />
    </marker>
    <marker
       inkscape:stockid="Arrow1Lstart"
       orient="auto"
       refY="0.0"
       refX="0.0"
       id="marker1670"
       style="overflow:visible"
       inkscape:isstock="true">
      <path
         id="path1668"
         d="M 0.0,0.0 L 5.0,-5.0 L -12.5,0.0 L 5.0,5.0 L 0.0,0.0 z "
         style="fill-rule:evenodd;stroke:none;stroke-width:1pt;stroke-opacity:1;fill:#ede1e7;fill-opacity:1"
         transform="scale(0.8) translate(12.5,0)" />
    </marker>
    <marker
       inkscape:stockid="Arrow1Lstart"
       orient="auto"
       refY="0.0"
       refX="0.0"
       id="marker1624"
       style="overflow:visible"
       inkscape:isstock="true">
      <path
         id="path1622"
         d="M 0.0,0.0 L 5.0,-5.0 L -12.5,0.0 L 5.0,5.0 L 0.0,0.0 z "
         style="fill-rule:evenodd;stroke:none;stroke-width:1pt;stroke-opacity:1;fill:#ede1e7;fill-opacity:1"
         transform="scale(0.8) translate(12.5,0)" />
    </marker>
    <marker
       inkscape:stockid="Arrow1Lstart"
       orient="auto"
       refY="0.0"
       refX="0.0"
       id="marker1584"
       style="overflow:visible"
       inkscape:isstock="true">
      <path
         id="path1582"
         d="M 0.0,0.0 L 5.0,-5.0 L -12.5,0.0 L 5.0,5.0 L 0.0,0.0 z "
         style="fill-rule:evenodd;stroke:none;stroke-width:1pt;stroke-opacity:1;fill:#ede1e7;fill-opacity:1"
         transform="scale(0.8) translate(12.5,0)" />
    </marker>
    <marker
       inkscape:stockid="Arrow1Lstart"
       orient="auto"
       refY="0.0"
       refX="0.0"
       id="marker1550"
       style="overflow:visible"
       inkscape:isstock="true">
      <path
         id="path1548"
         d="M 0.0,0.0 L 5.0,-5.0 L -12.5,0.0 L 5.0,5.0 L 0.0,0.0 z "
         style="fill-rule:evenodd;stroke:none;stroke-width:1pt;stroke-opacity:1;fill:#ede1e7;fill-opacity:1"
         transform="scale(0.8) translate(12.5,0)" />
    </marker>
    <marker
       inkscape:stockid="Arrow1Lstart"
       orient="auto"
       refY="0.0"
       refX="0.0"
       id="marker1522"
       style="overflow:visible"
       inkscape:isstock="true">
      <path
         id="path1520"
         d="M 0.0,0.0 L 5.0,-5.0 L -12.5,0.0 L 5.0,5.0 L 0.0,0.0 z "
         style="fill-rule:evenodd;stroke:none;stroke-width:1pt;stroke-opacity:1;fill:#ede1e7;fill-opacity:1"
         transform="scale(0.8) translate(12.5,0)" />
    </marker>
    <marker
       inkscape:stockid="Arrow1Lstart"
       orient="auto"
       refY="0.0"
       refX="0.0"
       id="marker1500"
       style="overflow:visible"
       inkscape:isstock="true">
      <path
         id="path1498"
         d="M 0.0,0.0 L 5.0,-5.0 L -12.5,0.0 L 5.0,5.0 L 0.0,0.0 z "
         style="fill-rule:evenodd;stroke:none;stroke-width:1pt;stroke-opacity:1;fill:#ede1e7;fill-opacity:1"
         transform="scale(0.8) translate(12.5,0)" />
    </marker>
    <marker
       inkscape:stockid="Arrow1Lstart"
       orient="auto"
       refY="0.0"
       refX="0.0"
       id="Arrow1Lstart"
       style="overflow:visible"
       inkscape:isstock="true">
      <path
         id="path1222"
         d="M 0.0,0.0 L 5.0,-5.0 L -12.5,0.0 L 5.0,5.0 L 0.0,0.0 z "
         style="fill-rule:evenodd;stroke:none;stroke-width:1pt;stroke-opacity:1;fill:#ede1e7;fill-opacity:1"
         transform="scale(0.8) translate(12.5,0)" />
    </marker>
  </defs>
  <sodipodi:namedview
     id="base"
     pagecolor="#ffffff"
     bordercolor="#666666"
     borderopacity="1.0"
     inkscape:pageopacity="0.0"
     inkscape:pageshadow="2"
     inkscape:zoom="4"
     inkscape:cx="-77.071007"
     inkscape:cy="67.33728"
     inkscape:document-units="px"
     inkscape:current-layer="layer1"
     showgrid="false"
     units="px"
     inkscape:snap-bbox="true"
     inkscape:snap-page="true"
     inkscape:bbox-nodes="true"
     inkscape:snap-bbox-edge-midpoints="true"
     inkscape:window-width="1440"
     inkscape:window-height="856"
     inkscape:window-x="0"
     inkscape:window-y="0"
     inkscape:window-maximized="0" />
  <metadata
     id="metadata5">
    <rdf:RDF>
      <cc:Work
         rdf:about="">
        <dc:format>image/svg+xml</dc:format>
        <dc:type
           rdf:resource="http://purl.org/dc/dcmitype/StillImage" />
        <dc:title />
      </cc:Work>
    </rdf:RDF>
  </metadata>
  <g
     inkscape:label="Layer 1"
     inkscape:groupmode="layer"
     id="layer1"
     transform="translate(0,-196.45832)">
    <rect
       style="opacity:1;fill:#212f33;fill-opacity:1;stroke:none;stroke-width:0.34400001;stroke-linecap:round;stroke-linejoin:round;stroke-miterlimit:4;stroke-dasharray:none;stroke-opacity:1"
       id="rect889"
       width="11.906251"
       height="100.54167"
       x="0"
       y="196.45833" />
    <g
       aria-label="STUMBLE"
       transform="matrix(0.26458335,0,0,0.26458335,53.1785,189.42903)"
       style="font-style:normal;font-variant:normal;font-weight:bold;font-stretch:normal;font-size:10.66666698px;line-height:125%;font-family:'DIN Alternate';-inkscape-font-specification:'DIN Alternate, Bold';font-variant-ligatures:normal;font-variant-caps:normal;font-variant-numeric:normal;text-align:start;letter-spacing:0px;word-spacing:0px;writing-mode:lr-tb;text-anchor:start;fill:#e7e7e7;fill-opacity:1;stroke:none;stroke-width:1px;stroke-linecap:butt;stroke-linejoin:miter;stroke-opacity:1"
       id="flowRoot926">
      <path
         d="m -195.13559,47.626354 h -1.632 v -0.368 q 0,-0.56 -0.272,-0.96 -0.256,-0.416 -0.88,-0.416 -0.336,0 -0.544,0.128 -0.208,0.128 -0.336,0.32 -0.128,0.208 -0.176,0.48 -0.048,0.256 -0.048,0.544 0,0.336 0.016,0.56 0.032,0.224 0.128,0.4 0.096,0.176 0.272,0.304 0.192,0.128 0.512,0.256 l 1.248,0.496 q 0.544,0.208 0.88,0.496 0.336,0.272 0.528,0.64 0.176,0.384 0.24,0.88 0.064,0.48 0.064,1.104 0,0.72 -0.144,1.344 -0.144,0.608 -0.464,1.04 -0.336,0.448 -0.88,0.704 -0.544,0.256 -1.328,0.256 -0.592,0 -1.104,-0.208 -0.512,-0.208 -0.88,-0.576 -0.368,-0.368 -0.592,-0.848 -0.208,-0.496 -0.208,-1.072 v -0.608 h 1.632 v 0.512 q 0,0.448 0.256,0.816 0.272,0.352 0.896,0.352 0.416,0 0.64,-0.112 0.24,-0.128 0.368,-0.352 0.128,-0.224 0.144,-0.528 0.032,-0.32 0.032,-0.704 0,-0.448 -0.032,-0.736 -0.032,-0.288 -0.128,-0.464 -0.112,-0.176 -0.304,-0.288 -0.176,-0.112 -0.48,-0.24 l -1.168,-0.48 q -1.056,-0.432 -1.424,-1.136 -0.352,-0.72 -0.352,-1.792 0,-0.64 0.176,-1.216 0.176,-0.576 0.528,-0.992 0.336,-0.416 0.848,-0.656 0.528,-0.256 1.248,-0.256 0.608,0 1.104,0.224 0.512,0.224 0.88,0.592 0.736,0.768 0.736,1.76 z"
         style="font-style:normal;font-variant:normal;font-weight:bold;font-stretch:condensed;font-size:16px;font-family:'DIN Condensed';-inkscape-font-specification:'DIN Condensed, Bold Condensed';font-variant-ligatures:normal;font-variant-caps:normal;font-variant-numeric:normal;font-feature-settings:normal;text-align:start;writing-mode:lr-tb;text-anchor:start;fill:#e7e7e7;fill-opacity:1"
         id="path888" />
      <path
         d="m -192.84359,55.738354 v -9.856 h -1.888 v -1.536 h 5.408 v 1.536 h -1.888 v 9.856 z"
         style="font-style:normal;font-variant:normal;font-weight:bold;font-stretch:condensed;font-size:16px;font-family:'DIN Condensed';-inkscape-font-specification:'DIN Condensed, Bold Condensed';font-variant-ligatures:normal;font-variant-caps:normal;font-variant-numeric:normal;font-feature-settings:normal;text-align:start;writing-mode:lr-tb;text-anchor:start;fill:#e7e7e7;fill-opacity:1"
         id="path890" />
      <path
         d="m -183.32309,44.346354 v 8.832 q 0,0.56 -0.208,1.04 -0.192,0.464 -0.56,0.832 -0.368,0.368 -0.848,0.576 -0.48,0.208 -1.024,0.208 -0.544,0 -1.024,-0.208 -0.464,-0.208 -0.832,-0.576 -0.368,-0.368 -0.576,-0.832 -0.208,-0.48 -0.208,-1.04 v -8.832 h 1.632 v 8.672 q 0,0.608 0.288,0.896 0.288,0.288 0.72,0.288 0.432,0 0.72,-0.288 0.288,-0.288 0.288,-0.896 v -8.672 z"
         style="font-style:normal;font-variant:normal;font-weight:bold;font-stretch:condensed;font-size:16px;font-family:'DIN Condensed';-inkscape-font-specification:'DIN Condensed, Bold Condensed';font-variant-ligatures:normal;font-variant-caps:normal;font-variant-numeric:normal;font-feature-settings:normal;text-align:start;writing-mode:lr-tb;text-anchor:start;fill:#e7e7e7;fill-opacity:1"
         id="path892" />
      <path
         d="m -181.79059,55.738354 v -11.392 h 1.568 l 2.096,6.032 h 0.032 l 2.08,-6.032 h 1.584 v 11.392 h -1.632 v -6.928 h -0.032 l -1.616,4.896 h -0.816 l -1.6,-4.896 h -0.032 v 6.928 z"
         style="font-style:normal;font-variant:normal;font-weight:bold;font-stretch:condensed;font-size:16px;font-family:'DIN Condensed';-inkscape-font-specification:'DIN Condensed, Bold Condensed';font-variant-ligatures:normal;font-variant-caps:normal;font-variant-numeric:normal;font-feature-settings:normal;text-align:start;writing-mode:lr-tb;text-anchor:start;fill:#e7e7e7;fill-opacity:1"
         id="path894" />
      <path
         d="m -172.88434,55.738354 v -11.392 h 2.384 q 0.784,0 1.328,0.24 0.56,0.24 0.912,0.64 0.352,0.4 0.496,0.928 0.16,0.512 0.16,1.072 v 0.416 q 0,0.464 -0.08,0.784 -0.064,0.32 -0.208,0.56 -0.272,0.448 -0.832,0.768 0.576,0.272 0.848,0.8 0.272,0.528 0.272,1.44 v 0.64 q 0,1.504 -0.736,2.304 -0.72,0.8 -2.32,0.8 z m 1.632,-5.28 v 3.648 h 0.704 q 0.496,0 0.768,-0.144 0.288,-0.144 0.432,-0.4 0.144,-0.256 0.176,-0.608 0.032,-0.352 0.032,-0.768 0,-0.432 -0.048,-0.752 -0.048,-0.32 -0.192,-0.544 -0.16,-0.224 -0.432,-0.32 -0.272,-0.112 -0.72,-0.112 z m 0,-4.576 v 3.136 h 0.736 q 0.816,0 1.088,-0.4 0.288,-0.416 0.288,-1.2 0,-0.768 -0.32,-1.152 -0.304,-0.384 -1.12,-0.384 z"
         style="font-style:normal;font-variant:normal;font-weight:bold;font-stretch:condensed;font-size:16px;font-family:'DIN Condensed';-inkscape-font-specification:'DIN Condensed, Bold Condensed';font-variant-ligatures:normal;font-variant-caps:normal;font-variant-numeric:normal;font-feature-settings:normal;text-align:start;writing-mode:lr-tb;text-anchor:start;fill:#e7e7e7;fill-opacity:1"
         id="path896" />
      <path
         d="m -166.07184,55.738354 v -11.392 h 1.632 v 9.76 h 3.232 v 1.632 z"
         style="font-style:normal;font-variant:normal;font-weight:bold;font-stretch:condensed;font-size:16px;font-family:'DIN Condensed';-inkscape-font-specification:'DIN Condensed, Bold Condensed';font-variant-ligatures:normal;font-variant-caps:normal;font-variant-numeric:normal;font-feature-settings:normal;text-align:start;writing-mode:lr-tb;text-anchor:start;fill:#e7e7e7;fill-opacity:1"
         id="path898" />
      <path
         d="m -160.16559,55.738354 v -11.392 h 4.864 v 1.536 h -3.232 v 3.344 h 2.816 v 1.536 h -2.816 v 3.344 h 3.232 v 1.632 z"
         style="font-style:normal;font-variant:normal;font-weight:bold;font-stretch:condensed;font-size:16px;font-family:'DIN Condensed';-inkscape-font-specification:'DIN Condensed, Bold Condensed';font-variant-ligatures:normal;font-variant-caps:normal;font-variant-numeric:normal;font-feature-settings:normal;text-align:start;writing-mode:lr-tb;text-anchor:start;fill:#e7e7e7;fill-opacity:1"
         id="path900" />
    </g>
    <rect
       style="fill:#4a5356;fill-opacity:1;stroke:#8e9dbc;stroke-width:0.29900867;stroke-miterlimit:4;stroke-dasharray:none;stroke-opacity:1"
       id="rect1060"
       width="9.2259912"
       height="11.871825"
       x="1.4438529"
       y="269.10364"
       rx="0.79079932"
       ry="0.79145503" />
    <rect
       style="fill:#e2e9ed;fill-opacity:0.99607843;stroke:#8e9dbc;stroke-width:0.29900867;stroke-linecap:round;stroke-linejoin:round;stroke-miterlimit:4;stroke-dasharray:none;stroke-opacity:1"
       id="rect1153"
       width="9.2259912"
       height="11.871825"
       x="1.3224212"
       y="254.55159"
       rx="0.79079932"
       ry="0.79145503" />
    <rect
       style="fill:#e2e9ed;fill-opacity:0.99607843;stroke:#8e9dbc;stroke-width:0.29900867;stroke-linecap:round;stroke-linejoin:round;stroke-miterlimit:4;stroke-dasharray:none;stroke-opacity:1"
       id="rect1184"
       width="9.2259912"
       height="11.871825"
       x="1.3224212"
       y="217.50992"
       rx="0.79079932"
       ry="0.79145503" />
    <g
       id="g3377"
       style="fill:#e7e7e7;fill-opacity:1">
      <g
         id="text1208"
         style="font-style:normal;font-variant:normal;font-weight:normal;font-stretch:normal;font-size:10.58333397px;line-height:125%;font-family:Lato;-inkscape-font-specification:'Lato, Normal';text-align:start;letter-spacing:0px;word-spacing:0px;writing-mode:lr-tb;text-anchor:start;fill:#e7e7e7;fill-opacity:1;stroke:none;stroke-width:0.26458335px;stroke-linecap:butt;stroke-linejoin:miter;stroke-opacity:1"
         aria-label="GoSh">
        <path
           id="path3363"
           style="font-style:normal;font-variant:normal;font-weight:bold;font-stretch:condensed;font-size:5.64444494px;font-family:'DIN Condensed';-inkscape-font-specification:'DIN Condensed, Bold Condensed';font-variant-ligatures:normal;font-variant-caps:normal;font-variant-numeric:normal;font-feature-settings:normal;text-align:start;writing-mode:lr-tb;text-anchor:start;stroke-width:0.26458335px;fill:#e7e7e7;fill-opacity:1"
           d="m 1.7023733,289.33421 q 0,-0.24271 0.084667,-0.42898 0.084667,-0.18627 0.2257778,-0.31045 0.1354667,-0.11853 0.3048,-0.18062 0.1749778,-0.0621 0.3499556,-0.0621 0.1749778,0 0.3443112,0.0621 0.1749777,0.0621 0.3160889,0.18062 0.1354666,0.12418 0.2201333,0.31045 0.084667,0.18627 0.084667,0.42898 v 0.2032 H 3.0570401 v -0.2032 q 0,-0.20885 -0.1185333,-0.3048 -0.1128889,-0.1016 -0.2709334,-0.1016 -0.1580444,0 -0.2765778,0.1016 -0.1128889,0.096 -0.1128889,0.3048 v 2.12231 q 0,0.20884 0.1128889,0.31044 0.1185334,0.096 0.2765778,0.096 0.1580445,0 0.2709334,-0.096 0.1185333,-0.1016 0.1185333,-0.31044 v -0.75636 h -0.4572 v -0.508 h 1.0329334 v 1.26436 q 0,0.254 -0.084667,0.43462 -0.084667,0.18062 -0.2201333,0.29916 -0.1411112,0.12417 -0.3160889,0.18626 -0.1693334,0.0621 -0.3443112,0.0621 -0.1749778,0 -0.3499556,-0.0621 -0.1693333,-0.0621 -0.3048,-0.18626 -0.1411111,-0.11854 -0.2257778,-0.29916 -0.084667,-0.18062 -0.084667,-0.43462 z" />
        <path
           id="path3365"
           style="font-style:normal;font-variant:normal;font-weight:bold;font-stretch:condensed;font-size:5.64444494px;font-family:'DIN Condensed';-inkscape-font-specification:'DIN Condensed, Bold Condensed';font-variant-ligatures:normal;font-variant-caps:normal;font-variant-numeric:normal;font-feature-settings:normal;text-align:start;writing-mode:lr-tb;text-anchor:start;stroke-width:0.26458335px;fill:#e7e7e7;fill-opacity:1"
           d="m 4.0548722,290.50261 q 0,-0.17498 0.022578,-0.32174 0.022578,-0.14675 0.084667,-0.25964 0.1016,-0.18627 0.2878667,-0.29916 0.1919112,-0.11289 0.4628445,-0.11289 0.2709334,0 0.4572,0.11289 0.1919112,0.11289 0.2935112,0.29916 0.062089,0.11289 0.084667,0.25964 0.022578,0.14676 0.022578,0.32174 v 0.94262 q 0,0.17498 -0.022578,0.32173 -0.022578,0.14676 -0.084667,0.25965 -0.1016,0.18626 -0.2935112,0.29915 -0.1862666,0.11289 -0.4572,0.11289 -0.2709333,0 -0.4628445,-0.11289 -0.1862667,-0.11289 -0.2878667,-0.29915 -0.062089,-0.11289 -0.084667,-0.25965 -0.022578,-0.14675 -0.022578,-0.32173 z m 0.5757334,1.03293 q 0,0.16369 0.073378,0.24836 0.079022,0.079 0.2088445,0.079 0.1298222,0 0.2032,-0.079 0.079022,-0.0847 0.079022,-0.24836 v -1.12324 q 0,-0.16369 -0.079022,-0.24272 -0.073378,-0.0847 -0.2032,-0.0847 -0.1298222,0 -0.2088445,0.0847 -0.073378,0.079 -0.073378,0.24272 z" />
        <path
           id="path3367"
           style="font-style:normal;font-variant:normal;font-weight:bold;font-stretch:condensed;font-size:5.64444494px;font-family:'DIN Condensed';-inkscape-font-specification:'DIN Condensed, Bold Condensed';font-variant-ligatures:normal;font-variant-caps:normal;font-variant-numeric:normal;font-feature-settings:normal;text-align:start;writing-mode:lr-tb;text-anchor:start;stroke-width:0.26458335px;fill:#e7e7e7;fill-opacity:1"
           d="M 8.0857995,289.54305 H 7.5100661 v -0.12982 q 0,-0.19756 -0.095956,-0.33867 -0.090311,-0.14675 -0.3104445,-0.14675 -0.1185333,0 -0.1919111,0.0451 -0.073378,0.0452 -0.1185334,0.11289 -0.045155,0.0734 -0.062089,0.16933 -0.016933,0.0903 -0.016933,0.19192 0,0.11853 0.00564,0.19755 0.011289,0.079 0.045155,0.14111 0.033867,0.0621 0.095956,0.10725 0.067733,0.0451 0.1806222,0.0903 l 0.4402667,0.17498 q 0.1919111,0.0734 0.3104445,0.17497 0.1185333,0.096 0.1862667,0.22578 0.062089,0.13547 0.084667,0.31045 0.022578,0.16933 0.022578,0.38946 0,0.254 -0.0508,0.47414 -0.0508,0.21449 -0.1636889,0.36689 -0.1185333,0.15804 -0.3104445,0.24835 -0.1919111,0.0903 -0.4684889,0.0903 -0.2088444,0 -0.3894667,-0.0734 -0.1806222,-0.0734 -0.3104445,-0.2032 -0.1298222,-0.12982 -0.2088444,-0.29915 -0.073378,-0.17498 -0.073378,-0.37818 v -0.21449 h 0.5757334 v 0.18062 q 0,0.15805 0.090311,0.28787 0.095956,0.12418 0.3160889,0.12418 0.1467556,0 0.2257778,-0.0395 0.084667,-0.0452 0.1298222,-0.12418 0.045156,-0.079 0.0508,-0.18627 0.011289,-0.11289 0.011289,-0.24835 0,-0.15805 -0.011289,-0.25965 -0.011289,-0.1016 -0.045156,-0.16369 -0.039511,-0.0621 -0.1072445,-0.1016 -0.062089,-0.0395 -0.1693333,-0.0847 l -0.4120445,-0.16934 q -0.3725334,-0.1524 -0.5023556,-0.40075 -0.1241778,-0.254 -0.1241778,-0.63218 0,-0.22578 0.062089,-0.42898 0.062089,-0.2032 0.1862667,-0.34995 0.1185333,-0.14676 0.2991556,-0.23143 0.1862667,-0.0903 0.4402667,-0.0903 0.2144889,0 0.3894667,0.079 0.1806222,0.079 0.3104445,0.20884 0.2596444,0.27093 0.2596444,0.62089 z" />
        <path
           id="path3369"
           style="font-style:normal;font-variant:normal;font-weight:bold;font-stretch:condensed;font-size:5.64444494px;font-family:'DIN Condensed';-inkscape-font-specification:'DIN Condensed, Bold Condensed';font-variant-ligatures:normal;font-variant-caps:normal;font-variant-numeric:normal;font-feature-settings:normal;text-align:start;writing-mode:lr-tb;text-anchor:start;stroke-width:0.26458335px;fill:#e7e7e7;fill-opacity:1"
           d="m 8.4823216,292.40479 v -4.01885 h 0.5757333 v 1.43369 h 0.011289 q 0.090311,-0.13547 0.2144889,-0.22013 0.1298223,-0.0903 0.3273779,-0.0903 0.1072444,0 0.2144889,0.0395 0.1072444,0.0339 0.1919115,0.11853 0.08467,0.0847 0.135466,0.22013 0.0508,0.12982 0.0508,0.32174 v 2.19569 H 9.6281439 v -1.98121 q 0,-0.15804 -0.073378,-0.24835 -0.073378,-0.0903 -0.2088445,-0.0903 -0.1636889,0 -0.2257778,0.1016 -0.062089,0.1016 -0.062089,0.29351 v 1.92476 z" />
      </g>
    </g>
    <g
       id="g3345"
       style="fill:#212e33;fill-opacity:1">
      <g
         id="text1212"
         style="font-style:normal;font-variant:normal;font-weight:bold;font-stretch:normal;font-size:2.82222247px;line-height:125%;font-family:'DIN Alternate';-inkscape-font-specification:'DIN Alternate, Bold';font-variant-ligatures:normal;font-variant-caps:normal;font-variant-numeric:normal;font-feature-settings:normal;text-align:start;letter-spacing:0px;word-spacing:0px;writing-mode:lr-tb;text-anchor:start;fill:#212e33;fill-opacity:1;stroke:none;stroke-width:0.26458335px;stroke-linecap:butt;stroke-linejoin:miter;stroke-opacity:1"
         aria-label="Gate">
        <path
           id="path3331"
           style="font-style:normal;font-variant:normal;font-weight:bold;font-stretch:normal;font-size:2.82222247px;font-family:'DIN Alternate';-inkscape-font-specification:'DIN Alternate, Bold';font-variant-ligatures:normal;font-variant-caps:normal;font-variant-numeric:normal;font-feature-settings:normal;text-align:start;writing-mode:lr-tb;text-anchor:start;stroke-width:0.26458335px;fill:#212e33;fill-opacity:1"
           d="m 4.1410049,256.18936 h 0.7138239 v 0.40928 q -0.00551,0.30179 -0.2067058,0.50574 -0.2025716,0.20257 -0.5098741,0.20809 -0.2370226,-0.006 -0.395497,-0.11576 -0.1612305,-0.10611 -0.2342665,-0.24529 -0.022049,-0.0455 -0.039963,-0.0868 -0.016536,-0.0427 -0.027561,-0.10748 -0.020671,-0.12127 -0.020671,-0.46578 0,-0.35002 0.020671,-0.46853 0.022049,-0.11852 0.067524,-0.19155 0.073036,-0.13918 0.2342665,-0.24805 0.1584744,-0.11024 0.395497,-0.113 0.290766,0.003 0.4740451,0.17226 0.1832791,0.17087 0.2315105,0.42306 h -0.322461 q -0.037207,-0.12127 -0.1350477,-0.20671 -0.1019749,-0.0813 -0.2480469,-0.0841 -0.107487,0.003 -0.1846572,0.0427 -0.078548,0.0413 -0.1267795,0.10335 -0.059256,0.0648 -0.078548,0.16674 -0.022049,0.10749 -0.022049,0.40377 0,0.29628 0.022049,0.40101 0.019293,0.10473 0.078548,0.1695 0.048231,0.062 0.1267795,0.10059 0.07717,0.0455 0.1846572,0.0455 0.1777669,0 0.2935221,-0.12127 0.1157552,-0.11575 0.1185113,-0.30454 v -0.10474 H 4.1410049 Z" />
        <path
           id="path3333"
           style="font-style:normal;font-variant:normal;font-weight:bold;font-stretch:normal;font-size:2.82222247px;font-family:'DIN Alternate';-inkscape-font-specification:'DIN Alternate, Bold';font-variant-ligatures:normal;font-variant-caps:normal;font-variant-numeric:normal;font-feature-settings:normal;text-align:start;writing-mode:lr-tb;text-anchor:start;stroke-width:0.26458335px;fill:#212e33;fill-opacity:1"
           d="m 5.9338327,257.16915 h -0.00551 q -0.039963,0.073 -0.1240235,0.10749 -0.082682,0.0358 -0.2287543,0.0358 -0.2397787,-0.003 -0.3693143,-0.12678 -0.1364258,-0.12127 -0.1364258,-0.31006 0,-0.18053 0.1185113,-0.29904 0.1185113,-0.12126 0.3472657,-0.12402 h 0.398253 v -0.15021 q 0.00276,-0.18879 -0.2935221,-0.18328 -0.107487,0 -0.1694987,0.022 -0.064768,0.0262 -0.1019749,0.0882 v 0 l -0.2259983,-0.17226 q 0.1639866,-0.21497 0.4836915,-0.20946 0.2700955,-0.003 0.431326,0.10198 0.1612305,0.10748 0.1639865,0.36931 v 0.97703 h -0.28801 z m 0,-0.47956 H 5.5893232 q -0.250803,0.006 -0.2480469,0.17226 0,0.073 0.064768,0.12402 0.062012,0.0565 0.2053277,0.0565 0.180523,0.003 0.2549371,-0.0427 0.067524,-0.0455 0.067524,-0.20671 z" />
        <path
           id="path3335"
           style="font-style:normal;font-variant:normal;font-weight:bold;font-stretch:normal;font-size:2.82222247px;font-family:'DIN Alternate';-inkscape-font-specification:'DIN Alternate, Bold';font-variant-ligatures:normal;font-variant-caps:normal;font-variant-numeric:normal;font-feature-settings:normal;text-align:start;writing-mode:lr-tb;text-anchor:start;stroke-width:0.26458335px;fill:#212e33;fill-opacity:1"
           d="m 6.6104496,255.43007 h 0.28801 v 0.43546 h 0.2094618 v 0.2191 H 6.8984596 v 0.83372 q -0.00276,0.10886 0.1019748,0.10611 h 0.107487 v 0.27147 H 6.9577152 q -0.1515842,0 -0.2480469,-0.0937 -0.099219,-0.0896 -0.099219,-0.25907 v -0.85852 h -0.143316 v -0.2191 h 0.143316 z" />
        <path
           id="path3337"
           style="font-style:normal;font-variant:normal;font-weight:bold;font-stretch:normal;font-size:2.82222247px;font-family:'DIN Alternate';-inkscape-font-specification:'DIN Alternate, Bold';font-variant-ligatures:normal;font-variant-caps:normal;font-variant-numeric:normal;font-feature-settings:normal;text-align:start;writing-mode:lr-tb;text-anchor:start;stroke-width:0.26458335px;fill:#212e33;fill-opacity:1"
           d="m 7.594369,256.68959 q 0,0.17226 0.099219,0.26183 0.092329,0.091 0.2425348,0.091 0.1750108,0 0.3128147,-0.13918 v 0 l 0.2080837,0.17776 q -0.219108,0.23427 -0.5153863,0.23152 -0.1129991,0 -0.2204861,-0.0331 -0.053744,-0.0179 -0.1047309,-0.0482 -0.053744,-0.0262 -0.1005968,-0.0648 -0.090951,-0.0799 -0.1474501,-0.22324 -0.062012,-0.1378 -0.062012,-0.35829 0,-0.21222 0.053743,-0.35278 0.053744,-0.14331 0.1378039,-0.22599 0.085438,-0.0841 0.1915473,-0.12127 0.1047309,-0.0372 0.2067058,-0.0372 0.2452908,0.003 0.4147895,0.16123 0.1722548,0.16123 0.1750109,0.44373 v 0.23702 z m 0.6035807,-0.23702 q -0.00551,-0.16674 -0.089572,-0.25218 -0.082682,-0.0813 -0.2122179,-0.0813 -0.1295357,0 -0.2122179,0.0813 -0.081304,0.0854 -0.089573,0.25218 z" />
      </g>
    </g>
    <g
       id="g3361"
       style="fill:#e7e7e7;fill-opacity:1">
      <g
         id="text1216"
         style="font-style:normal;font-variant:normal;font-weight:bold;font-stretch:normal;font-size:2.82222247px;line-height:125%;font-family:'DIN Alternate';-inkscape-font-specification:'DIN Alternate, Bold';font-variant-ligatures:normal;font-variant-caps:normal;font-variant-numeric:normal;font-feature-settings:normal;text-align:start;letter-spacing:0px;word-spacing:0px;writing-mode:lr-tb;text-anchor:start;fill:#e7e7e7;fill-opacity:1;stroke:none;stroke-width:0.26458335px;stroke-linecap:butt;stroke-linejoin:miter;stroke-opacity:1"
         aria-label="Gate">
        <path
           id="path3347"
           style="font-style:normal;font-variant:normal;font-weight:bold;font-stretch:normal;font-size:2.82222247px;font-family:'DIN Alternate';-inkscape-font-specification:'DIN Alternate, Bold';font-variant-ligatures:normal;font-variant-caps:normal;font-variant-numeric:normal;font-feature-settings:normal;text-align:start;writing-mode:lr-tb;text-anchor:start;fill:#e7e7e7;fill-opacity:1;stroke-width:0.26458335px"
           d="m 4.1410049,270.74143 h 0.7138239 v 0.40927 q -0.00551,0.30179 -0.2067058,0.50574 -0.2025716,0.20258 -0.5098741,0.20809 -0.2370226,-0.006 -0.395497,-0.11576 -0.1612305,-0.10611 -0.2342665,-0.24529 -0.022049,-0.0455 -0.039963,-0.0868 -0.016536,-0.0427 -0.027561,-0.10749 -0.020671,-0.12127 -0.020671,-0.46578 0,-0.35002 0.020671,-0.46853 0.022049,-0.11851 0.067524,-0.19155 0.073036,-0.13918 0.2342665,-0.24805 0.1584744,-0.11024 0.395497,-0.11299 0.290766,0.003 0.4740451,0.17225 0.1832791,0.17088 0.2315105,0.42306 h -0.322461 q -0.037207,-0.12127 -0.1350477,-0.20671 -0.1019749,-0.0813 -0.2480469,-0.0841 -0.107487,0.003 -0.1846572,0.0427 -0.078548,0.0413 -0.1267795,0.10335 -0.059256,0.0648 -0.078548,0.16675 -0.022049,0.10748 -0.022049,0.40376 0,0.29628 0.022049,0.40101 0.019293,0.10473 0.078548,0.1695 0.048231,0.062 0.1267795,0.1006 0.07717,0.0455 0.1846572,0.0455 0.1777669,0 0.2935221,-0.12127 0.1157552,-0.11575 0.1185113,-0.30454 v -0.10473 H 4.1410049 Z" />
        <path
           id="path3349"
           style="font-style:normal;font-variant:normal;font-weight:bold;font-stretch:normal;font-size:2.82222247px;font-family:'DIN Alternate';-inkscape-font-specification:'DIN Alternate, Bold';font-variant-ligatures:normal;font-variant-caps:normal;font-variant-numeric:normal;font-feature-settings:normal;text-align:start;writing-mode:lr-tb;text-anchor:start;fill:#e7e7e7;fill-opacity:1;stroke-width:0.26458335px"
           d="m 5.9338327,271.72121 h -0.00551 q -0.039963,0.073 -0.1240235,0.10749 -0.082682,0.0358 -0.2287543,0.0358 -0.2397787,-0.003 -0.3693143,-0.12678 -0.1364258,-0.12127 -0.1364258,-0.31006 0,-0.18052 0.1185113,-0.29903 0.1185113,-0.12127 0.3472657,-0.12403 h 0.398253 v -0.1502 q 0.00276,-0.18879 -0.2935221,-0.18328 -0.107487,0 -0.1694987,0.022 -0.064768,0.0262 -0.1019749,0.0882 v 0 l -0.2259983,-0.17225 q 0.1639866,-0.21498 0.4836915,-0.20947 0.2700955,-0.003 0.431326,0.10198 0.1612305,0.10749 0.1639865,0.36931 v 0.97703 h -0.28801 z m 0,-0.47955 H 5.5893232 q -0.250803,0.006 -0.2480469,0.17225 0,0.073 0.064768,0.12402 0.062012,0.0565 0.2053277,0.0565 0.180523,0.003 0.2549371,-0.0427 0.067524,-0.0455 0.067524,-0.2067 z" />
        <path
           id="path3351"
           style="font-style:normal;font-variant:normal;font-weight:bold;font-stretch:normal;font-size:2.82222247px;font-family:'DIN Alternate';-inkscape-font-specification:'DIN Alternate, Bold';font-variant-ligatures:normal;font-variant-caps:normal;font-variant-numeric:normal;font-feature-settings:normal;text-align:start;writing-mode:lr-tb;text-anchor:start;fill:#e7e7e7;fill-opacity:1;stroke-width:0.26458335px"
           d="m 6.6104496,269.98213 h 0.28801 v 0.43546 h 0.2094618 v 0.21911 H 6.8984596 v 0.83371 q -0.00276,0.10886 0.1019748,0.10611 h 0.107487 v 0.27147 H 6.9577152 q -0.1515842,0 -0.2480469,-0.0937 -0.099219,-0.0896 -0.099219,-0.25908 v -0.85851 h -0.143316 v -0.21911 h 0.143316 z" />
        <path
           id="path3353"
           style="font-style:normal;font-variant:normal;font-weight:bold;font-stretch:normal;font-size:2.82222247px;font-family:'DIN Alternate';-inkscape-font-specification:'DIN Alternate, Bold';font-variant-ligatures:normal;font-variant-caps:normal;font-variant-numeric:normal;font-feature-settings:normal;text-align:start;writing-mode:lr-tb;text-anchor:start;fill:#e7e7e7;fill-opacity:1;stroke-width:0.26458335px"
           d="m 7.594369,271.24166 q 0,0.17225 0.099219,0.26182 0.092329,0.0909 0.2425348,0.0909 0.1750108,0 0.3128147,-0.13918 v 0 l 0.2080837,0.17777 q -0.219108,0.23426 -0.5153863,0.23151 -0.1129991,0 -0.2204861,-0.0331 -0.053744,-0.0179 -0.1047309,-0.0482 -0.053744,-0.0262 -0.1005968,-0.0648 -0.090951,-0.0799 -0.1474501,-0.22325 -0.062012,-0.1378 -0.062012,-0.35829 0,-0.21221 0.053743,-0.35277 0.053744,-0.14332 0.1378039,-0.226 0.085438,-0.0841 0.1915473,-0.12127 0.1047309,-0.0372 0.2067058,-0.0372 0.2452908,0.003 0.4147895,0.16123 0.1722548,0.16123 0.1750109,0.44373 v 0.23703 z m 0.6035807,-0.23703 q -0.00551,-0.16674 -0.089572,-0.25218 -0.082682,-0.0813 -0.2122179,-0.0813 -0.1295357,0 -0.2122179,0.0813 -0.081304,0.0854 -0.089573,0.25218 z" />
      </g>
    </g>
    <g
       aria-label="P"
       transform="scale(0.99999601,1.000004)"
       style="font-style:normal;font-variant:normal;font-weight:bold;font-stretch:normal;font-size:2.82221127px;line-height:125%;font-family:'DIN Alternate';-inkscape-font-specification:'DIN Alternate, Bold';font-variant-ligatures:normal;font-variant-caps:normal;font-variant-numeric:normal;font-feature-settings:normal;text-align:start;letter-spacing:0px;word-spacing:0px;writing-mode:lr-tb;text-anchor:start;fill:#212e33;fill-opacity:1;stroke:none;stroke-width:0.26458231px;stroke-linecap:butt;stroke-linejoin:miter;stroke-opacity:1"
       id="text1220">
      <path
         d="m 6.0346571,219.19783 h 0.4506167 q 0.169498,-0.003 0.2549361,-0.10473 0.081304,-0.0992 0.081304,-0.22048 0,-0.1006 -0.033073,-0.1695 -0.034451,-0.062 -0.096462,-0.0978 -0.093706,-0.0593 -0.2177292,-0.0565 H 6.0346571 Z m -0.3045453,-0.93706 h 0.7276013 q 0.1185109,0 0.2287535,0.022 0.1102426,0.0289 0.2232413,0.11851 0.095084,0.0675 0.1543397,0.19293 0.062011,0.12126 0.062011,0.28663 0,0.22324 -0.1570958,0.40652 -0.1612298,0.19292 -0.4712872,0.19843 h -0.463019 v 0.7841 H 5.7301118 Z"
         style="font-style:normal;font-variant:normal;font-weight:bold;font-stretch:normal;font-size:2.82221127px;font-family:'DIN Alternate';-inkscape-font-specification:'DIN Alternate, Bold';font-variant-ligatures:normal;font-variant-caps:normal;font-variant-numeric:normal;font-feature-settings:normal;text-align:start;writing-mode:lr-tb;text-anchor:start;stroke-width:0.26458231px;fill:#212e33;fill-opacity:1"
         id="path3328" />
    </g>
    <flowRoot
       xml:space="preserve"
       id="flowRoot910"
       style="fill:black;stroke:none;stroke-opacity:1;stroke-width:1px;stroke-linejoin:miter;stroke-linecap:butt;fill-opacity:1;font-family:'DIN Condensed';font-style:normal;font-weight:bold;font-size:18.66666667px;line-height:125%;letter-spacing:0px;word-spacing:0px;-inkscape-font-specification:'DIN Condensed, Bold Condensed';font-stretch:condensed;font-variant:normal;text-anchor:start;text-align:start;writing-mode:lr;font-variant-ligatures:normal;font-variant-caps:normal;font-variant-numeric:normal;font-feature-settings:normal;"><flowRegion
         id="flowRegion912"
         style="-inkscape-font-specification:'DIN Condensed, Bold Condensed';font-family:'DIN Condensed';font-weight:bold;font-style:normal;font-stretch:condensed;font-variant:normal;font-size:18.66666667px;text-anchor:start;text-align:start;writing-mode:lr;font-variant-ligatures:normal;font-variant-caps:normal;font-variant-numeric:normal;font-feature-settings:normal;"><rect
           id="rect914"
           width="111.83432"
           height="72.781067"
           x="-184.61539"
           y="54.556213"
           style="-inkscape-font-specification:'DIN Condensed, Bold Condensed';font-family:'DIN Condensed';font-weight:bold;font-style:normal;font-stretch:condensed;font-variant:normal;font-size:18.66666667px;text-anchor:start;text-align:start;writing-mode:lr;font-variant-ligatures:normal;font-variant-caps:normal;font-variant-numeric:normal;font-feature-settings:normal;" /></flowRegion><flowPara
         id="flowPara916" /></flowRoot>    <flowRoot
       xml:space="preserve"
       id="flowRoot918"
       style="fill:black;stroke:none;stroke-opacity:1;stroke-width:1px;stroke-linejoin:miter;stroke-linecap:butt;fill-opacity:1;font-family:'DIN Alternate';font-style:normal;font-weight:bold;font-size:10.66666667px;line-height:125%;letter-spacing:0px;word-spacing:0px;-inkscape-font-specification:'DIN Alternate, Bold';font-stretch:normal;font-variant:normal;text-anchor:start;text-align:start;writing-mode:lr;font-variant-ligatures:normal;font-variant-caps:normal;font-variant-numeric:normal"><flowRegion
         id="flowRegion920"><rect
           id="rect922"
           width="69.822487"
           height="72.781067"
           x="-191.71597"
           y="54.556213" /></flowRegion><flowPara
         id="flowPara924" /></flowRoot>  </g>
</svg>
